solid OpenSCAD_Model
  facet normal -1 0 0
    outer loop
      vertex 0 225 6.1
      vertex 0 222 23.5
      vertex 0 225 38
    endloop
  endfacet
  facet normal -1 0 0
    outer loop
      vertex 0 225 6.1
      vertex 0 183 23.5
      vertex 0 222 23.5
    endloop
  endfacet
  facet normal -1 0 0
    outer loop
      vertex 0 183 23.5
      vertex 0 180 38
      vertex 0 183 38
    endloop
  endfacet
  facet normal -1 0 0
    outer loop
      vertex 0 177 41
      vertex 0 180 38
      vertex 0 177 23.5
    endloop
  endfacet
  facet normal -1 0 0
    outer loop
      vertex 0 183 23.5
      vertex 0 177 23.5
      vertex 0 180 38
    endloop
  endfacet
  facet normal -1 0 0
    outer loop
      vertex 0 225 6.1
      vertex 0 177 23.5
      vertex 0 183 23.5
    endloop
  endfacet
  facet normal -1 0 0
    outer loop
      vertex 0 225 6.1
      vertex 0 138 23.5
      vertex 0 177 23.5
    endloop
  endfacet
  facet normal -1 0 0
    outer loop
      vertex 0 138 23.5
      vertex 0 132 23.5
      vertex 0 138 41
    endloop
  endfacet
  facet normal -1 0 0
    outer loop
      vertex 0 225 6.1
      vertex 0 132 23.5
      vertex 0 138 23.5
    endloop
  endfacet
  facet normal -1 0 0
    outer loop
      vertex 0 225 6.1
      vertex 0 93 23.5
      vertex 0 132 23.5
    endloop
  endfacet
  facet normal -1 0 0
    outer loop
      vertex 0 93 23.5
      vertex 0 87 23.5
      vertex 0 93 41
    endloop
  endfacet
  facet normal -1 0 0
    outer loop
      vertex 0 0 6.1
      vertex 0 93 23.5
      vertex 0 225 6.1
    endloop
  endfacet
  facet normal -1 -0 0
    outer loop
      vertex 0 93 23.5
      vertex 0 0 6.1
      vertex 0 87 23.5
    endloop
  endfacet
  facet normal -1 0 0
    outer loop
      vertex 0 48 23.5
      vertex 0 45 38
      vertex 0 48 41
    endloop
  endfacet
  facet normal -1 0 0
    outer loop
      vertex 0 48 23.5
      vertex 0 42 23.5
      vertex 0 45 38
    endloop
  endfacet
  facet normal -1 -0 0
    outer loop
      vertex 0 87 23.5
      vertex 0 0 6.1
      vertex 0 48 23.5
    endloop
  endfacet
  facet normal -1 -0 0
    outer loop
      vertex 0 48 23.5
      vertex 0 0 6.1
      vertex 0 42 23.5
    endloop
  endfacet
  facet normal -1 -0 0
    outer loop
      vertex 0 42 23.5
      vertex 0 0 6.1
      vertex 0 3 23.5
    endloop
  endfacet
  facet normal -1 0 0
    outer loop
      vertex 0 0 38
      vertex 0 3 23.5
      vertex 0 0 6.1
    endloop
  endfacet
  facet normal -1 0 0
    outer loop
      vertex 0 3 23.5
      vertex 0 0 38
      vertex 0 3 38
    endloop
  endfacet
  facet normal -1 -0 0
    outer loop
      vertex 0 225 38
      vertex 0 222 23.5
      vertex 0 222 38
    endloop
  endfacet
  facet normal -1 0 0
    outer loop
      vertex 0 180 38
      vertex 0 177 41
      vertex 0 180 41
    endloop
  endfacet
  facet normal -1 -0 0
    outer loop
      vertex 0 138 41
      vertex 0 132 23.5
      vertex 0 132 41
    endloop
  endfacet
  facet normal -1 -0 0
    outer loop
      vertex 0 93 41
      vertex 0 87 23.5
      vertex 0 87 41
    endloop
  endfacet
  facet normal -1 -0 0
    outer loop
      vertex 0 48 41
      vertex 0 45 38
      vertex 0 45 41
    endloop
  endfacet
  facet normal -1 -0 0
    outer loop
      vertex 0 45 38
      vertex 0 42 23.5
      vertex 0 42 38
    endloop
  endfacet
  facet normal -0 0 1
    outer loop
      vertex 1 224 46
      vertex 69 222 46
      vertex 69 224 46
    endloop
  endfacet
  facet normal 0 0 1
    outer loop
      vertex 69 222 46
      vertex 1 224 46
      vertex 1 222 46
    endloop
  endfacet
  facet normal -0 0 1
    outer loop
      vertex 1 3 46
      vertex 69 1 46
      vertex 69 3 46
    endloop
  endfacet
  facet normal 0 0 1
    outer loop
      vertex 69 1 46
      vertex 1 3 46
      vertex 1 1 46
    endloop
  endfacet
  facet normal -0 0 1
    outer loop
      vertex 1 183 46
      vertex 69 177 46
      vertex 69 183 46
    endloop
  endfacet
  facet normal 0 0 1
    outer loop
      vertex 69 177 46
      vertex 1 183 46
      vertex 1 177 46
    endloop
  endfacet
  facet normal -0 0 1
    outer loop
      vertex 1 138 46
      vertex 69 132 46
      vertex 69 138 46
    endloop
  endfacet
  facet normal 0 0 1
    outer loop
      vertex 69 132 46
      vertex 1 138 46
      vertex 1 132 46
    endloop
  endfacet
  facet normal -0 0 1
    outer loop
      vertex 1 93 46
      vertex 69 87 46
      vertex 69 93 46
    endloop
  endfacet
  facet normal 0 0 1
    outer loop
      vertex 69 87 46
      vertex 1 93 46
      vertex 1 87 46
    endloop
  endfacet
  facet normal -0 0 1
    outer loop
      vertex 1 48 46
      vertex 69 42 46
      vertex 69 48 46
    endloop
  endfacet
  facet normal 0 0 1
    outer loop
      vertex 69 42 46
      vertex 1 48 46
      vertex 1 42 46
    endloop
  endfacet
  facet normal 1 0 0
    outer loop
      vertex 70 3 38
      vertex 70 0 38
      vertex 70 3 23.5
    endloop
  endfacet
  facet normal 1 0 0
    outer loop
      vertex 70 45 38
      vertex 70 48 41
      vertex 70 45 41
    endloop
  endfacet
  facet normal 1 0 0
    outer loop
      vertex 70 93 41
      vertex 70 87 41
      vertex 70 93 23.5
    endloop
  endfacet
  facet normal 1 0 0
    outer loop
      vertex 70 138 41
      vertex 70 132 41
      vertex 70 138 23.5
    endloop
  endfacet
  facet normal 1 0 0
    outer loop
      vertex 70 180 41
      vertex 70 177 41
      vertex 70 180 38
    endloop
  endfacet
  facet normal 1 0 0
    outer loop
      vertex 70 183 38
      vertex 70 180 38
      vertex 70 183 23.5
    endloop
  endfacet
  facet normal 1 0 0
    outer loop
      vertex 70 222 23.5
      vertex 70 225 38
      vertex 70 222 38
    endloop
  endfacet
  facet normal 1 0 0
    outer loop
      vertex 70 225 38
      vertex 70 222 23.5
      vertex 70 225 6.1
    endloop
  endfacet
  facet normal 1 -0 0
    outer loop
      vertex 70 183 23.5
      vertex 70 225 6.1
      vertex 70 222 23.5
    endloop
  endfacet
  facet normal 1 0 0
    outer loop
      vertex 70 177 23.5
      vertex 70 180 38
      vertex 70 177 41
    endloop
  endfacet
  facet normal 1 0 0
    outer loop
      vertex 70 180 38
      vertex 70 177 23.5
      vertex 70 183 23.5
    endloop
  endfacet
  facet normal 1 -0 0
    outer loop
      vertex 70 177 23.5
      vertex 70 225 6.1
      vertex 70 183 23.5
    endloop
  endfacet
  facet normal 1 -0 0
    outer loop
      vertex 70 138 23.5
      vertex 70 225 6.1
      vertex 70 177 23.5
    endloop
  endfacet
  facet normal 1 0 0
    outer loop
      vertex 70 132 23.5
      vertex 70 138 23.5
      vertex 70 132 41
    endloop
  endfacet
  facet normal 1 -0 0
    outer loop
      vertex 70 132 23.5
      vertex 70 225 6.1
      vertex 70 138 23.5
    endloop
  endfacet
  facet normal 1 -0 0
    outer loop
      vertex 70 93 23.5
      vertex 70 225 6.1
      vertex 70 132 23.5
    endloop
  endfacet
  facet normal 1 0 0
    outer loop
      vertex 70 87 23.5
      vertex 70 93 23.5
      vertex 70 87 41
    endloop
  endfacet
  facet normal 1 0 0
    outer loop
      vertex 70 0 6.1
      vertex 70 93 23.5
      vertex 70 87 23.5
    endloop
  endfacet
  facet normal 1 0 0
    outer loop
      vertex 70 0 6.1
      vertex 70 87 23.5
      vertex 70 48 23.5
    endloop
  endfacet
  facet normal 1 0 0
    outer loop
      vertex 70 48 41
      vertex 70 45 38
      vertex 70 48 23.5
    endloop
  endfacet
  facet normal 1 0 0
    outer loop
      vertex 70 42 23.5
      vertex 70 45 38
      vertex 70 42 38
    endloop
  endfacet
  facet normal 1 0 0
    outer loop
      vertex 70 45 38
      vertex 70 42 23.5
      vertex 70 48 23.5
    endloop
  endfacet
  facet normal 1 0 0
    outer loop
      vertex 70 0 6.1
      vertex 70 48 23.5
      vertex 70 42 23.5
    endloop
  endfacet
  facet normal 1 0 0
    outer loop
      vertex 70 0 6.1
      vertex 70 42 23.5
      vertex 70 3 23.5
    endloop
  endfacet
  facet normal 1 0 0
    outer loop
      vertex 70 93 23.5
      vertex 70 0 6.1
      vertex 70 225 6.1
    endloop
  endfacet
  facet normal 1 0 0
    outer loop
      vertex 70 0 6.1
      vertex 70 3 23.5
      vertex 70 0 38
    endloop
  endfacet
  facet normal 0 1 -0
    outer loop
      vertex 70 225 6.1
      vertex 56 225 38
      vertex 70 225 38
    endloop
  endfacet
  facet normal 0 1 0
    outer loop
      vertex 56 225 38
      vertex 70 225 6.1
      vertex 14 225 38
    endloop
  endfacet
  facet normal 0 1 0
    outer loop
      vertex 0 225 6.1
      vertex 14 225 38
      vertex 70 225 6.1
    endloop
  endfacet
  facet normal 0 1 0
    outer loop
      vertex 14 225 38
      vertex 0 225 6.1
      vertex 0 225 38
    endloop
  endfacet
  facet normal 0 1 -0
    outer loop
      vertex 56 225 38
      vertex 14 225 41
      vertex 56 225 41
    endloop
  endfacet
  facet normal 0 1 0
    outer loop
      vertex 14 225 41
      vertex 56 225 38
      vertex 14 225 38
    endloop
  endfacet
  facet normal 0 0 -1
    outer loop
      vertex 1.1 1.1 0
      vertex 68.9 223.9 0
      vertex 68.9 1.1 0
    endloop
  endfacet
  facet normal -0 0 -1
    outer loop
      vertex 68.9 223.9 0
      vertex 1.1 1.1 0
      vertex 1.1 223.9 0
    endloop
  endfacet
  facet normal 0 -1 0
    outer loop
      vertex 0 0 6.1
      vertex 14 0 38
      vertex 0 0 38
    endloop
  endfacet
  facet normal 0 -1 -0
    outer loop
      vertex 14 0 38
      vertex 0 0 6.1
      vertex 56 0 38
    endloop
  endfacet
  facet normal 0 -1 0
    outer loop
      vertex 70 0 6.1
      vertex 56 0 38
      vertex 0 0 6.1
    endloop
  endfacet
  facet normal 0 -1 0
    outer loop
      vertex 56 0 38
      vertex 70 0 6.1
      vertex 70 0 38
    endloop
  endfacet
  facet normal 0 -1 0
    outer loop
      vertex 14 0 38
      vertex 56 0 41
      vertex 14 0 41
    endloop
  endfacet
  facet normal 0 -1 -0
    outer loop
      vertex 56 0 41
      vertex 14 0 38
      vertex 56 0 38
    endloop
  endfacet
  facet normal 0 -1 0
    outer loop
      vertex 3 222 20.5
      vertex 67 222 23.5
      vertex 3 222 23.5
    endloop
  endfacet
  facet normal 0 -1 -0
    outer loop
      vertex 67 222 23.5
      vertex 3 222 20.5
      vertex 67 222 20.5
    endloop
  endfacet
  facet normal 0 -1 0
    outer loop
      vertex 0 222 23.5
      vertex 1 222 38
      vertex 0 222 38
    endloop
  endfacet
  facet normal 0 -1 0
    outer loop
      vertex 1 222 38
      vertex 3 222 23.5
      vertex 69 222 38
    endloop
  endfacet
  facet normal 0 -1 -0
    outer loop
      vertex 1 222 38
      vertex 0 222 23.5
      vertex 3 222 23.5
    endloop
  endfacet
  facet normal 0 -1 0
    outer loop
      vertex 67 222 23.5
      vertex 69 222 38
      vertex 3 222 23.5
    endloop
  endfacet
  facet normal 0 -1 0
    outer loop
      vertex 70 222 23.5
      vertex 69 222 38
      vertex 67 222 23.5
    endloop
  endfacet
  facet normal 0 -1 0
    outer loop
      vertex 69 222 38
      vertex 70 222 23.5
      vertex 70 222 38
    endloop
  endfacet
  facet normal 0 -1 0
    outer loop
      vertex 1 222 38
      vertex 69 222 46
      vertex 1 222 46
    endloop
  endfacet
  facet normal 0 -1 -0
    outer loop
      vertex 69 222 46
      vertex 1 222 38
      vertex 69 222 38
    endloop
  endfacet
  facet normal 0 1 -0
    outer loop
      vertex 67 3 20.5
      vertex 3 3 23.5
      vertex 67 3 23.5
    endloop
  endfacet
  facet normal 0 1 0
    outer loop
      vertex 3 3 23.5
      vertex 67 3 20.5
      vertex 3 3 20.5
    endloop
  endfacet
  facet normal 0 1 -0
    outer loop
      vertex 70 3 23.5
      vertex 69 3 38
      vertex 70 3 38
    endloop
  endfacet
  facet normal 0 1 0
    outer loop
      vertex 69 3 38
      vertex 67 3 23.5
      vertex 1 3 38
    endloop
  endfacet
  facet normal 0 1 0
    outer loop
      vertex 69 3 38
      vertex 70 3 23.5
      vertex 67 3 23.5
    endloop
  endfacet
  facet normal 0 1 -0
    outer loop
      vertex 3 3 23.5
      vertex 1 3 38
      vertex 67 3 23.5
    endloop
  endfacet
  facet normal 0 1 0
    outer loop
      vertex 0 3 23.5
      vertex 1 3 38
      vertex 3 3 23.5
    endloop
  endfacet
  facet normal 0 1 0
    outer loop
      vertex 1 3 38
      vertex 0 3 23.5
      vertex 0 3 38
    endloop
  endfacet
  facet normal 0 1 -0
    outer loop
      vertex 69 3 38
      vertex 1 3 46
      vertex 69 3 46
    endloop
  endfacet
  facet normal 0 1 0
    outer loop
      vertex 1 3 46
      vertex 69 3 38
      vertex 1 3 38
    endloop
  endfacet
  facet normal 0 1 -0
    outer loop
      vertex 67 48 20.5
      vertex 3 48 23.5
      vertex 67 48 23.5
    endloop
  endfacet
  facet normal 0 1 0
    outer loop
      vertex 3 48 23.5
      vertex 67 48 20.5
      vertex 3 48 20.5
    endloop
  endfacet
  facet normal 0 1 -0
    outer loop
      vertex 70 48 23.5
      vertex 69 48 41
      vertex 70 48 41
    endloop
  endfacet
  facet normal 0 1 0
    outer loop
      vertex 69 48 41
      vertex 67 48 23.5
      vertex 1 48 41
    endloop
  endfacet
  facet normal 0 1 0
    outer loop
      vertex 69 48 41
      vertex 70 48 23.5
      vertex 67 48 23.5
    endloop
  endfacet
  facet normal 0 1 -0
    outer loop
      vertex 3 48 23.5
      vertex 1 48 41
      vertex 67 48 23.5
    endloop
  endfacet
  facet normal 0 1 0
    outer loop
      vertex 0 48 23.5
      vertex 1 48 41
      vertex 3 48 23.5
    endloop
  endfacet
  facet normal 0 1 0
    outer loop
      vertex 1 48 41
      vertex 0 48 23.5
      vertex 0 48 41
    endloop
  endfacet
  facet normal 0 1 -0
    outer loop
      vertex 69 48 41
      vertex 1 48 46
      vertex 69 48 46
    endloop
  endfacet
  facet normal 0 1 0
    outer loop
      vertex 1 48 46
      vertex 69 48 41
      vertex 1 48 41
    endloop
  endfacet
  facet normal 0 -1 0
    outer loop
      vertex 3 42 20.5
      vertex 67 42 23.5
      vertex 3 42 23.5
    endloop
  endfacet
  facet normal 0 -1 -0
    outer loop
      vertex 67 42 23.5
      vertex 3 42 20.5
      vertex 67 42 20.5
    endloop
  endfacet
  facet normal 0 -1 0
    outer loop
      vertex 0 42 23.5
      vertex 1 42 38
      vertex 0 42 38
    endloop
  endfacet
  facet normal 0 -1 0
    outer loop
      vertex 1 42 38
      vertex 3 42 23.5
      vertex 69 42 38
    endloop
  endfacet
  facet normal 0 -1 -0
    outer loop
      vertex 1 42 38
      vertex 0 42 23.5
      vertex 3 42 23.5
    endloop
  endfacet
  facet normal 0 -1 0
    outer loop
      vertex 67 42 23.5
      vertex 69 42 38
      vertex 3 42 23.5
    endloop
  endfacet
  facet normal 0 -1 0
    outer loop
      vertex 70 42 23.5
      vertex 69 42 38
      vertex 67 42 23.5
    endloop
  endfacet
  facet normal 0 -1 0
    outer loop
      vertex 69 42 38
      vertex 70 42 23.5
      vertex 70 42 38
    endloop
  endfacet
  facet normal 0 -1 0
    outer loop
      vertex 1 42 38
      vertex 69 42 46
      vertex 1 42 46
    endloop
  endfacet
  facet normal 0 -1 -0
    outer loop
      vertex 69 42 46
      vertex 1 42 38
      vertex 69 42 38
    endloop
  endfacet
  facet normal 0 1 -0
    outer loop
      vertex 67 93 20.5
      vertex 3 93 23.5
      vertex 67 93 23.5
    endloop
  endfacet
  facet normal 0 1 0
    outer loop
      vertex 3 93 23.5
      vertex 67 93 20.5
      vertex 3 93 20.5
    endloop
  endfacet
  facet normal 0 1 -0
    outer loop
      vertex 70 93 23.5
      vertex 69 93 41
      vertex 70 93 41
    endloop
  endfacet
  facet normal 0 1 0
    outer loop
      vertex 69 93 41
      vertex 67 93 23.5
      vertex 1 93 41
    endloop
  endfacet
  facet normal 0 1 0
    outer loop
      vertex 69 93 41
      vertex 70 93 23.5
      vertex 67 93 23.5
    endloop
  endfacet
  facet normal 0 1 -0
    outer loop
      vertex 3 93 23.5
      vertex 1 93 41
      vertex 67 93 23.5
    endloop
  endfacet
  facet normal 0 1 0
    outer loop
      vertex 0 93 23.5
      vertex 1 93 41
      vertex 3 93 23.5
    endloop
  endfacet
  facet normal 0 1 0
    outer loop
      vertex 1 93 41
      vertex 0 93 23.5
      vertex 0 93 41
    endloop
  endfacet
  facet normal 0 1 -0
    outer loop
      vertex 69 93 41
      vertex 1 93 46
      vertex 69 93 46
    endloop
  endfacet
  facet normal 0 1 0
    outer loop
      vertex 1 93 46
      vertex 69 93 41
      vertex 1 93 41
    endloop
  endfacet
  facet normal 0 -1 0
    outer loop
      vertex 3 87 20.5
      vertex 67 87 23.5
      vertex 3 87 23.5
    endloop
  endfacet
  facet normal 0 -1 -0
    outer loop
      vertex 67 87 23.5
      vertex 3 87 20.5
      vertex 67 87 20.5
    endloop
  endfacet
  facet normal 0 -1 0
    outer loop
      vertex 0 87 23.5
      vertex 1 87 41
      vertex 0 87 41
    endloop
  endfacet
  facet normal 0 -1 0
    outer loop
      vertex 1 87 41
      vertex 3 87 23.5
      vertex 69 87 41
    endloop
  endfacet
  facet normal 0 -1 -0
    outer loop
      vertex 1 87 41
      vertex 0 87 23.5
      vertex 3 87 23.5
    endloop
  endfacet
  facet normal 0 -1 0
    outer loop
      vertex 67 87 23.5
      vertex 69 87 41
      vertex 3 87 23.5
    endloop
  endfacet
  facet normal 0 -1 0
    outer loop
      vertex 70 87 23.5
      vertex 69 87 41
      vertex 67 87 23.5
    endloop
  endfacet
  facet normal 0 -1 0
    outer loop
      vertex 69 87 41
      vertex 70 87 23.5
      vertex 70 87 41
    endloop
  endfacet
  facet normal 0 -1 0
    outer loop
      vertex 1 87 41
      vertex 69 87 46
      vertex 1 87 46
    endloop
  endfacet
  facet normal 0 -1 -0
    outer loop
      vertex 69 87 46
      vertex 1 87 41
      vertex 69 87 41
    endloop
  endfacet
  facet normal 0 -1 0
    outer loop
      vertex 3 132 20.5
      vertex 67 132 23.5
      vertex 3 132 23.5
    endloop
  endfacet
  facet normal 0 -1 -0
    outer loop
      vertex 67 132 23.5
      vertex 3 132 20.5
      vertex 67 132 20.5
    endloop
  endfacet
  facet normal 0 -1 0
    outer loop
      vertex 0 132 23.5
      vertex 1 132 41
      vertex 0 132 41
    endloop
  endfacet
  facet normal 0 -1 0
    outer loop
      vertex 1 132 41
      vertex 3 132 23.5
      vertex 69 132 41
    endloop
  endfacet
  facet normal 0 -1 -0
    outer loop
      vertex 1 132 41
      vertex 0 132 23.5
      vertex 3 132 23.5
    endloop
  endfacet
  facet normal 0 -1 0
    outer loop
      vertex 67 132 23.5
      vertex 69 132 41
      vertex 3 132 23.5
    endloop
  endfacet
  facet normal 0 -1 0
    outer loop
      vertex 70 132 23.5
      vertex 69 132 41
      vertex 67 132 23.5
    endloop
  endfacet
  facet normal 0 -1 0
    outer loop
      vertex 69 132 41
      vertex 70 132 23.5
      vertex 70 132 41
    endloop
  endfacet
  facet normal 0 -1 0
    outer loop
      vertex 1 132 41
      vertex 69 132 46
      vertex 1 132 46
    endloop
  endfacet
  facet normal 0 -1 -0
    outer loop
      vertex 69 132 46
      vertex 1 132 41
      vertex 69 132 41
    endloop
  endfacet
  facet normal 0 1 -0
    outer loop
      vertex 67 138 20.5
      vertex 3 138 23.5
      vertex 67 138 23.5
    endloop
  endfacet
  facet normal 0 1 0
    outer loop
      vertex 3 138 23.5
      vertex 67 138 20.5
      vertex 3 138 20.5
    endloop
  endfacet
  facet normal 0 1 -0
    outer loop
      vertex 70 138 23.5
      vertex 69 138 41
      vertex 70 138 41
    endloop
  endfacet
  facet normal 0 1 0
    outer loop
      vertex 69 138 41
      vertex 67 138 23.5
      vertex 1 138 41
    endloop
  endfacet
  facet normal 0 1 0
    outer loop
      vertex 69 138 41
      vertex 70 138 23.5
      vertex 67 138 23.5
    endloop
  endfacet
  facet normal 0 1 -0
    outer loop
      vertex 3 138 23.5
      vertex 1 138 41
      vertex 67 138 23.5
    endloop
  endfacet
  facet normal 0 1 0
    outer loop
      vertex 0 138 23.5
      vertex 1 138 41
      vertex 3 138 23.5
    endloop
  endfacet
  facet normal 0 1 0
    outer loop
      vertex 1 138 41
      vertex 0 138 23.5
      vertex 0 138 41
    endloop
  endfacet
  facet normal 0 1 -0
    outer loop
      vertex 69 138 41
      vertex 1 138 46
      vertex 69 138 46
    endloop
  endfacet
  facet normal 0 1 0
    outer loop
      vertex 1 138 46
      vertex 69 138 41
      vertex 1 138 41
    endloop
  endfacet
  facet normal 0 1 -0
    outer loop
      vertex 67 183 20.5
      vertex 3 183 23.5
      vertex 67 183 23.5
    endloop
  endfacet
  facet normal 0 1 0
    outer loop
      vertex 3 183 23.5
      vertex 67 183 20.5
      vertex 3 183 20.5
    endloop
  endfacet
  facet normal 0 1 -0
    outer loop
      vertex 70 183 23.5
      vertex 69 183 38
      vertex 70 183 38
    endloop
  endfacet
  facet normal 0 1 0
    outer loop
      vertex 69 183 38
      vertex 67 183 23.5
      vertex 1 183 38
    endloop
  endfacet
  facet normal 0 1 0
    outer loop
      vertex 69 183 38
      vertex 70 183 23.5
      vertex 67 183 23.5
    endloop
  endfacet
  facet normal 0 1 -0
    outer loop
      vertex 3 183 23.5
      vertex 1 183 38
      vertex 67 183 23.5
    endloop
  endfacet
  facet normal 0 1 0
    outer loop
      vertex 0 183 23.5
      vertex 1 183 38
      vertex 3 183 23.5
    endloop
  endfacet
  facet normal 0 1 0
    outer loop
      vertex 1 183 38
      vertex 0 183 23.5
      vertex 0 183 38
    endloop
  endfacet
  facet normal 0 1 -0
    outer loop
      vertex 69 183 38
      vertex 1 183 46
      vertex 69 183 46
    endloop
  endfacet
  facet normal 0 1 0
    outer loop
      vertex 1 183 46
      vertex 69 183 38
      vertex 1 183 38
    endloop
  endfacet
  facet normal 0 -1 0
    outer loop
      vertex 3 177 20.5
      vertex 67 177 23.5
      vertex 3 177 23.5
    endloop
  endfacet
  facet normal 0 -1 -0
    outer loop
      vertex 67 177 23.5
      vertex 3 177 20.5
      vertex 67 177 20.5
    endloop
  endfacet
  facet normal 0 -1 0
    outer loop
      vertex 0 177 23.5
      vertex 1 177 41
      vertex 0 177 41
    endloop
  endfacet
  facet normal 0 -1 0
    outer loop
      vertex 1 177 41
      vertex 3 177 23.5
      vertex 69 177 41
    endloop
  endfacet
  facet normal 0 -1 -0
    outer loop
      vertex 1 177 41
      vertex 0 177 23.5
      vertex 3 177 23.5
    endloop
  endfacet
  facet normal 0 -1 0
    outer loop
      vertex 67 177 23.5
      vertex 69 177 41
      vertex 3 177 23.5
    endloop
  endfacet
  facet normal 0 -1 0
    outer loop
      vertex 70 177 23.5
      vertex 69 177 41
      vertex 67 177 23.5
    endloop
  endfacet
  facet normal 0 -1 0
    outer loop
      vertex 69 177 41
      vertex 70 177 23.5
      vertex 70 177 41
    endloop
  endfacet
  facet normal 0 -1 0
    outer loop
      vertex 1 177 41
      vertex 69 177 46
      vertex 1 177 46
    endloop
  endfacet
  facet normal 0 -1 -0
    outer loop
      vertex 69 177 46
      vertex 1 177 41
      vertex 69 177 41
    endloop
  endfacet
  facet normal -0 0 1
    outer loop
      vertex 0 42 23.5
      vertex 3 3 23.5
      vertex 3 42 23.5
    endloop
  endfacet
  facet normal 0 0 1
    outer loop
      vertex 3 3 23.5
      vertex 0 42 23.5
      vertex 0 3 23.5
    endloop
  endfacet
  facet normal -0 0 1
    outer loop
      vertex 0 222 23.5
      vertex 3 183 23.5
      vertex 3 222 23.5
    endloop
  endfacet
  facet normal 0 0 1
    outer loop
      vertex 3 183 23.5
      vertex 0 222 23.5
      vertex 0 183 23.5
    endloop
  endfacet
  facet normal -0 0 1
    outer loop
      vertex 0 177 23.5
      vertex 3 138 23.5
      vertex 3 177 23.5
    endloop
  endfacet
  facet normal 0 0 1
    outer loop
      vertex 3 138 23.5
      vertex 0 177 23.5
      vertex 0 138 23.5
    endloop
  endfacet
  facet normal -0 0 1
    outer loop
      vertex 0 132 23.5
      vertex 3 93 23.5
      vertex 3 132 23.5
    endloop
  endfacet
  facet normal 0 0 1
    outer loop
      vertex 3 93 23.5
      vertex 0 132 23.5
      vertex 0 93 23.5
    endloop
  endfacet
  facet normal -0 0 1
    outer loop
      vertex 0 87 23.5
      vertex 3 48 23.5
      vertex 3 87 23.5
    endloop
  endfacet
  facet normal 0 0 1
    outer loop
      vertex 3 48 23.5
      vertex 0 87 23.5
      vertex 0 48 23.5
    endloop
  endfacet
  facet normal 1 0 0
    outer loop
      vertex 3 222 23.5
      vertex 3 219.387 20.5
      vertex 3 222 20.5
    endloop
  endfacet
  facet normal 1 0 0
    outer loop
      vertex 3 219.387 20.5
      vertex 3 202.5 1
      vertex 3 219.387 10.75
    endloop
  endfacet
  facet normal 1 0 0
    outer loop
      vertex 3 219.387 20.5
      vertex 3 185.613 20.5
      vertex 3 202.5 1
    endloop
  endfacet
  facet normal 1 0 0
    outer loop
      vertex 3 222 23.5
      vertex 3 185.613 20.5
      vertex 3 219.387 20.5
    endloop
  endfacet
  facet normal 1 -0 0
    outer loop
      vertex 3 183 23.5
      vertex 3 185.613 20.5
      vertex 3 222 23.5
    endloop
  endfacet
  facet normal 1 0 0
    outer loop
      vertex 3 185.613 20.5
      vertex 3 183 23.5
      vertex 3 183 20.5
    endloop
  endfacet
  facet normal 1 0 0
    outer loop
      vertex 3 202.5 1
      vertex 3 185.613 20.5
      vertex 3 185.613 10.75
    endloop
  endfacet
  facet normal 1 0 0
    outer loop
      vertex 3 177 23.5
      vertex 3 174.387 20.5
      vertex 3 177 20.5
    endloop
  endfacet
  facet normal 1 0 0
    outer loop
      vertex 3 174.387 20.5
      vertex 3 157.5 1
      vertex 3 174.387 10.75
    endloop
  endfacet
  facet normal 1 0 0
    outer loop
      vertex 3 174.387 20.5
      vertex 3 140.613 20.5
      vertex 3 157.5 1
    endloop
  endfacet
  facet normal 1 0 0
    outer loop
      vertex 3 177 23.5
      vertex 3 140.613 20.5
      vertex 3 174.387 20.5
    endloop
  endfacet
  facet normal 1 -0 0
    outer loop
      vertex 3 138 23.5
      vertex 3 140.613 20.5
      vertex 3 177 23.5
    endloop
  endfacet
  facet normal 1 0 0
    outer loop
      vertex 3 140.613 20.5
      vertex 3 138 23.5
      vertex 3 138 20.5
    endloop
  endfacet
  facet normal 1 0 0
    outer loop
      vertex 3 157.5 1
      vertex 3 140.613 20.5
      vertex 3 140.613 10.75
    endloop
  endfacet
  facet normal 1 0 0
    outer loop
      vertex 3 132 23.5
      vertex 3 129.387 20.5
      vertex 3 132 20.5
    endloop
  endfacet
  facet normal 1 0 0
    outer loop
      vertex 3 129.387 20.5
      vertex 3 112.5 1
      vertex 3 129.387 10.75
    endloop
  endfacet
  facet normal 1 0 0
    outer loop
      vertex 3 129.387 20.5
      vertex 3 95.6125 20.5
      vertex 3 112.5 1
    endloop
  endfacet
  facet normal 1 0 0
    outer loop
      vertex 3 132 23.5
      vertex 3 95.6125 20.5
      vertex 3 129.387 20.5
    endloop
  endfacet
  facet normal 1 -0 0
    outer loop
      vertex 3 93 23.5
      vertex 3 95.6125 20.5
      vertex 3 132 23.5
    endloop
  endfacet
  facet normal 1 0 0
    outer loop
      vertex 3 95.6125 20.5
      vertex 3 93 23.5
      vertex 3 93 20.5
    endloop
  endfacet
  facet normal 1 0 0
    outer loop
      vertex 3 112.5 1
      vertex 3 95.6125 20.5
      vertex 3 95.6125 10.75
    endloop
  endfacet
  facet normal 1 0 0
    outer loop
      vertex 3 87 23.5
      vertex 3 84.3875 20.5
      vertex 3 87 20.5
    endloop
  endfacet
  facet normal 1 0 0
    outer loop
      vertex 3 84.3875 20.5
      vertex 3 67.5 1
      vertex 3 84.3875 10.75
    endloop
  endfacet
  facet normal 1 0 0
    outer loop
      vertex 3 84.3875 20.5
      vertex 3 50.6125 20.5
      vertex 3 67.5 1
    endloop
  endfacet
  facet normal 1 0 0
    outer loop
      vertex 3 87 23.5
      vertex 3 50.6125 20.5
      vertex 3 84.3875 20.5
    endloop
  endfacet
  facet normal 1 -0 0
    outer loop
      vertex 3 48 23.5
      vertex 3 50.6125 20.5
      vertex 3 87 23.5
    endloop
  endfacet
  facet normal 1 0 0
    outer loop
      vertex 3 50.6125 20.5
      vertex 3 48 23.5
      vertex 3 48 20.5
    endloop
  endfacet
  facet normal 1 0 0
    outer loop
      vertex 3 67.5 1
      vertex 3 50.6125 20.5
      vertex 3 50.6125 10.75
    endloop
  endfacet
  facet normal 1 0 0
    outer loop
      vertex 3 42 23.5
      vertex 3 39.3875 20.5
      vertex 3 42 20.5
    endloop
  endfacet
  facet normal 1 0 0
    outer loop
      vertex 3 39.3875 20.5
      vertex 3 22.5 1
      vertex 3 39.3875 10.75
    endloop
  endfacet
  facet normal 1 0 0
    outer loop
      vertex 3 39.3875 20.5
      vertex 3 5.6125 20.5
      vertex 3 22.5 1
    endloop
  endfacet
  facet normal 1 0 0
    outer loop
      vertex 3 42 23.5
      vertex 3 5.6125 20.5
      vertex 3 39.3875 20.5
    endloop
  endfacet
  facet normal 1 -0 0
    outer loop
      vertex 3 3 23.5
      vertex 3 5.6125 20.5
      vertex 3 42 23.5
    endloop
  endfacet
  facet normal 1 0 0
    outer loop
      vertex 3 5.6125 20.5
      vertex 3 3 23.5
      vertex 3 3 20.5
    endloop
  endfacet
  facet normal 1 0 0
    outer loop
      vertex 3 22.5 1
      vertex 3 5.6125 20.5
      vertex 3 5.6125 10.75
    endloop
  endfacet
  facet normal -1 -0 0
    outer loop
      vertex 67 219.387 10.75
      vertex 67 202.5 1
      vertex 67 219.387 20.5
    endloop
  endfacet
  facet normal -1 0 0
    outer loop
      vertex 67 219.387 20.5
      vertex 67 222 23.5
      vertex 67 222 20.5
    endloop
  endfacet
  facet normal -1 0 0
    outer loop
      vertex 67 185.613 20.5
      vertex 67 202.5 1
      vertex 67 185.613 10.75
    endloop
  endfacet
  facet normal -1 0 0
    outer loop
      vertex 67 202.5 1
      vertex 67 185.613 20.5
      vertex 67 219.387 20.5
    endloop
  endfacet
  facet normal -1 0 0
    outer loop
      vertex 67 219.387 20.5
      vertex 67 185.613 20.5
      vertex 67 222 23.5
    endloop
  endfacet
  facet normal -1 0 0
    outer loop
      vertex 67 183 23.5
      vertex 67 185.613 20.5
      vertex 67 183 20.5
    endloop
  endfacet
  facet normal -1 0 0
    outer loop
      vertex 67 185.613 20.5
      vertex 67 183 23.5
      vertex 67 222 23.5
    endloop
  endfacet
  facet normal -1 -0 0
    outer loop
      vertex 67 174.387 10.75
      vertex 67 157.5 1
      vertex 67 174.387 20.5
    endloop
  endfacet
  facet normal -1 0 0
    outer loop
      vertex 67 174.387 20.5
      vertex 67 177 23.5
      vertex 67 177 20.5
    endloop
  endfacet
  facet normal -1 0 0
    outer loop
      vertex 67 140.613 20.5
      vertex 67 157.5 1
      vertex 67 140.613 10.75
    endloop
  endfacet
  facet normal -1 0 0
    outer loop
      vertex 67 157.5 1
      vertex 67 140.613 20.5
      vertex 67 174.387 20.5
    endloop
  endfacet
  facet normal -1 0 0
    outer loop
      vertex 67 174.387 20.5
      vertex 67 140.613 20.5
      vertex 67 177 23.5
    endloop
  endfacet
  facet normal -1 0 0
    outer loop
      vertex 67 138 23.5
      vertex 67 140.613 20.5
      vertex 67 138 20.5
    endloop
  endfacet
  facet normal -1 0 0
    outer loop
      vertex 67 140.613 20.5
      vertex 67 138 23.5
      vertex 67 177 23.5
    endloop
  endfacet
  facet normal -1 -0 0
    outer loop
      vertex 67 129.387 10.75
      vertex 67 112.5 1
      vertex 67 129.387 20.5
    endloop
  endfacet
  facet normal -1 0 0
    outer loop
      vertex 67 129.387 20.5
      vertex 67 132 23.5
      vertex 67 132 20.5
    endloop
  endfacet
  facet normal -1 0 0
    outer loop
      vertex 67 95.6125 20.5
      vertex 67 112.5 1
      vertex 67 95.6125 10.75
    endloop
  endfacet
  facet normal -1 0 0
    outer loop
      vertex 67 112.5 1
      vertex 67 95.6125 20.5
      vertex 67 129.387 20.5
    endloop
  endfacet
  facet normal -1 0 0
    outer loop
      vertex 67 129.387 20.5
      vertex 67 95.6125 20.5
      vertex 67 132 23.5
    endloop
  endfacet
  facet normal -1 0 0
    outer loop
      vertex 67 93 23.5
      vertex 67 95.6125 20.5
      vertex 67 93 20.5
    endloop
  endfacet
  facet normal -1 0 0
    outer loop
      vertex 67 95.6125 20.5
      vertex 67 93 23.5
      vertex 67 132 23.5
    endloop
  endfacet
  facet normal -1 -0 0
    outer loop
      vertex 67 84.3875 10.75
      vertex 67 67.5 1
      vertex 67 84.3875 20.5
    endloop
  endfacet
  facet normal -1 0 0
    outer loop
      vertex 67 84.3875 20.5
      vertex 67 87 23.5
      vertex 67 87 20.5
    endloop
  endfacet
  facet normal -1 0 0
    outer loop
      vertex 67 50.6125 20.5
      vertex 67 67.5 1
      vertex 67 50.6125 10.75
    endloop
  endfacet
  facet normal -1 0 0
    outer loop
      vertex 67 67.5 1
      vertex 67 50.6125 20.5
      vertex 67 84.3875 20.5
    endloop
  endfacet
  facet normal -1 0 0
    outer loop
      vertex 67 84.3875 20.5
      vertex 67 50.6125 20.5
      vertex 67 87 23.5
    endloop
  endfacet
  facet normal -1 0 0
    outer loop
      vertex 67 48 23.5
      vertex 67 50.6125 20.5
      vertex 67 48 20.5
    endloop
  endfacet
  facet normal -1 0 0
    outer loop
      vertex 67 50.6125 20.5
      vertex 67 48 23.5
      vertex 67 87 23.5
    endloop
  endfacet
  facet normal -1 -0 0
    outer loop
      vertex 67 39.3875 10.75
      vertex 67 22.5 1
      vertex 67 39.3875 20.5
    endloop
  endfacet
  facet normal -1 0 0
    outer loop
      vertex 67 39.3875 20.5
      vertex 67 42 23.5
      vertex 67 42 20.5
    endloop
  endfacet
  facet normal -1 0 0
    outer loop
      vertex 67 5.6125 20.5
      vertex 67 22.5 1
      vertex 67 5.6125 10.75
    endloop
  endfacet
  facet normal -1 0 0
    outer loop
      vertex 67 22.5 1
      vertex 67 5.6125 20.5
      vertex 67 39.3875 20.5
    endloop
  endfacet
  facet normal -1 0 0
    outer loop
      vertex 67 39.3875 20.5
      vertex 67 5.6125 20.5
      vertex 67 42 23.5
    endloop
  endfacet
  facet normal -1 0 0
    outer loop
      vertex 67 3 23.5
      vertex 67 5.6125 20.5
      vertex 67 3 20.5
    endloop
  endfacet
  facet normal -1 0 0
    outer loop
      vertex 67 5.6125 20.5
      vertex 67 3 23.5
      vertex 67 42 23.5
    endloop
  endfacet
  facet normal -0 0 1
    outer loop
      vertex 67 42 23.5
      vertex 70 3 23.5
      vertex 70 42 23.5
    endloop
  endfacet
  facet normal 0 0 1
    outer loop
      vertex 70 3 23.5
      vertex 67 42 23.5
      vertex 67 3 23.5
    endloop
  endfacet
  facet normal -0 0 1
    outer loop
      vertex 67 222 23.5
      vertex 70 183 23.5
      vertex 70 222 23.5
    endloop
  endfacet
  facet normal 0 0 1
    outer loop
      vertex 70 183 23.5
      vertex 67 222 23.5
      vertex 67 183 23.5
    endloop
  endfacet
  facet normal -0 0 1
    outer loop
      vertex 67 177 23.5
      vertex 70 138 23.5
      vertex 70 177 23.5
    endloop
  endfacet
  facet normal 0 0 1
    outer loop
      vertex 70 138 23.5
      vertex 67 177 23.5
      vertex 67 138 23.5
    endloop
  endfacet
  facet normal -0 0 1
    outer loop
      vertex 67 132 23.5
      vertex 70 93 23.5
      vertex 70 132 23.5
    endloop
  endfacet
  facet normal 0 0 1
    outer loop
      vertex 70 93 23.5
      vertex 67 132 23.5
      vertex 67 93 23.5
    endloop
  endfacet
  facet normal -0 0 1
    outer loop
      vertex 67 87 23.5
      vertex 70 48 23.5
      vertex 70 87 23.5
    endloop
  endfacet
  facet normal 0 0 1
    outer loop
      vertex 70 48 23.5
      vertex 67 87 23.5
      vertex 67 48 23.5
    endloop
  endfacet
  facet normal 0 1 -0
    outer loop
      vertex 67 5.6125 10.75
      vertex 3 5.6125 20.5
      vertex 67 5.6125 20.5
    endloop
  endfacet
  facet normal 0 1 0
    outer loop
      vertex 3 5.6125 20.5
      vertex 67 5.6125 10.75
      vertex 3 5.6125 10.75
    endloop
  endfacet
  facet normal 0 -1 0
    outer loop
      vertex 3 39.3875 20.5
      vertex 67 39.3875 10.75
      vertex 67 39.3875 20.5
    endloop
  endfacet
  facet normal -0 -1 0
    outer loop
      vertex 67 39.3875 10.75
      vertex 3 39.3875 20.5
      vertex 3 39.3875 10.75
    endloop
  endfacet
  facet normal 0 -0.5 0.866025
    outer loop
      vertex 67 22.5 1
      vertex 3 39.3875 10.75
      vertex 3 22.5 1
    endloop
  endfacet
  facet normal -0 0.5 0.866025
    outer loop
      vertex 3 22.5 1
      vertex 67 5.6125 10.75
      vertex 67 22.5 1
    endloop
  endfacet
  facet normal 0 0.5 0.866025
    outer loop
      vertex 67 5.6125 10.75
      vertex 3 22.5 1
      vertex 3 5.6125 10.75
    endloop
  endfacet
  facet normal -1.29048e-08 -0.5 0.866025
    outer loop
      vertex 67 22.5 1
      vertex 67 39.3875 10.75
      vertex 3 39.3875 10.75
    endloop
  endfacet
  facet normal -0 0 1
    outer loop
      vertex 3 42 20.5
      vertex 67 39.3875 20.5
      vertex 67 42 20.5
    endloop
  endfacet
  facet normal 0 0 1
    outer loop
      vertex 67 39.3875 20.5
      vertex 3 42 20.5
      vertex 3 39.3875 20.5
    endloop
  endfacet
  facet normal -0 0 1
    outer loop
      vertex 3 5.6125 20.5
      vertex 67 3 20.5
      vertex 67 5.6125 20.5
    endloop
  endfacet
  facet normal 0 0 1
    outer loop
      vertex 67 3 20.5
      vertex 3 5.6125 20.5
      vertex 3 3 20.5
    endloop
  endfacet
  facet normal 0 1 -0
    outer loop
      vertex 67 50.6125 10.75
      vertex 3 50.6125 20.5
      vertex 67 50.6125 20.5
    endloop
  endfacet
  facet normal 0 1 0
    outer loop
      vertex 3 50.6125 20.5
      vertex 67 50.6125 10.75
      vertex 3 50.6125 10.75
    endloop
  endfacet
  facet normal 0 -1 0
    outer loop
      vertex 3 84.3875 20.5
      vertex 67 84.3875 10.75
      vertex 67 84.3875 20.5
    endloop
  endfacet
  facet normal -0 -1 0
    outer loop
      vertex 67 84.3875 10.75
      vertex 3 84.3875 20.5
      vertex 3 84.3875 10.75
    endloop
  endfacet
  facet normal 0 -0.5 0.866025
    outer loop
      vertex 67 67.5 1
      vertex 3 84.3875 10.75
      vertex 3 67.5 1
    endloop
  endfacet
  facet normal -0 0.5 0.866025
    outer loop
      vertex 3 67.5 1
      vertex 67 50.6125 10.75
      vertex 67 67.5 1
    endloop
  endfacet
  facet normal 0 0.5 0.866025
    outer loop
      vertex 67 50.6125 10.75
      vertex 3 67.5 1
      vertex 3 50.6125 10.75
    endloop
  endfacet
  facet normal -1.29048e-08 -0.5 0.866025
    outer loop
      vertex 67 67.5 1
      vertex 67 84.3875 10.75
      vertex 3 84.3875 10.75
    endloop
  endfacet
  facet normal -0 0 1
    outer loop
      vertex 3 87 20.5
      vertex 67 84.3875 20.5
      vertex 67 87 20.5
    endloop
  endfacet
  facet normal 0 0 1
    outer loop
      vertex 67 84.3875 20.5
      vertex 3 87 20.5
      vertex 3 84.3875 20.5
    endloop
  endfacet
  facet normal -0 0 1
    outer loop
      vertex 3 50.6125 20.5
      vertex 67 48 20.5
      vertex 67 50.6125 20.5
    endloop
  endfacet
  facet normal 0 0 1
    outer loop
      vertex 67 48 20.5
      vertex 3 50.6125 20.5
      vertex 3 48 20.5
    endloop
  endfacet
  facet normal 0 1 -0
    outer loop
      vertex 67 95.6125 10.75
      vertex 3 95.6125 20.5
      vertex 67 95.6125 20.5
    endloop
  endfacet
  facet normal 0 1 0
    outer loop
      vertex 3 95.6125 20.5
      vertex 67 95.6125 10.75
      vertex 3 95.6125 10.75
    endloop
  endfacet
  facet normal 0 -1 0
    outer loop
      vertex 3 129.387 20.5
      vertex 67 129.387 10.75
      vertex 67 129.387 20.5
    endloop
  endfacet
  facet normal -0 -1 0
    outer loop
      vertex 67 129.387 10.75
      vertex 3 129.387 20.5
      vertex 3 129.387 10.75
    endloop
  endfacet
  facet normal 0 -0.5 0.866025
    outer loop
      vertex 67 112.5 1
      vertex 3 129.387 10.75
      vertex 3 112.5 1
    endloop
  endfacet
  facet normal -0 0.5 0.866025
    outer loop
      vertex 3 112.5 1
      vertex 67 95.6125 10.75
      vertex 67 112.5 1
    endloop
  endfacet
  facet normal 0 0.5 0.866025
    outer loop
      vertex 67 95.6125 10.75
      vertex 3 112.5 1
      vertex 3 95.6125 10.75
    endloop
  endfacet
  facet normal -1.29048e-08 -0.5 0.866025
    outer loop
      vertex 67 112.5 1
      vertex 67 129.387 10.75
      vertex 3 129.387 10.75
    endloop
  endfacet
  facet normal -0 0 1
    outer loop
      vertex 3 132 20.5
      vertex 67 129.387 20.5
      vertex 67 132 20.5
    endloop
  endfacet
  facet normal 0 0 1
    outer loop
      vertex 67 129.387 20.5
      vertex 3 132 20.5
      vertex 3 129.387 20.5
    endloop
  endfacet
  facet normal -0 0 1
    outer loop
      vertex 3 95.6125 20.5
      vertex 67 93 20.5
      vertex 67 95.6125 20.5
    endloop
  endfacet
  facet normal 0 0 1
    outer loop
      vertex 67 93 20.5
      vertex 3 95.6125 20.5
      vertex 3 93 20.5
    endloop
  endfacet
  facet normal 0 1 -0
    outer loop
      vertex 67 140.613 10.75
      vertex 3 140.613 20.5
      vertex 67 140.613 20.5
    endloop
  endfacet
  facet normal 0 1 0
    outer loop
      vertex 3 140.613 20.5
      vertex 67 140.613 10.75
      vertex 3 140.613 10.75
    endloop
  endfacet
  facet normal 0 -1 0
    outer loop
      vertex 3 174.387 20.5
      vertex 67 174.387 10.75
      vertex 67 174.387 20.5
    endloop
  endfacet
  facet normal -0 -1 0
    outer loop
      vertex 67 174.387 10.75
      vertex 3 174.387 20.5
      vertex 3 174.387 10.75
    endloop
  endfacet
  facet normal 0 -0.5 0.866025
    outer loop
      vertex 67 157.5 1
      vertex 3 174.387 10.75
      vertex 3 157.5 1
    endloop
  endfacet
  facet normal -0 0.5 0.866025
    outer loop
      vertex 3 157.5 1
      vertex 67 140.613 10.75
      vertex 67 157.5 1
    endloop
  endfacet
  facet normal 0 0.5 0.866025
    outer loop
      vertex 67 140.613 10.75
      vertex 3 157.5 1
      vertex 3 140.613 10.75
    endloop
  endfacet
  facet normal -1.29048e-08 -0.5 0.866025
    outer loop
      vertex 67 157.5 1
      vertex 67 174.387 10.75
      vertex 3 174.387 10.75
    endloop
  endfacet
  facet normal -0 0 1
    outer loop
      vertex 3 177 20.5
      vertex 67 174.387 20.5
      vertex 67 177 20.5
    endloop
  endfacet
  facet normal 0 0 1
    outer loop
      vertex 67 174.387 20.5
      vertex 3 177 20.5
      vertex 3 174.387 20.5
    endloop
  endfacet
  facet normal -0 0 1
    outer loop
      vertex 3 140.613 20.5
      vertex 67 138 20.5
      vertex 67 140.613 20.5
    endloop
  endfacet
  facet normal 0 0 1
    outer loop
      vertex 67 138 20.5
      vertex 3 140.613 20.5
      vertex 3 138 20.5
    endloop
  endfacet
  facet normal 0 1 -0
    outer loop
      vertex 67 185.613 10.75
      vertex 3 185.613 20.5
      vertex 67 185.613 20.5
    endloop
  endfacet
  facet normal 0 1 0
    outer loop
      vertex 3 185.613 20.5
      vertex 67 185.613 10.75
      vertex 3 185.613 10.75
    endloop
  endfacet
  facet normal 0 -1 0
    outer loop
      vertex 3 219.387 20.5
      vertex 67 219.387 10.75
      vertex 67 219.387 20.5
    endloop
  endfacet
  facet normal -0 -1 0
    outer loop
      vertex 67 219.387 10.75
      vertex 3 219.387 20.5
      vertex 3 219.387 10.75
    endloop
  endfacet
  facet normal 0 -0.5 0.866025
    outer loop
      vertex 67 202.5 1
      vertex 3 219.387 10.75
      vertex 3 202.5 1
    endloop
  endfacet
  facet normal -0 0.5 0.866025
    outer loop
      vertex 3 202.5 1
      vertex 67 185.613 10.75
      vertex 67 202.5 1
    endloop
  endfacet
  facet normal 0 0.5 0.866025
    outer loop
      vertex 67 185.613 10.75
      vertex 3 202.5 1
      vertex 3 185.613 10.75
    endloop
  endfacet
  facet normal -1.29048e-08 -0.5 0.866025
    outer loop
      vertex 67 202.5 1
      vertex 67 219.387 10.75
      vertex 3 219.387 10.75
    endloop
  endfacet
  facet normal -0 0 1
    outer loop
      vertex 3 222 20.5
      vertex 67 219.387 20.5
      vertex 67 222 20.5
    endloop
  endfacet
  facet normal 0 0 1
    outer loop
      vertex 67 219.387 20.5
      vertex 3 222 20.5
      vertex 3 219.387 20.5
    endloop
  endfacet
  facet normal -0 0 1
    outer loop
      vertex 3 185.613 20.5
      vertex 67 183 20.5
      vertex 67 185.613 20.5
    endloop
  endfacet
  facet normal 0 0 1
    outer loop
      vertex 67 183 20.5
      vertex 3 185.613 20.5
      vertex 3 183 20.5
    endloop
  endfacet
  facet normal 0 -1 0
    outer loop
      vertex 1 1 46
      vertex 14 1 41
      vertex 69 1 46
    endloop
  endfacet
  facet normal 0 -1 0
    outer loop
      vertex 1 1 38
      vertex 14 1 41
      vertex 1 1 46
    endloop
  endfacet
  facet normal 0 -1 -0
    outer loop
      vertex 14 1 41
      vertex 1 1 38
      vertex 14 1 38
    endloop
  endfacet
  facet normal 0 -1 0
    outer loop
      vertex 56 1 41
      vertex 69 1 46
      vertex 14 1 41
    endloop
  endfacet
  facet normal 0 -1 0
    outer loop
      vertex 69 1 38
      vertex 56 1 41
      vertex 56 1 38
    endloop
  endfacet
  facet normal 0 -1 0
    outer loop
      vertex 56 1 41
      vertex 69 1 38
      vertex 69 1 46
    endloop
  endfacet
  facet normal -0 0 1
    outer loop
      vertex 69 180 41
      vertex 70 177 41
      vertex 70 180 41
    endloop
  endfacet
  facet normal 0 0 1
    outer loop
      vertex 70 177 41
      vertex 69 180 41
      vertex 69 177 41
    endloop
  endfacet
  facet normal -0 0 1
    outer loop
      vertex 14 225 41
      vertex 56 224 41
      vertex 56 225 41
    endloop
  endfacet
  facet normal 0 0 1
    outer loop
      vertex 56 224 41
      vertex 14 225 41
      vertex 14 224 41
    endloop
  endfacet
  facet normal -0 0 1
    outer loop
      vertex 0 180 41
      vertex 1 177 41
      vertex 1 180 41
    endloop
  endfacet
  facet normal 0 0 1
    outer loop
      vertex 1 177 41
      vertex 0 180 41
      vertex 0 177 41
    endloop
  endfacet
  facet normal -0 0 1
    outer loop
      vertex 69 48 41
      vertex 70 45 41
      vertex 70 48 41
    endloop
  endfacet
  facet normal 0 0 1
    outer loop
      vertex 70 45 41
      vertex 69 48 41
      vertex 69 45 41
    endloop
  endfacet
  facet normal -0 0 1
    outer loop
      vertex 14 1 41
      vertex 56 0 41
      vertex 56 1 41
    endloop
  endfacet
  facet normal 0 0 1
    outer loop
      vertex 56 0 41
      vertex 14 1 41
      vertex 14 0 41
    endloop
  endfacet
  facet normal -0 0 1
    outer loop
      vertex 0 48 41
      vertex 1 45 41
      vertex 1 48 41
    endloop
  endfacet
  facet normal 0 0 1
    outer loop
      vertex 1 45 41
      vertex 0 48 41
      vertex 0 45 41
    endloop
  endfacet
  facet normal -0 0 1
    outer loop
      vertex 0 93 41
      vertex 1 87 41
      vertex 1 93 41
    endloop
  endfacet
  facet normal 0 0 1
    outer loop
      vertex 1 87 41
      vertex 0 93 41
      vertex 0 87 41
    endloop
  endfacet
  facet normal -0 0 1
    outer loop
      vertex 0 138 41
      vertex 1 132 41
      vertex 1 138 41
    endloop
  endfacet
  facet normal 0 0 1
    outer loop
      vertex 1 132 41
      vertex 0 138 41
      vertex 0 132 41
    endloop
  endfacet
  facet normal -0 0 1
    outer loop
      vertex 69 138 41
      vertex 70 132 41
      vertex 70 138 41
    endloop
  endfacet
  facet normal 0 0 1
    outer loop
      vertex 70 132 41
      vertex 69 138 41
      vertex 69 132 41
    endloop
  endfacet
  facet normal -0 0 1
    outer loop
      vertex 69 93 41
      vertex 70 87 41
      vertex 70 93 41
    endloop
  endfacet
  facet normal 0 0 1
    outer loop
      vertex 70 87 41
      vertex 69 93 41
      vertex 69 87 41
    endloop
  endfacet
  facet normal -1 0 0
    outer loop
      vertex 1 180 41
      vertex 1 183 38
      vertex 1 180 38
    endloop
  endfacet
  facet normal -1 0 0
    outer loop
      vertex 1 183 38
      vertex 1 180 41
      vertex 1 183 46
    endloop
  endfacet
  facet normal -1 0 0
    outer loop
      vertex 1 177 46
      vertex 1 180 41
      vertex 1 177 41
    endloop
  endfacet
  facet normal -1 0 0
    outer loop
      vertex 1 180 41
      vertex 1 177 46
      vertex 1 183 46
    endloop
  endfacet
  facet normal -1 0 0
    outer loop
      vertex 1 222 38
      vertex 1 224 46
      vertex 1 224 38
    endloop
  endfacet
  facet normal -1 -0 0
    outer loop
      vertex 1 224 46
      vertex 1 222 38
      vertex 1 222 46
    endloop
  endfacet
  facet normal -1 0 0
    outer loop
      vertex 1 45 38
      vertex 1 42 38
      vertex 1 45 41
    endloop
  endfacet
  facet normal -1 0 0
    outer loop
      vertex 1 45 41
      vertex 1 48 46
      vertex 1 48 41
    endloop
  endfacet
  facet normal -1 0 0
    outer loop
      vertex 1 42 46
      vertex 1 45 41
      vertex 1 42 38
    endloop
  endfacet
  facet normal -1 0 0
    outer loop
      vertex 1 45 41
      vertex 1 42 46
      vertex 1 48 46
    endloop
  endfacet
  facet normal -1 0 0
    outer loop
      vertex 1 1 38
      vertex 1 3 46
      vertex 1 3 38
    endloop
  endfacet
  facet normal -1 -0 0
    outer loop
      vertex 1 3 46
      vertex 1 1 38
      vertex 1 1 46
    endloop
  endfacet
  facet normal -1 0 0
    outer loop
      vertex 1 132 41
      vertex 1 138 46
      vertex 1 138 41
    endloop
  endfacet
  facet normal -1 -0 0
    outer loop
      vertex 1 138 46
      vertex 1 132 41
      vertex 1 132 46
    endloop
  endfacet
  facet normal -1 0 0
    outer loop
      vertex 1 87 41
      vertex 1 93 46
      vertex 1 93 41
    endloop
  endfacet
  facet normal -1 -0 0
    outer loop
      vertex 1 93 46
      vertex 1 87 41
      vertex 1 87 46
    endloop
  endfacet
  facet normal 0 1 0
    outer loop
      vertex 69 224 46
      vertex 56 224 41
      vertex 1 224 46
    endloop
  endfacet
  facet normal 0 1 -0
    outer loop
      vertex 69 224 38
      vertex 56 224 41
      vertex 69 224 46
    endloop
  endfacet
  facet normal 0 1 0
    outer loop
      vertex 56 224 41
      vertex 69 224 38
      vertex 56 224 38
    endloop
  endfacet
  facet normal 0 1 -0
    outer loop
      vertex 14 224 41
      vertex 1 224 46
      vertex 56 224 41
    endloop
  endfacet
  facet normal 0 1 0
    outer loop
      vertex 1 224 38
      vertex 14 224 41
      vertex 14 224 38
    endloop
  endfacet
  facet normal 0 1 0
    outer loop
      vertex 14 224 41
      vertex 1 224 38
      vertex 1 224 46
    endloop
  endfacet
  facet normal 1 0 0
    outer loop
      vertex 69 183 46
      vertex 69 180 41
      vertex 69 183 38
    endloop
  endfacet
  facet normal 1 -0 0
    outer loop
      vertex 69 177 46
      vertex 69 180 41
      vertex 69 183 46
    endloop
  endfacet
  facet normal 1 0 0
    outer loop
      vertex 69 180 41
      vertex 69 177 46
      vertex 69 177 41
    endloop
  endfacet
  facet normal 1 0 0
    outer loop
      vertex 69 183 38
      vertex 69 180 41
      vertex 69 180 38
    endloop
  endfacet
  facet normal 1 -0 0
    outer loop
      vertex 69 222 46
      vertex 69 224 38
      vertex 69 224 46
    endloop
  endfacet
  facet normal 1 0 0
    outer loop
      vertex 69 224 38
      vertex 69 222 46
      vertex 69 222 38
    endloop
  endfacet
  facet normal 1 0 0
    outer loop
      vertex 69 48 46
      vertex 69 45 41
      vertex 69 48 41
    endloop
  endfacet
  facet normal 1 -0 0
    outer loop
      vertex 69 42 46
      vertex 69 45 41
      vertex 69 48 46
    endloop
  endfacet
  facet normal 1 0 0
    outer loop
      vertex 69 42 38
      vertex 69 45 41
      vertex 69 42 46
    endloop
  endfacet
  facet normal 1 0 0
    outer loop
      vertex 69 45 41
      vertex 69 42 38
      vertex 69 45 38
    endloop
  endfacet
  facet normal 1 -0 0
    outer loop
      vertex 69 1 46
      vertex 69 3 38
      vertex 69 3 46
    endloop
  endfacet
  facet normal 1 0 0
    outer loop
      vertex 69 3 38
      vertex 69 1 46
      vertex 69 1 38
    endloop
  endfacet
  facet normal 1 -0 0
    outer loop
      vertex 69 132 46
      vertex 69 138 41
      vertex 69 138 46
    endloop
  endfacet
  facet normal 1 0 0
    outer loop
      vertex 69 138 41
      vertex 69 132 46
      vertex 69 132 41
    endloop
  endfacet
  facet normal 1 -0 0
    outer loop
      vertex 69 87 46
      vertex 69 93 41
      vertex 69 93 46
    endloop
  endfacet
  facet normal 1 0 0
    outer loop
      vertex 69 93 41
      vertex 69 87 46
      vertex 69 87 41
    endloop
  endfacet
  facet normal 0 -1 0
    outer loop
      vertex 1.1 1.1 0
      vertex 68.9 1.1 5.1
      vertex 1.1 1.1 5.1
    endloop
  endfacet
  facet normal 0 -1 -0
    outer loop
      vertex 68.9 1.1 5.1
      vertex 1.1 1.1 0
      vertex 68.9 1.1 0
    endloop
  endfacet
  facet normal -1 0 0
    outer loop
      vertex 1.1 1.1 0
      vertex 1.1 223.9 5.1
      vertex 1.1 223.9 0
    endloop
  endfacet
  facet normal -1 -0 0
    outer loop
      vertex 1.1 223.9 5.1
      vertex 1.1 1.1 0
      vertex 1.1 1.1 5.1
    endloop
  endfacet
  facet normal 0 1 0
    outer loop
      vertex 68.9 223.9 5.1
      vertex 68.9 223.9 0
      vertex 68.8999 223.9 5.1
    endloop
  endfacet
  facet normal 0 1 0
    outer loop
      vertex 68.9 223.9 0
      vertex 1.1 223.9 5.1
      vertex 68.8999 223.9 5.1
    endloop
  endfacet
  facet normal 0 1 0
    outer loop
      vertex 1.1 223.9 5.1
      vertex 68.9 223.9 0
      vertex 1.1 223.9 0
    endloop
  endfacet
  facet normal 1 -0 0
    outer loop
      vertex 68.9 1.1 5.1
      vertex 68.9 223.9 0
      vertex 68.9 223.9 5.1
    endloop
  endfacet
  facet normal 1 0 0
    outer loop
      vertex 68.9 223.9 0
      vertex 68.9 1.1 5.1
      vertex 68.9 1.1 0
    endloop
  endfacet
  facet normal -1.0408e-08 0.67267 -0.739943
    outer loop
      vertex 68.8999 223.9 5.1
      vertex 1.1 223.9 5.1
      vertex 0 225 6.1
    endloop
  endfacet
  facet normal 0 0.67267 -0.739942
    outer loop
      vertex 68.8999 223.9 5.1
      vertex 70 225 6.1
      vertex 68.9 223.9 5.1
    endloop
  endfacet
  facet normal 0 0.67267 -0.739942
    outer loop
      vertex 70 225 6.1
      vertex 68.8999 223.9 5.1
      vertex 0 225 6.1
    endloop
  endfacet
  facet normal 1.0408e-08 -0.672673 -0.73994
    outer loop
      vertex 70 0 6.1
      vertex 1.1 1.1 5.1
      vertex 68.9 1.1 5.1
    endloop
  endfacet
  facet normal -0.672673 0 -0.73994
    outer loop
      vertex 0 0 6.1
      vertex 1.1 223.9 5.1
      vertex 1.1 1.1 5.1
    endloop
  endfacet
  facet normal -0.672673 0 -0.73994
    outer loop
      vertex 1.1 223.9 5.1
      vertex 0 0 6.1
      vertex 0 225 6.1
    endloop
  endfacet
  facet normal -0 -0.672673 -0.73994
    outer loop
      vertex 70 0 6.1
      vertex 0 0 6.1
      vertex 1.1 1.1 5.1
    endloop
  endfacet
  facet normal 0.672673 0 -0.73994
    outer loop
      vertex 68.9 1.1 5.1
      vertex 70 225 6.1
      vertex 70 0 6.1
    endloop
  endfacet
  facet normal 0.672673 0 -0.73994
    outer loop
      vertex 70 225 6.1
      vertex 68.9 1.1 5.1
      vertex 68.9 223.9 5.1
    endloop
  endfacet
  facet normal -1 0 0
    outer loop
      vertex 14 0 38
      vertex 14 1 41
      vertex 14 1 38
    endloop
  endfacet
  facet normal -1 -0 0
    outer loop
      vertex 14 1 41
      vertex 14 0 38
      vertex 14 0 41
    endloop
  endfacet
  facet normal -0 0 1
    outer loop
      vertex 0 45 38
      vertex 1 42 38
      vertex 1 45 38
    endloop
  endfacet
  facet normal 0 0 1
    outer loop
      vertex 1 42 38
      vertex 0 45 38
      vertex 0 42 38
    endloop
  endfacet
  facet normal 0 0 1
    outer loop
      vertex 1 3 38
      vertex 0 3 38
      vertex 1 1 38
    endloop
  endfacet
  facet normal -0 0 1
    outer loop
      vertex 1 1 38
      vertex 14 0 38
      vertex 14 1 38
    endloop
  endfacet
  facet normal 0 0 1
    outer loop
      vertex 1 1 38
      vertex 0 0 38
      vertex 14 0 38
    endloop
  endfacet
  facet normal 0 0 1
    outer loop
      vertex 0 0 38
      vertex 1 1 38
      vertex 0 3 38
    endloop
  endfacet
  facet normal 0 -1 0
    outer loop
      vertex 0 45 38
      vertex 1 45 41
      vertex 0 45 41
    endloop
  endfacet
  facet normal 0 -1 -0
    outer loop
      vertex 1 45 41
      vertex 0 45 38
      vertex 1 45 38
    endloop
  endfacet
  facet normal 1 -0 0
    outer loop
      vertex 56 0 41
      vertex 56 1 38
      vertex 56 1 41
    endloop
  endfacet
  facet normal 1 0 0
    outer loop
      vertex 56 1 38
      vertex 56 0 41
      vertex 56 0 38
    endloop
  endfacet
  facet normal -0 0 1
    outer loop
      vertex 69 45 38
      vertex 70 42 38
      vertex 70 45 38
    endloop
  endfacet
  facet normal 0 0 1
    outer loop
      vertex 70 42 38
      vertex 69 45 38
      vertex 69 42 38
    endloop
  endfacet
  facet normal 0 0 1
    outer loop
      vertex 69 1 38
      vertex 70 3 38
      vertex 69 3 38
    endloop
  endfacet
  facet normal 0 0 1
    outer loop
      vertex 70 3 38
      vertex 69 1 38
      vertex 70 0 38
    endloop
  endfacet
  facet normal 0 0 1
    outer loop
      vertex 56 0 38
      vertex 69 1 38
      vertex 56 1 38
    endloop
  endfacet
  facet normal 0 0 1
    outer loop
      vertex 69 1 38
      vertex 56 0 38
      vertex 70 0 38
    endloop
  endfacet
  facet normal 0 -1 0
    outer loop
      vertex 69 45 38
      vertex 70 45 41
      vertex 69 45 41
    endloop
  endfacet
  facet normal 0 -1 -0
    outer loop
      vertex 70 45 41
      vertex 69 45 38
      vertex 70 45 38
    endloop
  endfacet
  facet normal -1 0 0
    outer loop
      vertex 14 224 38
      vertex 14 225 41
      vertex 14 225 38
    endloop
  endfacet
  facet normal -1 -0 0
    outer loop
      vertex 14 225 41
      vertex 14 224 38
      vertex 14 224 41
    endloop
  endfacet
  facet normal -0 0 1
    outer loop
      vertex 0 183 38
      vertex 1 180 38
      vertex 1 183 38
    endloop
  endfacet
  facet normal 0 0 1
    outer loop
      vertex 1 180 38
      vertex 0 183 38
      vertex 0 180 38
    endloop
  endfacet
  facet normal 0 0 1
    outer loop
      vertex 14 225 38
      vertex 1 224 38
      vertex 14 224 38
    endloop
  endfacet
  facet normal -0 0 1
    outer loop
      vertex 0 225 38
      vertex 1 224 38
      vertex 14 225 38
    endloop
  endfacet
  facet normal 0 0 1
    outer loop
      vertex 0 222 38
      vertex 1 224 38
      vertex 0 225 38
    endloop
  endfacet
  facet normal 0 0 1
    outer loop
      vertex 1 224 38
      vertex 0 222 38
      vertex 1 222 38
    endloop
  endfacet
  facet normal 0 1 -0
    outer loop
      vertex 1 180 38
      vertex 0 180 41
      vertex 1 180 41
    endloop
  endfacet
  facet normal 0 1 0
    outer loop
      vertex 0 180 41
      vertex 1 180 38
      vertex 0 180 38
    endloop
  endfacet
  facet normal 1 -0 0
    outer loop
      vertex 56 224 41
      vertex 56 225 38
      vertex 56 225 41
    endloop
  endfacet
  facet normal 1 0 0
    outer loop
      vertex 56 225 38
      vertex 56 224 41
      vertex 56 224 38
    endloop
  endfacet
  facet normal -0 0 1
    outer loop
      vertex 69 183 38
      vertex 70 180 38
      vertex 70 183 38
    endloop
  endfacet
  facet normal 0 0 1
    outer loop
      vertex 70 180 38
      vertex 69 183 38
      vertex 69 180 38
    endloop
  endfacet
  facet normal 0 0 1
    outer loop
      vertex 70 225 38
      vertex 69 224 38
      vertex 70 222 38
    endloop
  endfacet
  facet normal -0 0 1
    outer loop
      vertex 56 225 38
      vertex 69 224 38
      vertex 70 225 38
    endloop
  endfacet
  facet normal 0 0 1
    outer loop
      vertex 69 224 38
      vertex 56 225 38
      vertex 56 224 38
    endloop
  endfacet
  facet normal 0 0 1
    outer loop
      vertex 70 222 38
      vertex 69 224 38
      vertex 69 222 38
    endloop
  endfacet
  facet normal 0 1 -0
    outer loop
      vertex 70 180 38
      vertex 69 180 41
      vertex 70 180 41
    endloop
  endfacet
  facet normal 0 1 0
    outer loop
      vertex 69 180 41
      vertex 70 180 38
      vertex 69 180 38
    endloop
  endfacet
endsolid OpenSCAD_Model
