solid OpenSCAD_Model
  facet normal -1 0 0
    outer loop
      vertex 0 20 0
      vertex 0 16 3
      vertex 0 20 3
    endloop
  endfacet
  facet normal -1 0 0
    outer loop
      vertex 0 16 3
      vertex 0 4 3
      vertex 0 16 6
    endloop
  endfacet
  facet normal -1 0 0
    outer loop
      vertex 0 20 0
      vertex 0 4 3
      vertex 0 16 3
    endloop
  endfacet
  facet normal -1 0 0
    outer loop
      vertex 0 0 0
      vertex 0 4 3
      vertex 0 20 0
    endloop
  endfacet
  facet normal -1 -0 0
    outer loop
      vertex 0 4 3
      vertex 0 0 0
      vertex 0 0 3
    endloop
  endfacet
  facet normal -1 -0 0
    outer loop
      vertex 0 16 6
      vertex 0 4 3
      vertex 0 4 6
    endloop
  endfacet
  facet normal -0 0 1
    outer loop
      vertex 19 16 6
      vertex 20 4 6
      vertex 20 16 6
    endloop
  endfacet
  facet normal 0 0 1
    outer loop
      vertex 20 4 6
      vertex 19 16 6
      vertex 19 4 6
    endloop
  endfacet
  facet normal -0 0 1
    outer loop
      vertex 4 20 6
      vertex 16 19 6
      vertex 16 20 6
    endloop
  endfacet
  facet normal 0 0 1
    outer loop
      vertex 16 19 6
      vertex 4 20 6
      vertex 4 19 6
    endloop
  endfacet
  facet normal -0 0 1
    outer loop
      vertex 0 16 6
      vertex 1 4 6
      vertex 1 16 6
    endloop
  endfacet
  facet normal 0 0 1
    outer loop
      vertex 1 4 6
      vertex 0 16 6
      vertex 0 4 6
    endloop
  endfacet
  facet normal -0 0 1
    outer loop
      vertex 4 1 6
      vertex 16 0 6
      vertex 16 1 6
    endloop
  endfacet
  facet normal 0 0 1
    outer loop
      vertex 16 0 6
      vertex 4 1 6
      vertex 4 0 6
    endloop
  endfacet
  facet normal -1 0 0
    outer loop
      vertex 4 0 3
      vertex 4 1 6
      vertex 4 1 3
    endloop
  endfacet
  facet normal -1 -0 0
    outer loop
      vertex 4 1 6
      vertex 4 0 3
      vertex 4 0 6
    endloop
  endfacet
  facet normal 0 0 1
    outer loop
      vertex 1 4 3
      vertex 0 4 3
      vertex 1 1 3
    endloop
  endfacet
  facet normal -0 0 1
    outer loop
      vertex 1 1 3
      vertex 4 0 3
      vertex 4 1 3
    endloop
  endfacet
  facet normal 0 0 1
    outer loop
      vertex 1 1 3
      vertex 0 0 3
      vertex 4 0 3
    endloop
  endfacet
  facet normal 0 0 1
    outer loop
      vertex 0 0 3
      vertex 1 1 3
      vertex 0 4 3
    endloop
  endfacet
  facet normal 0 -1 0
    outer loop
      vertex 0 0 0
      vertex 4 0 3
      vertex 0 0 3
    endloop
  endfacet
  facet normal 0 -1 -0
    outer loop
      vertex 4 0 3
      vertex 0 0 0
      vertex 16 0 3
    endloop
  endfacet
  facet normal 0 -1 0
    outer loop
      vertex 20 0 0
      vertex 16 0 3
      vertex 0 0 0
    endloop
  endfacet
  facet normal 0 -1 0
    outer loop
      vertex 16 0 3
      vertex 20 0 0
      vertex 20 0 3
    endloop
  endfacet
  facet normal 0 -1 0
    outer loop
      vertex 4 0 3
      vertex 16 0 6
      vertex 4 0 6
    endloop
  endfacet
  facet normal 0 -1 -0
    outer loop
      vertex 16 0 6
      vertex 4 0 3
      vertex 16 0 3
    endloop
  endfacet
  facet normal 0 -1 0
    outer loop
      vertex 0 4 3
      vertex 1 4 6
      vertex 0 4 6
    endloop
  endfacet
  facet normal 0 -1 -0
    outer loop
      vertex 1 4 6
      vertex 0 4 3
      vertex 1 4 3
    endloop
  endfacet
  facet normal 1 0 0
    outer loop
      vertex 20 16 6
      vertex 20 4 6
      vertex 20 16 3
    endloop
  endfacet
  facet normal 1 -0 0
    outer loop
      vertex 20 16 3
      vertex 20 20 0
      vertex 20 20 3
    endloop
  endfacet
  facet normal 1 0 0
    outer loop
      vertex 20 4 3
      vertex 20 16 3
      vertex 20 4 6
    endloop
  endfacet
  facet normal 1 0 0
    outer loop
      vertex 20 16 3
      vertex 20 4 3
      vertex 20 20 0
    endloop
  endfacet
  facet normal 1 0 0
    outer loop
      vertex 20 0 0
      vertex 20 4 3
      vertex 20 0 3
    endloop
  endfacet
  facet normal 1 0 0
    outer loop
      vertex 20 4 3
      vertex 20 0 0
      vertex 20 20 0
    endloop
  endfacet
  facet normal 1 -0 0
    outer loop
      vertex 16 0 6
      vertex 16 1 3
      vertex 16 1 6
    endloop
  endfacet
  facet normal 1 0 0
    outer loop
      vertex 16 1 3
      vertex 16 0 6
      vertex 16 0 3
    endloop
  endfacet
  facet normal 0 0 1
    outer loop
      vertex 19 1 3
      vertex 20 4 3
      vertex 19 4 3
    endloop
  endfacet
  facet normal 0 0 1
    outer loop
      vertex 20 4 3
      vertex 19 1 3
      vertex 20 0 3
    endloop
  endfacet
  facet normal 0 0 1
    outer loop
      vertex 16 0 3
      vertex 19 1 3
      vertex 16 1 3
    endloop
  endfacet
  facet normal 0 0 1
    outer loop
      vertex 19 1 3
      vertex 16 0 3
      vertex 20 0 3
    endloop
  endfacet
  facet normal 0 -1 0
    outer loop
      vertex 19 4 3
      vertex 20 4 6
      vertex 19 4 6
    endloop
  endfacet
  facet normal 0 -1 -0
    outer loop
      vertex 20 4 6
      vertex 19 4 3
      vertex 20 4 3
    endloop
  endfacet
  facet normal -1 0 0
    outer loop
      vertex 4 19 3
      vertex 4 20 6
      vertex 4 20 3
    endloop
  endfacet
  facet normal -1 -0 0
    outer loop
      vertex 4 20 6
      vertex 4 19 3
      vertex 4 19 6
    endloop
  endfacet
  facet normal 0 0 1
    outer loop
      vertex 4 20 3
      vertex 1 19 3
      vertex 4 19 3
    endloop
  endfacet
  facet normal -0 0 1
    outer loop
      vertex 0 20 3
      vertex 1 19 3
      vertex 4 20 3
    endloop
  endfacet
  facet normal 0 0 1
    outer loop
      vertex 0 16 3
      vertex 1 19 3
      vertex 0 20 3
    endloop
  endfacet
  facet normal 0 0 1
    outer loop
      vertex 1 19 3
      vertex 0 16 3
      vertex 1 16 3
    endloop
  endfacet
  facet normal 0 1 -0
    outer loop
      vertex 20 20 0
      vertex 16 20 3
      vertex 20 20 3
    endloop
  endfacet
  facet normal 0 1 0
    outer loop
      vertex 16 20 3
      vertex 20 20 0
      vertex 4 20 3
    endloop
  endfacet
  facet normal 0 1 0
    outer loop
      vertex 0 20 0
      vertex 4 20 3
      vertex 20 20 0
    endloop
  endfacet
  facet normal 0 1 0
    outer loop
      vertex 4 20 3
      vertex 0 20 0
      vertex 0 20 3
    endloop
  endfacet
  facet normal 0 1 -0
    outer loop
      vertex 16 20 3
      vertex 4 20 6
      vertex 16 20 6
    endloop
  endfacet
  facet normal 0 1 0
    outer loop
      vertex 4 20 6
      vertex 16 20 3
      vertex 4 20 3
    endloop
  endfacet
  facet normal 0 1 -0
    outer loop
      vertex 1 16 3
      vertex 0 16 6
      vertex 1 16 6
    endloop
  endfacet
  facet normal 0 1 0
    outer loop
      vertex 0 16 6
      vertex 1 16 3
      vertex 0 16 3
    endloop
  endfacet
  facet normal 1 -0 0
    outer loop
      vertex 16 19 6
      vertex 16 20 3
      vertex 16 20 6
    endloop
  endfacet
  facet normal 1 0 0
    outer loop
      vertex 16 20 3
      vertex 16 19 6
      vertex 16 19 3
    endloop
  endfacet
  facet normal 0 0 1
    outer loop
      vertex 20 20 3
      vertex 19 19 3
      vertex 20 16 3
    endloop
  endfacet
  facet normal -0 0 1
    outer loop
      vertex 16 20 3
      vertex 19 19 3
      vertex 20 20 3
    endloop
  endfacet
  facet normal 0 0 1
    outer loop
      vertex 19 19 3
      vertex 16 20 3
      vertex 16 19 3
    endloop
  endfacet
  facet normal 0 0 1
    outer loop
      vertex 20 16 3
      vertex 19 19 3
      vertex 19 16 3
    endloop
  endfacet
  facet normal 0 1 -0
    outer loop
      vertex 20 16 3
      vertex 19 16 6
      vertex 20 16 6
    endloop
  endfacet
  facet normal 0 1 0
    outer loop
      vertex 19 16 6
      vertex 20 16 3
      vertex 19 16 3
    endloop
  endfacet
  facet normal 0 0 -1
    outer loop
      vertex 0 0 0
      vertex 20 20 0
      vertex 20 0 0
    endloop
  endfacet
  facet normal -0 0 -1
    outer loop
      vertex 20 20 0
      vertex 0 0 0
      vertex 0 20 0
    endloop
  endfacet
  facet normal -1 0 0
    outer loop
      vertex 1 4 3
      vertex 1 1 3
      vertex 1 4 6
    endloop
  endfacet
  facet normal -1 0 0
    outer loop
      vertex 1 16 6
      vertex 1 19 3
      vertex 1 16 3
    endloop
  endfacet
  facet normal -1 0 0
    outer loop
      vertex 1 19 3
      vertex 1 16 6
      vertex 1 19 10
    endloop
  endfacet
  facet normal -1 0 0
    outer loop
      vertex 1 4 6
      vertex 1 19 10
      vertex 1 16 6
    endloop
  endfacet
  facet normal -1 0 0
    outer loop
      vertex 1 4 6
      vertex 1 1 10
      vertex 1 19 10
    endloop
  endfacet
  facet normal -1 0 0
    outer loop
      vertex 1 1 10
      vertex 1 4 6
      vertex 1 1 3
    endloop
  endfacet
  facet normal 0 0 1
    outer loop
      vertex 19 19 10
      vertex 12.5 12.5 10
      vertex 19 1 10
    endloop
  endfacet
  facet normal 0 0 1
    outer loop
      vertex 19 19 10
      vertex 7.5 12.5 10
      vertex 12.5 12.5 10
    endloop
  endfacet
  facet normal 0 0 1
    outer loop
      vertex 7.5 12.5 10
      vertex 1 19 10
      vertex 7.5 7.5 10
    endloop
  endfacet
  facet normal -0 0 1
    outer loop
      vertex 1 19 10
      vertex 7.5 12.5 10
      vertex 19 19 10
    endloop
  endfacet
  facet normal -0 0 1
    outer loop
      vertex 12.5 7.5 10
      vertex 19 1 10
      vertex 12.5 12.5 10
    endloop
  endfacet
  facet normal -0 0 1
    outer loop
      vertex 7.5 7.5 10
      vertex 19 1 10
      vertex 12.5 7.5 10
    endloop
  endfacet
  facet normal 0 0 1
    outer loop
      vertex 7.5 7.5 10
      vertex 1 1 10
      vertex 19 1 10
    endloop
  endfacet
  facet normal 0 0 1
    outer loop
      vertex 1 1 10
      vertex 7.5 7.5 10
      vertex 1 19 10
    endloop
  endfacet
  facet normal 1 0 0
    outer loop
      vertex 19 19 10
      vertex 19 16 6
      vertex 19 19 3
    endloop
  endfacet
  facet normal 1 0 0
    outer loop
      vertex 19 19 10
      vertex 19 4 6
      vertex 19 16 6
    endloop
  endfacet
  facet normal 1 -0 0
    outer loop
      vertex 19 1 10
      vertex 19 4 6
      vertex 19 19 10
    endloop
  endfacet
  facet normal 1 0 0
    outer loop
      vertex 19 1 3
      vertex 19 4 6
      vertex 19 1 10
    endloop
  endfacet
  facet normal 1 0 0
    outer loop
      vertex 19 4 6
      vertex 19 1 3
      vertex 19 4 3
    endloop
  endfacet
  facet normal 1 0 0
    outer loop
      vertex 19 19 3
      vertex 19 16 6
      vertex 19 16 3
    endloop
  endfacet
  facet normal 0 -1 0
    outer loop
      vertex 1 1 10
      vertex 4 1 6
      vertex 19 1 10
    endloop
  endfacet
  facet normal 0 -1 0
    outer loop
      vertex 1 1 3
      vertex 4 1 6
      vertex 1 1 10
    endloop
  endfacet
  facet normal 0 -1 -0
    outer loop
      vertex 4 1 6
      vertex 1 1 3
      vertex 4 1 3
    endloop
  endfacet
  facet normal 0 -1 0
    outer loop
      vertex 16 1 6
      vertex 19 1 10
      vertex 4 1 6
    endloop
  endfacet
  facet normal 0 -1 0
    outer loop
      vertex 19 1 3
      vertex 16 1 6
      vertex 16 1 3
    endloop
  endfacet
  facet normal 0 -1 0
    outer loop
      vertex 16 1 6
      vertex 19 1 3
      vertex 19 1 10
    endloop
  endfacet
  facet normal 0 1 0
    outer loop
      vertex 19 19 10
      vertex 16 19 6
      vertex 1 19 10
    endloop
  endfacet
  facet normal 0 1 -0
    outer loop
      vertex 19 19 3
      vertex 16 19 6
      vertex 19 19 10
    endloop
  endfacet
  facet normal 0 1 0
    outer loop
      vertex 16 19 6
      vertex 19 19 3
      vertex 16 19 3
    endloop
  endfacet
  facet normal 0 1 -0
    outer loop
      vertex 4 19 6
      vertex 1 19 10
      vertex 16 19 6
    endloop
  endfacet
  facet normal 0 1 0
    outer loop
      vertex 1 19 3
      vertex 4 19 6
      vertex 4 19 3
    endloop
  endfacet
  facet normal 0 1 0
    outer loop
      vertex 4 19 6
      vertex 1 19 3
      vertex 1 19 10
    endloop
  endfacet
  facet normal 1 -0 0
    outer loop
      vertex 7.5 7.5 10
      vertex 7.5 12.5 5
      vertex 7.5 12.5 10
    endloop
  endfacet
  facet normal 1 0 0
    outer loop
      vertex 7.5 12.5 5
      vertex 7.5 7.5 10
      vertex 7.5 7.5 5
    endloop
  endfacet
  facet normal -1 0 0
    outer loop
      vertex 12.5 7.5 5
      vertex 12.5 12.5 10
      vertex 12.5 12.5 5
    endloop
  endfacet
  facet normal -1 -0 0
    outer loop
      vertex 12.5 12.5 10
      vertex 12.5 7.5 5
      vertex 12.5 7.5 10
    endloop
  endfacet
  facet normal 0 -1 0
    outer loop
      vertex 7.5 12.5 5
      vertex 12.5 12.5 10
      vertex 7.5 12.5 10
    endloop
  endfacet
  facet normal 0 -1 -0
    outer loop
      vertex 12.5 12.5 10
      vertex 7.5 12.5 5
      vertex 12.5 12.5 5
    endloop
  endfacet
  facet normal -0 0 1
    outer loop
      vertex 7.5 12.5 5
      vertex 12.5 7.5 5
      vertex 12.5 12.5 5
    endloop
  endfacet
  facet normal 0 0 1
    outer loop
      vertex 12.5 7.5 5
      vertex 7.5 12.5 5
      vertex 7.5 7.5 5
    endloop
  endfacet
  facet normal 0 1 -0
    outer loop
      vertex 12.5 7.5 5
      vertex 7.5 7.5 10
      vertex 12.5 7.5 10
    endloop
  endfacet
  facet normal 0 1 0
    outer loop
      vertex 7.5 7.5 10
      vertex 12.5 7.5 5
      vertex 7.5 7.5 5
    endloop
  endfacet
  facet normal -1 0 0
    outer loop
      vertex 0 -30 0
      vertex 0 -10 5.9
      vertex 0 -10 0
    endloop
  endfacet
  facet normal -1 -0 0
    outer loop
      vertex 0 -10 5.9
      vertex 0 -30 0
      vertex 0 -30 5.9
    endloop
  endfacet
  facet normal 0 0 1
    outer loop
      vertex 20 -10 5.9
      vertex 19.05 -10.95 5.9
      vertex 20 -30 5.9
    endloop
  endfacet
  facet normal 0 0 1
    outer loop
      vertex 20 -10 5.9
      vertex 0.95 -10.95 5.9
      vertex 19.05 -10.95 5.9
    endloop
  endfacet
  facet normal 0 0 1
    outer loop
      vertex 0.95 -10.95 5.9
      vertex 0 -10 5.9
      vertex 0.95 -29.05 5.9
    endloop
  endfacet
  facet normal -0 0 1
    outer loop
      vertex 0 -10 5.9
      vertex 0.95 -10.95 5.9
      vertex 20 -10 5.9
    endloop
  endfacet
  facet normal -0 0 1
    outer loop
      vertex 19.05 -29.05 5.9
      vertex 20 -30 5.9
      vertex 19.05 -10.95 5.9
    endloop
  endfacet
  facet normal -0 0 1
    outer loop
      vertex 0.95 -29.05 5.9
      vertex 20 -30 5.9
      vertex 19.05 -29.05 5.9
    endloop
  endfacet
  facet normal 0 0 1
    outer loop
      vertex 0.95 -29.05 5.9
      vertex 0 -30 5.9
      vertex 20 -30 5.9
    endloop
  endfacet
  facet normal 0 0 1
    outer loop
      vertex 0 -30 5.9
      vertex 0.95 -29.05 5.9
      vertex 0 -10 5.9
    endloop
  endfacet
  facet normal 1 -0 0
    outer loop
      vertex 20 -30 5.9
      vertex 20 -10 0
      vertex 20 -10 5.9
    endloop
  endfacet
  facet normal 1 0 0
    outer loop
      vertex 20 -10 0
      vertex 20 -30 5.9
      vertex 20 -30 0
    endloop
  endfacet
  facet normal 0 0 -1
    outer loop
      vertex 0 -30 0
      vertex 20 -10 0
      vertex 20 -30 0
    endloop
  endfacet
  facet normal -0 0 -1
    outer loop
      vertex 20 -10 0
      vertex 0 -30 0
      vertex 0 -10 0
    endloop
  endfacet
  facet normal 0 -1 0
    outer loop
      vertex 0 -30 0
      vertex 20 -30 5.9
      vertex 0 -30 5.9
    endloop
  endfacet
  facet normal 0 -1 -0
    outer loop
      vertex 20 -30 5.9
      vertex 0 -30 0
      vertex 20 -30 0
    endloop
  endfacet
  facet normal 0 1 -0
    outer loop
      vertex 20 -10 0
      vertex 0 -10 5.9
      vertex 20 -10 5.9
    endloop
  endfacet
  facet normal 0 1 0
    outer loop
      vertex 0 -10 5.9
      vertex 20 -10 0
      vertex 0 -10 0
    endloop
  endfacet
  facet normal 1 -0 0
    outer loop
      vertex 0.95 -29.05 5.9
      vertex 0.95 -10.95 2
      vertex 0.95 -10.95 5.9
    endloop
  endfacet
  facet normal 1 0 0
    outer loop
      vertex 0.95 -10.95 2
      vertex 0.95 -29.05 5.9
      vertex 0.95 -29.05 2
    endloop
  endfacet
  facet normal -1 0 0
    outer loop
      vertex 19.05 -29.05 2
      vertex 19.05 -10.95 5.9
      vertex 19.05 -10.95 2
    endloop
  endfacet
  facet normal -1 -0 0
    outer loop
      vertex 19.05 -10.95 5.9
      vertex 19.05 -29.05 2
      vertex 19.05 -29.05 5.9
    endloop
  endfacet
  facet normal 0 -1 0
    outer loop
      vertex 0.95 -10.95 2
      vertex 19.05 -10.95 5.9
      vertex 0.95 -10.95 5.9
    endloop
  endfacet
  facet normal 0 -1 -0
    outer loop
      vertex 19.05 -10.95 5.9
      vertex 0.95 -10.95 2
      vertex 19.05 -10.95 2
    endloop
  endfacet
  facet normal -0 0 1
    outer loop
      vertex 0.95 -10.95 2
      vertex 19.05 -29.05 2
      vertex 19.05 -10.95 2
    endloop
  endfacet
  facet normal 0 0 1
    outer loop
      vertex 19.05 -29.05 2
      vertex 0.95 -10.95 2
      vertex 0.95 -29.05 2
    endloop
  endfacet
  facet normal 0 1 -0
    outer loop
      vertex 19.05 -29.05 2
      vertex 0.95 -29.05 5.9
      vertex 19.05 -29.05 5.9
    endloop
  endfacet
  facet normal 0 1 0
    outer loop
      vertex 0.95 -29.05 5.9
      vertex 19.05 -29.05 2
      vertex 0.95 -29.05 2
    endloop
  endfacet
endsolid OpenSCAD_Model
