solid OpenSCAD_Model
  facet normal -1 0 0
    outer loop
      vertex 0 91 0
      vertex 0 180 8.95
      vertex 0 180 0
    endloop
  endfacet
  facet normal -1 -0 0
    outer loop
      vertex 0 180 8.95
      vertex 0 91 0
      vertex 0 91 8.95
    endloop
  endfacet
  facet normal 0 0 1
    outer loop
      vertex 224 180 8.95
      vertex 223.05 179.05 8.95
      vertex 224 91 8.95
    endloop
  endfacet
  facet normal 0 0 1
    outer loop
      vertex 224 180 8.95
      vertex 0.95 179.05 8.95
      vertex 223.05 179.05 8.95
    endloop
  endfacet
  facet normal 0 0 1
    outer loop
      vertex 0.95 179.05 8.95
      vertex 0 180 8.95
      vertex 0.95 91.95 8.95
    endloop
  endfacet
  facet normal -0 0 1
    outer loop
      vertex 0 180 8.95
      vertex 0.95 179.05 8.95
      vertex 224 180 8.95
    endloop
  endfacet
  facet normal -0 0 1
    outer loop
      vertex 223.05 91.95 8.95
      vertex 224 91 8.95
      vertex 223.05 179.05 8.95
    endloop
  endfacet
  facet normal -0 0 1
    outer loop
      vertex 0.95 91.95 8.95
      vertex 224 91 8.95
      vertex 223.05 91.95 8.95
    endloop
  endfacet
  facet normal 0 0 1
    outer loop
      vertex 0.95 91.95 8.95
      vertex 0 91 8.95
      vertex 224 91 8.95
    endloop
  endfacet
  facet normal 0 0 1
    outer loop
      vertex 0 91 8.95
      vertex 0.95 91.95 8.95
      vertex 0 180 8.95
    endloop
  endfacet
  facet normal 1 -0 0
    outer loop
      vertex 224 91 8.95
      vertex 224 180 0
      vertex 224 180 8.95
    endloop
  endfacet
  facet normal 1 0 0
    outer loop
      vertex 224 180 0
      vertex 224 91 8.95
      vertex 224 91 0
    endloop
  endfacet
  facet normal 0 0 -1
    outer loop
      vertex 70.775 132.39 0
      vertex 65.663 134.866 0
      vertex 70.775 134.866 0
    endloop
  endfacet
  facet normal 0 0 -1
    outer loop
      vertex 64.97 132.39 0
      vertex 65.663 136.412 0
      vertex 65.663 134.866 0
    endloop
  endfacet
  facet normal 0 0 -1
    outer loop
      vertex 0 180 0
      vertex 65.249 138.834 0
      vertex 64.97 132.39 0
    endloop
  endfacet
  facet normal -0 0 -1
    outer loop
      vertex 65.663 136.412 0
      vertex 64.97 132.39 0
      vertex 65.249 138.834 0
    endloop
  endfacet
  facet normal 0 0 -1
    outer loop
      vertex 64.97 132.39 0
      vertex 65.663 134.866 0
      vertex 70.775 132.39 0
    endloop
  endfacet
  facet normal 0 0 -1
    outer loop
      vertex 65.663 136.412 0
      vertex 70.775 138.834 0
      vertex 70.775 136.412 0
    endloop
  endfacet
  facet normal -0 0 -1
    outer loop
      vertex 70.775 138.834 0
      vertex 65.663 136.412 0
      vertex 65.249 138.834 0
    endloop
  endfacet
  facet normal 0 0 -1
    outer loop
      vertex 96.3893 132.39 0
      vertex 91.2773 134.866 0
      vertex 96.3893 134.866 0
    endloop
  endfacet
  facet normal 0 0 -1
    outer loop
      vertex 90.1194 138.834 0
      vertex 91.2773 136.412 0
      vertex 91.2773 134.866 0
    endloop
  endfacet
  facet normal 0 0 -1
    outer loop
      vertex 91.2773 136.412 0
      vertex 90.1194 138.834 0
      vertex 90.8633 138.834 0
    endloop
  endfacet
  facet normal 0 0 -1
    outer loop
      vertex 90.1194 138.834 0
      vertex 91.2773 134.866 0
      vertex 90.5843 132.39 0
    endloop
  endfacet
  facet normal 0 0 -1
    outer loop
      vertex 90.5843 132.39 0
      vertex 91.2773 134.866 0
      vertex 96.3893 132.39 0
    endloop
  endfacet
  facet normal 0 0 -1
    outer loop
      vertex 91.2773 136.412 0
      vertex 96.3893 138.834 0
      vertex 96.3893 136.412 0
    endloop
  endfacet
  facet normal -0 0 -1
    outer loop
      vertex 96.3893 138.834 0
      vertex 91.2773 136.412 0
      vertex 90.8633 138.834 0
    endloop
  endfacet
  facet normal 0 0 -1
    outer loop
      vertex 90.5843 132.39 0
      vertex 87.0234 138.834 0
      vertex 90.1194 138.834 0
    endloop
  endfacet
  facet normal -0 0 -1
    outer loop
      vertex 81.8352 138.834 0
      vertex 78.7392 130.844 0
      vertex 78.7392 138.834 0
    endloop
  endfacet
  facet normal 0 0 -1
    outer loop
      vertex 104.672 132.39 0
      vertex 99.5225 132.39 0
      vertex 104.672 140.38 0
    endloop
  endfacet
  facet normal 0 0 -1
    outer loop
      vertex 143.606 132.39 0
      vertex 138.494 134.866 0
      vertex 143.606 134.866 0
    endloop
  endfacet
  facet normal 0 0 -1
    outer loop
      vertex 137.336 138.834 0
      vertex 138.494 136.412 0
      vertex 138.494 134.866 0
    endloop
  endfacet
  facet normal 0 0 -1
    outer loop
      vertex 138.494 136.412 0
      vertex 137.336 138.834 0
      vertex 138.08 138.834 0
    endloop
  endfacet
  facet normal 0 0 -1
    outer loop
      vertex 137.336 138.834 0
      vertex 138.494 134.866 0
      vertex 137.801 132.39 0
    endloop
  endfacet
  facet normal 0 0 -1
    outer loop
      vertex 137.801 132.39 0
      vertex 138.494 134.866 0
      vertex 143.606 132.39 0
    endloop
  endfacet
  facet normal 0 0 -1
    outer loop
      vertex 138.494 136.412 0
      vertex 143.606 138.834 0
      vertex 143.606 136.412 0
    endloop
  endfacet
  facet normal -0 0 -1
    outer loop
      vertex 143.606 138.834 0
      vertex 138.494 136.412 0
      vertex 138.08 138.834 0
    endloop
  endfacet
  facet normal 0 0 -1
    outer loop
      vertex 224 91 0
      vertex 159.325 140.38 0
      vertex 224 180 0
    endloop
  endfacet
  facet normal 0 0 -1
    outer loop
      vertex 224 91 0
      vertex 156.86 130.844 0
      vertex 159.325 140.38 0
    endloop
  endfacet
  facet normal 0 0 -1
    outer loop
      vertex 224 91 0
      vertex 154.486 130.844 0
      vertex 156.86 130.844 0
    endloop
  endfacet
  facet normal -0 0 -1
    outer loop
      vertex 152.924 137.612 0
      vertex 152.594 137.353 0
      vertex 152.776 138.393 0
    endloop
  endfacet
  facet normal 0 0 -1
    outer loop
      vertex 153.041 137.043 0
      vertex 152.594 137.353 0
      vertex 152.924 137.612 0
    endloop
  endfacet
  facet normal 0 0 -1
    outer loop
      vertex 152.375 136.357 0
      vertex 153.041 137.043 0
      vertex 153.453 135.262 0
    endloop
  endfacet
  facet normal 0 0 -1
    outer loop
      vertex 151.077 130.844 0
      vertex 153.453 135.262 0
      vertex 154.486 130.844 0
    endloop
  endfacet
  facet normal -0 0 -1
    outer loop
      vertex 153.041 137.043 0
      vertex 152.375 136.357 0
      vertex 152.594 137.353 0
    endloop
  endfacet
  facet normal -0 0 -1
    outer loop
      vertex 153.453 135.262 0
      vertex 151.077 130.844 0
      vertex 152.375 136.357 0
    endloop
  endfacet
  facet normal 0 0 -1
    outer loop
      vertex 224 91 0
      vertex 151.077 130.844 0
      vertex 154.486 130.844 0
    endloop
  endfacet
  facet normal 0 0 -1
    outer loop
      vertex 224 91 0
      vertex 148.704 130.844 0
      vertex 151.077 130.844 0
    endloop
  endfacet
  facet normal 0 0 -1
    outer loop
      vertex 148.704 130.844 0
      vertex 145.607 130.844 0
      vertex 146.233 140.38 0
    endloop
  endfacet
  facet normal 0 0 -1
    outer loop
      vertex 224 91 0
      vertex 145.607 130.844 0
      vertex 148.704 130.844 0
    endloop
  endfacet
  facet normal 0 0 -1
    outer loop
      vertex 224 91 0
      vertex 137.801 130.844 0
      vertex 145.607 130.844 0
    endloop
  endfacet
  facet normal 0 0 -1
    outer loop
      vertex 134.24 130.844 0
      vertex 137.801 132.39 0
      vertex 137.801 130.844 0
    endloop
  endfacet
  facet normal 0 0 -1
    outer loop
      vertex 134.24 138.834 0
      vertex 137.801 132.39 0
      vertex 134.24 130.844 0
    endloop
  endfacet
  facet normal 0 0 -1
    outer loop
      vertex 224 91 0
      vertex 134.24 130.844 0
      vertex 137.801 130.844 0
    endloop
  endfacet
  facet normal 0 0 -1
    outer loop
      vertex 224 91 0
      vertex 132.239 130.844 0
      vertex 134.24 130.844 0
    endloop
  endfacet
  facet normal 0 0 -1
    outer loop
      vertex 132.239 130.844 0
      vertex 129.13 138.834 0
      vertex 132.239 138.834 0
    endloop
  endfacet
  facet normal 0 0 -1
    outer loop
      vertex 124.508 140.38 0
      vertex 129.13 138.834 0
      vertex 124.508 130.844 0
    endloop
  endfacet
  facet normal 0 0 -1
    outer loop
      vertex 132.239 130.844 0
      vertex 124.508 130.844 0
      vertex 129.13 138.834 0
    endloop
  endfacet
  facet normal 0 0 -1
    outer loop
      vertex 224 91 0
      vertex 124.508 130.844 0
      vertex 132.239 130.844 0
    endloop
  endfacet
  facet normal 0 0 -1
    outer loop
      vertex 224 91 0
      vertex 122.507 130.844 0
      vertex 124.508 130.844 0
    endloop
  endfacet
  facet normal 0 0 -1
    outer loop
      vertex 122.507 130.844 0
      vertex 120.128 134.172 0
      vertex 122.507 134.172 0
    endloop
  endfacet
  facet normal 0 0 -1
    outer loop
      vertex 117.053 130.844 0
      vertex 120.128 134.172 0
      vertex 122.507 130.844 0
    endloop
  endfacet
  facet normal -0 0 -1
    outer loop
      vertex 120.128 134.172 0
      vertex 117.053 130.844 0
      vertex 119.122 134.271 0
    endloop
  endfacet
  facet normal -0 0 -1
    outer loop
      vertex 119.122 134.271 0
      vertex 117.053 130.844 0
      vertex 118.263 134.57 0
    endloop
  endfacet
  facet normal -0 0 -1
    outer loop
      vertex 117.569 135.05 0
      vertex 117.053 130.844 0
      vertex 117.057 135.695 0
    endloop
  endfacet
  facet normal -0 0 -1
    outer loop
      vertex 118.263 134.57 0
      vertex 117.053 130.844 0
      vertex 117.569 135.05 0
    endloop
  endfacet
  facet normal 0 0 -1
    outer loop
      vertex 224 91 0
      vertex 117.053 130.844 0
      vertex 122.507 130.844 0
    endloop
  endfacet
  facet normal 0 0 -1
    outer loop
      vertex 224 91 0
      vertex 115.053 130.844 0
      vertex 117.053 130.844 0
    endloop
  endfacet
  facet normal 0 0 -1
    outer loop
      vertex 115.053 130.844 0
      vertex 110.548 133.307 0
      vertex 114.202 133.307 0
    endloop
  endfacet
  facet normal 0 0 -1
    outer loop
      vertex 115.053 130.844 0
      vertex 109.698 130.844 0
      vertex 110.548 133.307 0
    endloop
  endfacet
  facet normal 0 0 -1
    outer loop
      vertex 224 91 0
      vertex 109.698 130.844 0
      vertex 115.053 130.844 0
    endloop
  endfacet
  facet normal 0 0 -1
    outer loop
      vertex 0 91 0
      vertex 109.698 130.844 0
      vertex 224 91 0
    endloop
  endfacet
  facet normal -0 0 -1
    outer loop
      vertex 109.698 130.844 0
      vertex 0 91 0
      vertex 107.718 130.844 0
    endloop
  endfacet
  facet normal -0 0 -1
    outer loop
      vertex 107.718 130.844 0
      vertex 0 91 0
      vertex 106.673 130.844 0
    endloop
  endfacet
  facet normal 0 0 -1
    outer loop
      vertex 99.5225 130.844 0
      vertex 98.3903 130.844 0
      vertex 99.5225 132.39 0
    endloop
  endfacet
  facet normal -0 0 -1
    outer loop
      vertex 106.673 130.844 0
      vertex 0 91 0
      vertex 99.5225 130.844 0
    endloop
  endfacet
  facet normal -0 0 -1
    outer loop
      vertex 99.5225 130.844 0
      vertex 0 91 0
      vertex 98.3903 130.844 0
    endloop
  endfacet
  facet normal 0 0 -1
    outer loop
      vertex 87.0234 130.844 0
      vertex 90.5843 132.39 0
      vertex 90.5843 130.844 0
    endloop
  endfacet
  facet normal 0 0 -1
    outer loop
      vertex 87.0234 138.834 0
      vertex 90.5843 132.39 0
      vertex 87.0234 130.844 0
    endloop
  endfacet
  facet normal -0 0 -1
    outer loop
      vertex 98.3903 130.844 0
      vertex 0 91 0
      vertex 90.5843 130.844 0
    endloop
  endfacet
  facet normal -0 0 -1
    outer loop
      vertex 90.5843 130.844 0
      vertex 0 91 0
      vertex 87.0234 130.844 0
    endloop
  endfacet
  facet normal 0 0 -1
    outer loop
      vertex 85.0224 130.844 0
      vertex 81.9134 138.834 0
      vertex 85.0224 138.834 0
    endloop
  endfacet
  facet normal 0 0 -1
    outer loop
      vertex 81.9134 138.834 0
      vertex 81.8352 138.834 0
      vertex 81.9134 140.38 0
    endloop
  endfacet
  facet normal 0 0 -1
    outer loop
      vertex 85.0224 130.844 0
      vertex 81.8352 138.834 0
      vertex 81.9134 138.834 0
    endloop
  endfacet
  facet normal 0 0 -1
    outer loop
      vertex 85.0224 130.844 0
      vertex 78.7392 130.844 0
      vertex 81.8352 138.834 0
    endloop
  endfacet
  facet normal -0 0 -1
    outer loop
      vertex 87.0234 130.844 0
      vertex 0 91 0
      vertex 85.0224 130.844 0
    endloop
  endfacet
  facet normal -0 0 -1
    outer loop
      vertex 85.0224 130.844 0
      vertex 0 91 0
      vertex 78.7392 130.844 0
    endloop
  endfacet
  facet normal 0 0 -1
    outer loop
      vertex 76.7382 130.844 0
      vertex 73.6292 138.834 0
      vertex 76.7382 138.834 0
    endloop
  endfacet
  facet normal 0 0 -1
    outer loop
      vertex 72.776 140.38 0
      vertex 73.6292 138.834 0
      vertex 72.776 130.844 0
    endloop
  endfacet
  facet normal 0 0 -1
    outer loop
      vertex 76.7382 130.844 0
      vertex 72.776 130.844 0
      vertex 73.6292 138.834 0
    endloop
  endfacet
  facet normal -0 0 -1
    outer loop
      vertex 78.7392 130.844 0
      vertex 0 91 0
      vertex 76.7382 130.844 0
    endloop
  endfacet
  facet normal -0 0 -1
    outer loop
      vertex 76.7382 130.844 0
      vertex 0 91 0
      vertex 72.776 130.844 0
    endloop
  endfacet
  facet normal -0 0 -1
    outer loop
      vertex 64.97 130.844 0
      vertex 0 91 0
      vertex 64.97 132.39 0
    endloop
  endfacet
  facet normal -0 0 -1
    outer loop
      vertex 72.776 130.844 0
      vertex 0 91 0
      vertex 64.97 130.844 0
    endloop
  endfacet
  facet normal 0 0 -1
    outer loop
      vertex 157.298 140.38 0
      vertex 224 180 0
      vertex 159.325 140.38 0
    endloop
  endfacet
  facet normal 0 0 -1
    outer loop
      vertex 155.411 133.655 0
      vertex 155.912 134.224 0
      vertex 155.599 132.736 0
    endloop
  endfacet
  facet normal 0 0 -1
    outer loop
      vertex 155.229 134.532 0
      vertex 155.912 134.224 0
      vertex 155.411 133.655 0
    endloop
  endfacet
  facet normal 0 0 -1
    outer loop
      vertex 154.8 136.422 0
      vertex 155.912 134.224 0
      vertex 155.229 134.532 0
    endloop
  endfacet
  facet normal 0 0 -1
    outer loop
      vertex 155.912 134.224 0
      vertex 154.8 136.422 0
      vertex 157.298 140.38 0
    endloop
  endfacet
  facet normal 0 0 -1
    outer loop
      vertex 153.874 140.38 0
      vertex 157.298 140.38 0
      vertex 154.8 136.422 0
    endloop
  endfacet
  facet normal 0 0 -1
    outer loop
      vertex 153.874 140.38 0
      vertex 224 180 0
      vertex 157.298 140.38 0
    endloop
  endfacet
  facet normal 0 0 -1
    outer loop
      vertex 151.636 140.38 0
      vertex 224 180 0
      vertex 153.874 140.38 0
    endloop
  endfacet
  facet normal 0 0 -1
    outer loop
      vertex 149.775 133.521 0
      vertex 150.235 134.38 0
      vertex 149.945 132.736 0
    endloop
  endfacet
  facet normal 0 0 -1
    outer loop
      vertex 149.415 135.077 0
      vertex 150.235 134.38 0
      vertex 149.775 133.521 0
    endloop
  endfacet
  facet normal 0 0 -1
    outer loop
      vertex 150.235 134.38 0
      vertex 149.415 135.077 0
      vertex 150.427 135.307 0
    endloop
  endfacet
  facet normal 0 0 -1
    outer loop
      vertex 148.261 140.38 0
      vertex 150.427 135.307 0
      vertex 149.415 135.077 0
    endloop
  endfacet
  facet normal 0 0 -1
    outer loop
      vertex 150.427 135.307 0
      vertex 148.261 140.38 0
      vertex 151.636 140.38 0
    endloop
  endfacet
  facet normal 0 0 -1
    outer loop
      vertex 148.261 140.38 0
      vertex 224 180 0
      vertex 151.636 140.38 0
    endloop
  endfacet
  facet normal 0 0 -1
    outer loop
      vertex 146.233 140.38 0
      vertex 224 180 0
      vertex 148.261 140.38 0
    endloop
  endfacet
  facet normal 0 0 -1
    outer loop
      vertex 145.607 140.38 0
      vertex 146.233 140.38 0
      vertex 145.607 130.844 0
    endloop
  endfacet
  facet normal 0 0 -1
    outer loop
      vertex 145.607 140.38 0
      vertex 224 180 0
      vertex 146.233 140.38 0
    endloop
  endfacet
  facet normal 0 0 -1
    outer loop
      vertex 138.08 140.38 0
      vertex 224 180 0
      vertex 145.607 140.38 0
    endloop
  endfacet
  facet normal 0 0 -1
    outer loop
      vertex 138.08 138.834 0
      vertex 137.336 138.834 0
      vertex 138.08 140.38 0
    endloop
  endfacet
  facet normal 0 0 -1
    outer loop
      vertex 137.336 140.38 0
      vertex 138.08 140.38 0
      vertex 137.336 138.834 0
    endloop
  endfacet
  facet normal 0 0 -1
    outer loop
      vertex 137.336 140.38 0
      vertex 224 180 0
      vertex 138.08 140.38 0
    endloop
  endfacet
  facet normal 0 0 -1
    outer loop
      vertex 129.13 140.38 0
      vertex 224 180 0
      vertex 137.336 140.38 0
    endloop
  endfacet
  facet normal 0 0 -1
    outer loop
      vertex 129.13 138.834 0
      vertex 124.508 140.38 0
      vertex 129.13 140.38 0
    endloop
  endfacet
  facet normal 0 0 -1
    outer loop
      vertex 124.508 140.38 0
      vertex 224 180 0
      vertex 129.13 140.38 0
    endloop
  endfacet
  facet normal 0 0 -1
    outer loop
      vertex 120.208 140.38 0
      vertex 224 180 0
      vertex 124.508 140.38 0
    endloop
  endfacet
  facet normal 0 0 -1
    outer loop
      vertex 113.558 140.38 0
      vertex 120.208 140.38 0
      vertex 118.687 140.182 0
    endloop
  endfacet
  facet normal 0 0 -1
    outer loop
      vertex 113.558 140.38 0
      vertex 116.867 138.631 0
      vertex 116.635 137.347 0
    endloop
  endfacet
  facet normal 0 0 -1
    outer loop
      vertex 113.558 140.38 0
      vertex 117.562 139.588 0
      vertex 116.867 138.631 0
    endloop
  endfacet
  facet normal 0 0 -1
    outer loop
      vertex 113.558 140.38 0
      vertex 118.687 140.182 0
      vertex 117.562 139.588 0
    endloop
  endfacet
  facet normal 0 0 -1
    outer loop
      vertex 120.208 140.38 0
      vertex 113.558 140.38 0
      vertex 224 180 0
    endloop
  endfacet
  facet normal 0 0 -1
    outer loop
      vertex 111.198 140.38 0
      vertex 224 180 0
      vertex 113.558 140.38 0
    endloop
  endfacet
  facet normal 0 0 -1
    outer loop
      vertex 106.673 140.38 0
      vertex 107.718 130.844 0
      vertex 106.673 130.844 0
    endloop
  endfacet
  facet normal 0 0 -1
    outer loop
      vertex 107.718 130.844 0
      vertex 106.673 140.38 0
      vertex 111.198 140.38 0
    endloop
  endfacet
  facet normal 0 0 -1
    outer loop
      vertex 0 180 0
      vertex 111.198 140.38 0
      vertex 106.673 140.38 0
    endloop
  endfacet
  facet normal 0 0 -1
    outer loop
      vertex 0 180 0
      vertex 106.673 140.38 0
      vertex 104.672 140.38 0
    endloop
  endfacet
  facet normal 0 0 -1
    outer loop
      vertex 98.3903 140.38 0
      vertex 99.5225 132.39 0
      vertex 98.3903 130.844 0
    endloop
  endfacet
  facet normal 0 0 -1
    outer loop
      vertex 99.5225 132.39 0
      vertex 98.3903 140.38 0
      vertex 104.672 140.38 0
    endloop
  endfacet
  facet normal 0 0 -1
    outer loop
      vertex 0 180 0
      vertex 104.672 140.38 0
      vertex 98.3903 140.38 0
    endloop
  endfacet
  facet normal 0 0 -1
    outer loop
      vertex 0 180 0
      vertex 98.3903 140.38 0
      vertex 90.8633 140.38 0
    endloop
  endfacet
  facet normal 0 0 -1
    outer loop
      vertex 90.8633 138.834 0
      vertex 90.1194 138.834 0
      vertex 90.8633 140.38 0
    endloop
  endfacet
  facet normal 0 0 -1
    outer loop
      vertex 90.1194 140.38 0
      vertex 90.8633 140.38 0
      vertex 90.1194 138.834 0
    endloop
  endfacet
  facet normal 0 0 -1
    outer loop
      vertex 0 180 0
      vertex 90.8633 140.38 0
      vertex 90.1194 140.38 0
    endloop
  endfacet
  facet normal 0 0 -1
    outer loop
      vertex 0 180 0
      vertex 90.1194 140.38 0
      vertex 81.9134 140.38 0
    endloop
  endfacet
  facet normal 0 0 -1
    outer loop
      vertex 81.8352 140.38 0
      vertex 81.9134 140.38 0
      vertex 81.8352 138.834 0
    endloop
  endfacet
  facet normal 0 0 -1
    outer loop
      vertex 0 180 0
      vertex 81.9134 140.38 0
      vertex 81.8352 140.38 0
    endloop
  endfacet
  facet normal 0 0 -1
    outer loop
      vertex 0 180 0
      vertex 81.8352 140.38 0
      vertex 73.6292 140.38 0
    endloop
  endfacet
  facet normal 0 0 -1
    outer loop
      vertex 73.6292 138.834 0
      vertex 72.776 140.38 0
      vertex 73.6292 140.38 0
    endloop
  endfacet
  facet normal 0 0 -1
    outer loop
      vertex 0 180 0
      vertex 73.6292 140.38 0
      vertex 72.776 140.38 0
    endloop
  endfacet
  facet normal 0 0 -1
    outer loop
      vertex 0 180 0
      vertex 72.776 140.38 0
      vertex 65.249 140.38 0
    endloop
  endfacet
  facet normal 0 0 -1
    outer loop
      vertex 0 180 0
      vertex 64.97 132.39 0
      vertex 0 91 0
    endloop
  endfacet
  facet normal 0 0 -1
    outer loop
      vertex 111.198 140.38 0
      vertex 0 180 0
      vertex 224 180 0
    endloop
  endfacet
  facet normal 0 0 -1
    outer loop
      vertex 65.249 138.834 0
      vertex 0 180 0
      vertex 65.249 140.38 0
    endloop
  endfacet
  facet normal 0 0 -1
    outer loop
      vertex 137.801 132.39 0
      vertex 134.24 138.834 0
      vertex 137.336 138.834 0
    endloop
  endfacet
  facet normal 0 0 -1
    outer loop
      vertex 117.053 130.844 0
      vertex 116.741 136.472 0
      vertex 117.057 135.695 0
    endloop
  endfacet
  facet normal 0 0 -1
    outer loop
      vertex 113.558 140.38 0
      vertex 116.741 136.472 0
      vertex 117.053 130.844 0
    endloop
  endfacet
  facet normal 0 0 -1
    outer loop
      vertex 116.741 136.472 0
      vertex 113.558 140.38 0
      vertex 116.635 137.347 0
    endloop
  endfacet
  facet normal 0 0 -1
    outer loop
      vertex 122.507 135.711 0
      vertex 120.432 138.827 0
      vertex 122.507 138.827 0
    endloop
  endfacet
  facet normal 0 0 -1
    outer loop
      vertex 120.378 135.711 0
      vertex 120.432 138.827 0
      vertex 122.507 135.711 0
    endloop
  endfacet
  facet normal 0 0 -1
    outer loop
      vertex 119.644 135.814 0
      vertex 120.432 138.827 0
      vertex 120.378 135.711 0
    endloop
  endfacet
  facet normal 0 0 -1
    outer loop
      vertex 118.763 136.627 0
      vertex 119.644 135.814 0
      vertex 119.099 136.123 0
    endloop
  endfacet
  facet normal 0 0 -1
    outer loop
      vertex 119.644 135.814 0
      vertex 118.65 137.313 0
      vertex 120.432 138.827 0
    endloop
  endfacet
  facet normal 0 0 -1
    outer loop
      vertex 119.644 135.814 0
      vertex 118.763 136.627 0
      vertex 118.65 137.313 0
    endloop
  endfacet
  facet normal 0 0 -1
    outer loop
      vertex 120.432 138.827 0
      vertex 118.65 137.313 0
      vertex 119.096 138.448 0
    endloop
  endfacet
  facet normal -0 0 -1
    outer loop
      vertex 112.419 138.771 0
      vertex 112.235 138.454 0
      vertex 112.378 138.919 0
    endloop
  endfacet
  facet normal -0 0 -1
    outer loop
      vertex 112.494 138.511 0
      vertex 112.235 138.454 0
      vertex 112.419 138.771 0
    endloop
  endfacet
  facet normal 0 0 -1
    outer loop
      vertex 112.583 138.218 0
      vertex 112.235 138.454 0
      vertex 112.494 138.511 0
    endloop
  endfacet
  facet normal 0 0 -1
    outer loop
      vertex 111.943 137.539 0
      vertex 112.583 138.218 0
      vertex 112.923 137.212 0
    endloop
  endfacet
  facet normal 0 0 -1
    outer loop
      vertex 110.997 134.812 0
      vertex 112.923 137.212 0
      vertex 113.753 134.812 0
    endloop
  endfacet
  facet normal -0 0 -1
    outer loop
      vertex 112.583 138.218 0
      vertex 111.943 137.539 0
      vertex 112.235 138.454 0
    endloop
  endfacet
  facet normal -0 0 -1
    outer loop
      vertex 112.923 137.212 0
      vertex 110.997 134.812 0
      vertex 111.943 137.539 0
    endloop
  endfacet
  facet normal 0 -1 0
    outer loop
      vertex 0 91 0
      vertex 224 91 8.95
      vertex 0 91 8.95
    endloop
  endfacet
  facet normal 0 -1 -0
    outer loop
      vertex 224 91 8.95
      vertex 0 91 0
      vertex 224 91 0
    endloop
  endfacet
  facet normal 0 1 -0
    outer loop
      vertex 224 180 0
      vertex 0 180 8.95
      vertex 224 180 8.95
    endloop
  endfacet
  facet normal 0 1 0
    outer loop
      vertex 0 180 8.95
      vertex 224 180 0
      vertex 0 180 0
    endloop
  endfacet
  facet normal 1 -0 0
    outer loop
      vertex 0.95 91.95 8.95
      vertex 0.95 179.05 1.95
      vertex 0.95 179.05 8.95
    endloop
  endfacet
  facet normal 1 0 0
    outer loop
      vertex 0.95 179.05 1.95
      vertex 0.95 91.95 8.95
      vertex 0.95 91.95 1.95
    endloop
  endfacet
  facet normal -1 0 0
    outer loop
      vertex 223.05 91.95 1.95
      vertex 223.05 179.05 8.95
      vertex 223.05 179.05 1.95
    endloop
  endfacet
  facet normal -1 -0 0
    outer loop
      vertex 223.05 179.05 8.95
      vertex 223.05 91.95 1.95
      vertex 223.05 91.95 8.95
    endloop
  endfacet
  facet normal 0 -1 0
    outer loop
      vertex 0.95 179.05 1.95
      vertex 223.05 179.05 8.95
      vertex 0.95 179.05 8.95
    endloop
  endfacet
  facet normal 0 -1 -0
    outer loop
      vertex 223.05 179.05 8.95
      vertex 0.95 179.05 1.95
      vertex 223.05 179.05 1.95
    endloop
  endfacet
  facet normal 0 1 -0
    outer loop
      vertex 223.05 91.95 1.95
      vertex 0.95 91.95 8.95
      vertex 223.05 91.95 8.95
    endloop
  endfacet
  facet normal 0 1 0
    outer loop
      vertex 0.95 91.95 8.95
      vertex 223.05 91.95 1.95
      vertex 0.95 91.95 1.95
    endloop
  endfacet
  facet normal -0 0 1
    outer loop
      vertex 0.95 179.05 1.95
      vertex 223.05 91.95 1.95
      vertex 223.05 179.05 1.95
    endloop
  endfacet
  facet normal 0 0 1
    outer loop
      vertex 223.05 91.95 1.95
      vertex 0.95 179.05 1.95
      vertex 0.95 91.95 1.95
    endloop
  endfacet
  facet normal 0 0 -1
    outer loop
      vertex 155.912 134.224 0.974999
      vertex 159.325 140.38 0.974999
      vertex 156.86 130.844 0.974999
    endloop
  endfacet
  facet normal -0 0 -1
    outer loop
      vertex 159.325 140.38 0.974999
      vertex 155.912 134.224 0.974999
      vertex 157.298 140.38 0.974999
    endloop
  endfacet
  facet normal 0 0 -1
    outer loop
      vertex 156.86 130.844 0.974999
      vertex 155.599 132.736 0.974999
      vertex 155.912 134.224 0.974999
    endloop
  endfacet
  facet normal 0 0 -1
    outer loop
      vertex 154.486 130.844 0.974999
      vertex 155.411 133.655 0.974999
      vertex 155.599 132.736 0.974999
    endloop
  endfacet
  facet normal 0 0 -1
    outer loop
      vertex 155.411 133.655 0.974999
      vertex 153.453 135.262 0.974999
      vertex 155.229 134.532 0.974999
    endloop
  endfacet
  facet normal 0 0 -1
    outer loop
      vertex 154.486 130.844 0.974999
      vertex 155.599 132.736 0.974999
      vertex 156.86 130.844 0.974999
    endloop
  endfacet
  facet normal -0 0 -1
    outer loop
      vertex 155.411 133.655 0.974999
      vertex 154.486 130.844 0.974999
      vertex 153.453 135.262 0.974999
    endloop
  endfacet
  facet normal 0 0 -1
    outer loop
      vertex 155.229 134.532 0.974999
      vertex 153.453 135.262 0.974999
      vertex 154.8 136.422 0.974999
    endloop
  endfacet
  facet normal 0 0 -1
    outer loop
      vertex 153.041 137.043 0.974999
      vertex 154.8 136.422 0.974999
      vertex 153.453 135.262 0.974999
    endloop
  endfacet
  facet normal 0 0 -1
    outer loop
      vertex 152.924 137.612 0.974999
      vertex 154.8 136.422 0.974999
      vertex 153.041 137.043 0.974999
    endloop
  endfacet
  facet normal 0 0 -1
    outer loop
      vertex 152.776 138.393 0.974999
      vertex 154.8 136.422 0.974999
      vertex 152.924 137.612 0.974999
    endloop
  endfacet
  facet normal 0 0 -1
    outer loop
      vertex 154.8 136.422 0.974999
      vertex 152.776 138.393 0.974999
      vertex 153.874 140.38 0.974999
    endloop
  endfacet
  facet normal 0 0 -1
    outer loop
      vertex 150.427 135.307 0.974999
      vertex 152.594 137.353 0.974999
      vertex 152.375 136.357 0.974999
    endloop
  endfacet
  facet normal 0 0 -1
    outer loop
      vertex 152.776 138.393 0.974999
      vertex 151.636 140.38 0.974999
      vertex 153.874 140.38 0.974999
    endloop
  endfacet
  facet normal 0 -0 -1
    outer loop
      vertex 151.636 140.38 0.974999
      vertex 152.594 137.353 0.974999
      vertex 150.427 135.307 0.974999
    endloop
  endfacet
  facet normal 0 0 -1
    outer loop
      vertex 150.235 134.38 0.974999
      vertex 152.375 136.357 0.974999
      vertex 151.077 130.844 0.974999
    endloop
  endfacet
  facet normal 0 0 -1
    outer loop
      vertex 152.594 137.353 0.974999
      vertex 151.636 140.38 0.974999
      vertex 152.776 138.393 0.974999
    endloop
  endfacet
  facet normal 0 0 -1
    outer loop
      vertex 152.375 136.357 0.974999
      vertex 150.235 134.38 0.974999
      vertex 150.427 135.307 0.974999
    endloop
  endfacet
  facet normal 0 0 -1
    outer loop
      vertex 151.077 130.844 0.974999
      vertex 149.945 132.736 0.974999
      vertex 150.235 134.38 0.974999
    endloop
  endfacet
  facet normal 0 0 -1
    outer loop
      vertex 148.704 130.844 0.974999
      vertex 149.775 133.521 0.974999
      vertex 149.945 132.736 0.974999
    endloop
  endfacet
  facet normal 0 0 -1
    outer loop
      vertex 148.704 130.844 0.974999
      vertex 149.945 132.736 0.974999
      vertex 151.077 130.844 0.974999
    endloop
  endfacet
  facet normal -0 0 -1
    outer loop
      vertex 149.775 133.521 0.974999
      vertex 148.704 130.844 0.974999
      vertex 149.415 135.077 0.974999
    endloop
  endfacet
  facet normal 0 0 -1
    outer loop
      vertex 146.233 140.38 0.974999
      vertex 149.415 135.077 0.974999
      vertex 148.704 130.844 0.974999
    endloop
  endfacet
  facet normal 0 0 -1
    outer loop
      vertex 149.415 135.077 0.974999
      vertex 146.233 140.38 0.974999
      vertex 148.261 140.38 0.974999
    endloop
  endfacet
  facet normal 0 0 -1
    outer loop
      vertex 134.24 130.844 0.974999
      vertex 132.239 130.844 0.974999
      vertex 134.24 138.834 0.974999
    endloop
  endfacet
  facet normal 0 0 -1
    outer loop
      vertex 134.24 138.834 0.974999
      vertex 137.336 140.38 0.974999
      vertex 137.336 138.834 0.974999
    endloop
  endfacet
  facet normal 0 0 -1
    outer loop
      vertex 132.239 138.834 0.974999
      vertex 134.24 138.834 0.974999
      vertex 132.239 130.844 0.974999
    endloop
  endfacet
  facet normal 0 0 -1
    outer loop
      vertex 132.239 138.834 0.974999
      vertex 137.336 140.38 0.974999
      vertex 134.24 138.834 0.974999
    endloop
  endfacet
  facet normal 0 0 -1
    outer loop
      vertex 129.13 140.38 0.974999
      vertex 132.239 138.834 0.974999
      vertex 129.13 138.834 0.974999
    endloop
  endfacet
  facet normal 0 0 -1
    outer loop
      vertex 132.239 138.834 0.974999
      vertex 129.13 140.38 0.974999
      vertex 137.336 140.38 0.974999
    endloop
  endfacet
  facet normal 0 0 -1
    outer loop
      vertex 138.494 134.866 0.974999
      vertex 143.606 136.412 0.974999
      vertex 143.606 134.866 0.974999
    endloop
  endfacet
  facet normal -0 0 -1
    outer loop
      vertex 143.606 136.412 0.974999
      vertex 138.494 134.866 0.974999
      vertex 138.494 136.412 0.974999
    endloop
  endfacet
  facet normal 0 0 -1
    outer loop
      vertex 143.606 134.866 0.974999
      vertex 145.607 130.844 0.974999
      vertex 143.606 132.39 0.974999
    endloop
  endfacet
  facet normal 0 0 -1
    outer loop
      vertex 137.801 130.844 0.974999
      vertex 143.606 132.39 0.974999
      vertex 145.607 130.844 0.974999
    endloop
  endfacet
  facet normal -0 0 -1
    outer loop
      vertex 143.606 132.39 0.974999
      vertex 137.801 130.844 0.974999
      vertex 137.801 132.39 0.974999
    endloop
  endfacet
  facet normal 0 0 -1
    outer loop
      vertex 145.607 130.844 0.974999
      vertex 143.606 134.866 0.974999
      vertex 145.607 140.38 0.974999
    endloop
  endfacet
  facet normal 0 0 -1
    outer loop
      vertex 143.606 136.412 0.974999
      vertex 145.607 140.38 0.974999
      vertex 143.606 134.866 0.974999
    endloop
  endfacet
  facet normal 0 0 -1
    outer loop
      vertex 143.606 138.834 0.974999
      vertex 145.607 140.38 0.974999
      vertex 143.606 136.412 0.974999
    endloop
  endfacet
  facet normal 0 0 -1
    outer loop
      vertex 138.08 140.38 0.974999
      vertex 143.606 138.834 0.974999
      vertex 138.08 138.834 0.974999
    endloop
  endfacet
  facet normal 0 0 -1
    outer loop
      vertex 143.606 138.834 0.974999
      vertex 138.08 140.38 0.974999
      vertex 145.607 140.38 0.974999
    endloop
  endfacet
  facet normal 0 0 -1
    outer loop
      vertex 122.507 134.172 0.974999
      vertex 120.378 135.711 0.974999
      vertex 122.507 135.711 0.974999
    endloop
  endfacet
  facet normal 0 0 -1
    outer loop
      vertex 120.128 134.172 0.974999
      vertex 120.378 135.711 0.974999
      vertex 122.507 134.172 0.974999
    endloop
  endfacet
  facet normal 0 0 -1
    outer loop
      vertex 120.128 134.172 0.974999
      vertex 119.644 135.814 0.974999
      vertex 120.378 135.711 0.974999
    endloop
  endfacet
  facet normal 0 0 -1
    outer loop
      vertex 119.122 134.271 0.974999
      vertex 119.644 135.814 0.974999
      vertex 120.128 134.172 0.974999
    endloop
  endfacet
  facet normal 0 0 -1
    outer loop
      vertex 118.263 134.57 0.974999
      vertex 119.644 135.814 0.974999
      vertex 119.122 134.271 0.974999
    endloop
  endfacet
  facet normal -0 0 -1
    outer loop
      vertex 119.644 135.814 0.974999
      vertex 118.263 134.57 0.974999
      vertex 119.099 136.123 0.974999
    endloop
  endfacet
  facet normal 0 0 -1
    outer loop
      vertex 117.569 135.05 0.974999
      vertex 119.099 136.123 0.974999
      vertex 118.263 134.57 0.974999
    endloop
  endfacet
  facet normal -0 0 -1
    outer loop
      vertex 119.099 136.123 0.974999
      vertex 117.569 135.05 0.974999
      vertex 118.763 136.627 0.974999
    endloop
  endfacet
  facet normal 0 0 -1
    outer loop
      vertex 122.507 134.172 0.974999
      vertex 124.508 130.844 0.974999
      vertex 122.507 130.844 0.974999
    endloop
  endfacet
  facet normal 0 0 -1
    outer loop
      vertex 122.507 135.711 0.974999
      vertex 124.508 130.844 0.974999
      vertex 122.507 134.172 0.974999
    endloop
  endfacet
  facet normal 0 0 -1
    outer loop
      vertex 124.508 130.844 0.974999
      vertex 122.507 135.711 0.974999
      vertex 124.508 140.38 0.974999
    endloop
  endfacet
  facet normal 0 0 -1
    outer loop
      vertex 122.507 138.827 0.974999
      vertex 124.508 140.38 0.974999
      vertex 122.507 135.711 0.974999
    endloop
  endfacet
  facet normal 0 0 -1
    outer loop
      vertex 120.208 140.38 0.974999
      vertex 122.507 138.827 0.974999
      vertex 120.432 138.827 0.974999
    endloop
  endfacet
  facet normal 0 0 -1
    outer loop
      vertex 122.507 138.827 0.974999
      vertex 120.208 140.38 0.974999
      vertex 124.508 140.38 0.974999
    endloop
  endfacet
  facet normal 0 0 -1
    outer loop
      vertex 118.687 140.182 0.974999
      vertex 120.432 138.827 0.974999
      vertex 119.096 138.448 0.974999
    endloop
  endfacet
  facet normal 0 0 -1
    outer loop
      vertex 120.432 138.827 0.974999
      vertex 118.687 140.182 0.974999
      vertex 120.208 140.38 0.974999
    endloop
  endfacet
  facet normal 0 0 -1
    outer loop
      vertex 116.867 138.631 0.974999
      vertex 119.096 138.448 0.974999
      vertex 118.65 137.313 0.974999
    endloop
  endfacet
  facet normal 0 0 -1
    outer loop
      vertex 117.057 135.695 0.974999
      vertex 118.763 136.627 0.974999
      vertex 117.569 135.05 0.974999
    endloop
  endfacet
  facet normal 0 0 -1
    outer loop
      vertex 116.741 136.472 0.974999
      vertex 118.763 136.627 0.974999
      vertex 117.057 135.695 0.974999
    endloop
  endfacet
  facet normal 0 -0 -1
    outer loop
      vertex 116.867 138.631 0.974999
      vertex 118.65 137.313 0.974999
      vertex 116.635 137.347 0.974999
    endloop
  endfacet
  facet normal -0 0 -1
    outer loop
      vertex 118.763 136.627 0.974999
      vertex 116.741 136.472 0.974999
      vertex 118.65 137.313 0.974999
    endloop
  endfacet
  facet normal 0 0 -1
    outer loop
      vertex 119.096 138.448 0.974999
      vertex 117.562 139.588 0.974999
      vertex 118.687 140.182 0.974999
    endloop
  endfacet
  facet normal -0 0 -1
    outer loop
      vertex 118.65 137.313 0.974999
      vertex 116.741 136.472 0.974999
      vertex 116.635 137.347 0.974999
    endloop
  endfacet
  facet normal 0 0 -1
    outer loop
      vertex 119.096 138.448 0.974999
      vertex 116.867 138.631 0.974999
      vertex 117.562 139.588 0.974999
    endloop
  endfacet
  facet normal 0 0 -1
    outer loop
      vertex 114.202 133.307 0.974999
      vertex 110.997 134.812 0.974999
      vertex 113.753 134.812 0.974999
    endloop
  endfacet
  facet normal 0 -0 -1
    outer loop
      vertex 110.997 134.812 0.974999
      vertex 114.202 133.307 0.974999
      vertex 110.548 133.307 0.974999
    endloop
  endfacet
  facet normal 0 0 -1
    outer loop
      vertex 114.202 133.307 0.974999
      vertex 117.053 130.844 0.974999
      vertex 115.053 130.844 0.974999
    endloop
  endfacet
  facet normal 0 0 -1
    outer loop
      vertex 113.753 134.812 0.974999
      vertex 117.053 130.844 0.974999
      vertex 114.202 133.307 0.974999
    endloop
  endfacet
  facet normal 0 0 -1
    outer loop
      vertex 113.753 134.812 0.974999
      vertex 113.558 140.38 0.974999
      vertex 117.053 130.844 0.974999
    endloop
  endfacet
  facet normal 0 0 -1
    outer loop
      vertex 112.923 137.212 0.974999
      vertex 113.558 140.38 0.974999
      vertex 113.753 134.812 0.974999
    endloop
  endfacet
  facet normal 0 0 -1
    outer loop
      vertex 112.583 138.218 0.974999
      vertex 113.558 140.38 0.974999
      vertex 112.923 137.212 0.974999
    endloop
  endfacet
  facet normal 0 0 -1
    outer loop
      vertex 112.494 138.511 0.974999
      vertex 113.558 140.38 0.974999
      vertex 112.583 138.218 0.974999
    endloop
  endfacet
  facet normal 0 0 -1
    outer loop
      vertex 112.419 138.771 0.974999
      vertex 113.558 140.38 0.974999
      vertex 112.494 138.511 0.974999
    endloop
  endfacet
  facet normal 0 0 -1
    outer loop
      vertex 112.378 138.919 0.974999
      vertex 113.558 140.38 0.974999
      vertex 112.419 138.771 0.974999
    endloop
  endfacet
  facet normal 0 0 -1
    outer loop
      vertex 111.198 140.38 0.974999
      vertex 112.235 138.454 0.974999
      vertex 111.943 137.539 0.974999
    endloop
  endfacet
  facet normal 0 0 -1
    outer loop
      vertex 112.378 138.919 0.974999
      vertex 111.198 140.38 0.974999
      vertex 113.558 140.38 0.974999
    endloop
  endfacet
  facet normal 0 0 -1
    outer loop
      vertex 112.235 138.454 0.974999
      vertex 111.198 140.38 0.974999
      vertex 112.378 138.919 0.974999
    endloop
  endfacet
  facet normal 0 0 -1
    outer loop
      vertex 110.997 134.812 0.974999
      vertex 111.198 140.38 0.974999
      vertex 111.943 137.539 0.974999
    endloop
  endfacet
  facet normal 0 0 -1
    outer loop
      vertex 107.718 130.844 0.974999
      vertex 110.997 134.812 0.974999
      vertex 110.548 133.307 0.974999
    endloop
  endfacet
  facet normal 0 0 -1
    outer loop
      vertex 107.718 130.844 0.974999
      vertex 110.548 133.307 0.974999
      vertex 109.698 130.844 0.974999
    endloop
  endfacet
  facet normal -0 0 -1
    outer loop
      vertex 110.997 134.812 0.974999
      vertex 107.718 130.844 0.974999
      vertex 111.198 140.38 0.974999
    endloop
  endfacet
  facet normal 0 0 -1
    outer loop
      vertex 65.663 134.866 0.974999
      vertex 70.775 136.412 0.974999
      vertex 70.775 134.866 0.974999
    endloop
  endfacet
  facet normal -0 0 -1
    outer loop
      vertex 70.775 136.412 0.974999
      vertex 65.663 134.866 0.974999
      vertex 65.663 136.412 0.974999
    endloop
  endfacet
  facet normal 0 0 -1
    outer loop
      vertex 70.775 134.866 0.974999
      vertex 72.776 130.844 0.974999
      vertex 70.775 132.39 0.974999
    endloop
  endfacet
  facet normal 0 0 -1
    outer loop
      vertex 64.97 130.844 0.974999
      vertex 70.775 132.39 0.974999
      vertex 72.776 130.844 0.974999
    endloop
  endfacet
  facet normal -0 0 -1
    outer loop
      vertex 70.775 132.39 0.974999
      vertex 64.97 130.844 0.974999
      vertex 64.97 132.39 0.974999
    endloop
  endfacet
  facet normal 0 0 -1
    outer loop
      vertex 72.776 130.844 0.974999
      vertex 70.775 134.866 0.974999
      vertex 72.776 140.38 0.974999
    endloop
  endfacet
  facet normal 0 0 -1
    outer loop
      vertex 70.775 136.412 0.974999
      vertex 72.776 140.38 0.974999
      vertex 70.775 134.866 0.974999
    endloop
  endfacet
  facet normal 0 0 -1
    outer loop
      vertex 70.775 138.834 0.974999
      vertex 72.776 140.38 0.974999
      vertex 70.775 136.412 0.974999
    endloop
  endfacet
  facet normal 0 0 -1
    outer loop
      vertex 65.249 140.38 0.974999
      vertex 70.775 138.834 0.974999
      vertex 65.249 138.834 0.974999
    endloop
  endfacet
  facet normal 0 0 -1
    outer loop
      vertex 70.775 138.834 0.974999
      vertex 65.249 140.38 0.974999
      vertex 72.776 140.38 0.974999
    endloop
  endfacet
  facet normal 0 0 -1
    outer loop
      vertex 106.673 130.844 0.974999
      vertex 104.672 132.39 0.974999
      vertex 106.673 140.38 0.974999
    endloop
  endfacet
  facet normal 0 0 -1
    outer loop
      vertex 99.5225 130.844 0.974999
      vertex 104.672 132.39 0.974999
      vertex 106.673 130.844 0.974999
    endloop
  endfacet
  facet normal -0 0 -1
    outer loop
      vertex 104.672 132.39 0.974999
      vertex 99.5225 130.844 0.974999
      vertex 99.5225 132.39 0.974999
    endloop
  endfacet
  facet normal -0 0 -1
    outer loop
      vertex 106.673 140.38 0.974999
      vertex 104.672 132.39 0.974999
      vertex 104.672 140.38 0.974999
    endloop
  endfacet
  facet normal 0 0 -1
    outer loop
      vertex 87.0234 130.844 0.974999
      vertex 85.0224 130.844 0.974999
      vertex 87.0234 138.834 0.974999
    endloop
  endfacet
  facet normal 0 0 -1
    outer loop
      vertex 87.0234 138.834 0.974999
      vertex 90.1194 140.38 0.974999
      vertex 90.1194 138.834 0.974999
    endloop
  endfacet
  facet normal 0 0 -1
    outer loop
      vertex 85.0224 138.834 0.974999
      vertex 87.0234 138.834 0.974999
      vertex 85.0224 130.844 0.974999
    endloop
  endfacet
  facet normal 0 0 -1
    outer loop
      vertex 85.0224 138.834 0.974999
      vertex 90.1194 140.38 0.974999
      vertex 87.0234 138.834 0.974999
    endloop
  endfacet
  facet normal 0 0 -1
    outer loop
      vertex 81.9134 140.38 0.974999
      vertex 85.0224 138.834 0.974999
      vertex 81.9134 138.834 0.974999
    endloop
  endfacet
  facet normal 0 0 -1
    outer loop
      vertex 85.0224 138.834 0.974999
      vertex 81.9134 140.38 0.974999
      vertex 90.1194 140.38 0.974999
    endloop
  endfacet
  facet normal 0 0 -1
    outer loop
      vertex 91.2773 134.866 0.974999
      vertex 96.3893 136.412 0.974999
      vertex 96.3893 134.866 0.974999
    endloop
  endfacet
  facet normal -0 0 -1
    outer loop
      vertex 96.3893 136.412 0.974999
      vertex 91.2773 134.866 0.974999
      vertex 91.2773 136.412 0.974999
    endloop
  endfacet
  facet normal 0 0 -1
    outer loop
      vertex 96.3893 134.866 0.974999
      vertex 98.3903 130.844 0.974999
      vertex 96.3893 132.39 0.974999
    endloop
  endfacet
  facet normal 0 0 -1
    outer loop
      vertex 90.5843 130.844 0.974999
      vertex 96.3893 132.39 0.974999
      vertex 98.3903 130.844 0.974999
    endloop
  endfacet
  facet normal -0 0 -1
    outer loop
      vertex 96.3893 132.39 0.974999
      vertex 90.5843 130.844 0.974999
      vertex 90.5843 132.39 0.974999
    endloop
  endfacet
  facet normal 0 0 -1
    outer loop
      vertex 98.3903 130.844 0.974999
      vertex 96.3893 134.866 0.974999
      vertex 98.3903 140.38 0.974999
    endloop
  endfacet
  facet normal 0 0 -1
    outer loop
      vertex 96.3893 136.412 0.974999
      vertex 98.3903 140.38 0.974999
      vertex 96.3893 134.866 0.974999
    endloop
  endfacet
  facet normal 0 0 -1
    outer loop
      vertex 96.3893 138.834 0.974999
      vertex 98.3903 140.38 0.974999
      vertex 96.3893 136.412 0.974999
    endloop
  endfacet
  facet normal 0 0 -1
    outer loop
      vertex 90.8633 140.38 0.974999
      vertex 96.3893 138.834 0.974999
      vertex 90.8633 138.834 0.974999
    endloop
  endfacet
  facet normal 0 0 -1
    outer loop
      vertex 96.3893 138.834 0.974999
      vertex 90.8633 140.38 0.974999
      vertex 98.3903 140.38 0.974999
    endloop
  endfacet
  facet normal 0 0 -1
    outer loop
      vertex 78.7392 130.844 0.974999
      vertex 76.7382 130.844 0.974999
      vertex 78.7392 138.834 0.974999
    endloop
  endfacet
  facet normal 0 0 -1
    outer loop
      vertex 78.7392 138.834 0.974999
      vertex 81.8352 140.38 0.974999
      vertex 81.8352 138.834 0.974999
    endloop
  endfacet
  facet normal 0 0 -1
    outer loop
      vertex 76.7382 138.834 0.974999
      vertex 78.7392 138.834 0.974999
      vertex 76.7382 130.844 0.974999
    endloop
  endfacet
  facet normal 0 0 -1
    outer loop
      vertex 76.7382 138.834 0.974999
      vertex 81.8352 140.38 0.974999
      vertex 78.7392 138.834 0.974999
    endloop
  endfacet
  facet normal 0 0 -1
    outer loop
      vertex 73.6292 140.38 0.974999
      vertex 76.7382 138.834 0.974999
      vertex 73.6292 138.834 0.974999
    endloop
  endfacet
  facet normal 0 0 -1
    outer loop
      vertex 76.7382 138.834 0.974999
      vertex 73.6292 140.38 0.974999
      vertex 81.8352 140.38 0.974999
    endloop
  endfacet
  facet normal -0.976617 0.214986 0
    outer loop
      vertex 152.375 136.357 0
      vertex 152.594 137.353 0.974999
      vertex 152.594 137.353 0
    endloop
  endfacet
  facet normal -0.976617 0.214986 0
    outer loop
      vertex 152.594 137.353 0.974999
      vertex 152.375 136.357 0
      vertex 152.375 136.357 0.974999
    endloop
  endfacet
  facet normal -0.985071 0.172147 0
    outer loop
      vertex 152.594 137.353 0
      vertex 152.776 138.393 0.974999
      vertex 152.776 138.393 0
    endloop
  endfacet
  facet normal -0.985071 0.172147 0
    outer loop
      vertex 152.776 138.393 0.974999
      vertex 152.594 137.353 0
      vertex 152.594 137.353 0.974999
    endloop
  endfacet
  facet normal 0.98255 0.185999 0
    outer loop
      vertex 152.924 137.612 0.974999
      vertex 152.776 138.393 0
      vertex 152.776 138.393 0.974999
    endloop
  endfacet
  facet normal 0.98255 0.185999 0
    outer loop
      vertex 152.776 138.393 0
      vertex 152.924 137.612 0.974999
      vertex 152.924 137.612 0
    endloop
  endfacet
  facet normal 0.979458 0.201649 0
    outer loop
      vertex 153.041 137.043 0.974999
      vertex 152.924 137.612 0
      vertex 152.924 137.612 0.974999
    endloop
  endfacet
  facet normal 0.979458 0.201649 0
    outer loop
      vertex 152.924 137.612 0
      vertex 153.041 137.043 0.974999
      vertex 153.041 137.043 0
    endloop
  endfacet
  facet normal 0.974309 0.225217 0
    outer loop
      vertex 153.453 135.262 0.974999
      vertex 153.041 137.043 0
      vertex 153.041 137.043 0.974999
    endloop
  endfacet
  facet normal 0.974309 0.225217 0
    outer loop
      vertex 153.041 137.043 0
      vertex 153.453 135.262 0.974999
      vertex 153.453 135.262 0
    endloop
  endfacet
  facet normal 0.973722 0.227739 0
    outer loop
      vertex 154.486 130.844 0.974999
      vertex 153.453 135.262 0
      vertex 153.453 135.262 0.974999
    endloop
  endfacet
  facet normal 0.973722 0.227739 0
    outer loop
      vertex 153.453 135.262 0
      vertex 154.486 130.844 0.974999
      vertex 154.486 130.844 0
    endloop
  endfacet
  facet normal 0 1 -0
    outer loop
      vertex 156.86 130.844 0
      vertex 154.486 130.844 0.974999
      vertex 156.86 130.844 0.974999
    endloop
  endfacet
  facet normal 0 1 0
    outer loop
      vertex 154.486 130.844 0.974999
      vertex 156.86 130.844 0
      vertex 154.486 130.844 0
    endloop
  endfacet
  facet normal -0.968177 0.250268 0
    outer loop
      vertex 156.86 130.844 0
      vertex 159.325 140.38 0.974999
      vertex 159.325 140.38 0
    endloop
  endfacet
  facet normal -0.968177 0.250268 0
    outer loop
      vertex 159.325 140.38 0.974999
      vertex 156.86 130.844 0
      vertex 156.86 130.844 0.974999
    endloop
  endfacet
  facet normal 0 -1 0
    outer loop
      vertex 157.298 140.38 0
      vertex 159.325 140.38 0.974999
      vertex 157.298 140.38 0.974999
    endloop
  endfacet
  facet normal 0 -1 -0
    outer loop
      vertex 159.325 140.38 0.974999
      vertex 157.298 140.38 0
      vertex 159.325 140.38 0
    endloop
  endfacet
  facet normal 0.975579 -0.219649 0
    outer loop
      vertex 155.912 134.224 0.974999
      vertex 157.298 140.38 0
      vertex 157.298 140.38 0.974999
    endloop
  endfacet
  facet normal 0.975579 -0.219649 0
    outer loop
      vertex 157.298 140.38 0
      vertex 155.912 134.224 0.974999
      vertex 155.912 134.224 0
    endloop
  endfacet
  facet normal 0.978584 -0.205848 0
    outer loop
      vertex 155.599 132.736 0.974999
      vertex 155.912 134.224 0
      vertex 155.912 134.224 0.974999
    endloop
  endfacet
  facet normal 0.978584 -0.205848 0
    outer loop
      vertex 155.912 134.224 0
      vertex 155.599 132.736 0.974999
      vertex 155.599 132.736 0
    endloop
  endfacet
  facet normal -0.979814 -0.19991 0
    outer loop
      vertex 155.599 132.736 0
      vertex 155.411 133.655 0.974999
      vertex 155.411 133.655 0
    endloop
  endfacet
  facet normal -0.979814 -0.19991 0
    outer loop
      vertex 155.411 133.655 0.974999
      vertex 155.599 132.736 0
      vertex 155.599 132.736 0.974999
    endloop
  endfacet
  facet normal -0.979028 -0.203726 0
    outer loop
      vertex 155.411 133.655 0
      vertex 155.229 134.532 0.974999
      vertex 155.229 134.532 0
    endloop
  endfacet
  facet normal -0.979028 -0.203726 0
    outer loop
      vertex 155.229 134.532 0.974999
      vertex 155.411 133.655 0
      vertex 155.411 133.655 0.974999
    endloop
  endfacet
  facet normal -0.97522 -0.221236 0
    outer loop
      vertex 155.229 134.532 0
      vertex 154.8 136.422 0.974999
      vertex 154.8 136.422 0
    endloop
  endfacet
  facet normal -0.97522 -0.221236 0
    outer loop
      vertex 154.8 136.422 0.974999
      vertex 155.229 134.532 0
      vertex 155.229 134.532 0.974999
    endloop
  endfacet
  facet normal -0.973693 -0.227864 0
    outer loop
      vertex 154.8 136.422 0
      vertex 153.874 140.38 0.974999
      vertex 153.874 140.38 0
    endloop
  endfacet
  facet normal -0.973693 -0.227864 0
    outer loop
      vertex 153.874 140.38 0.974999
      vertex 154.8 136.422 0
      vertex 154.8 136.422 0.974999
    endloop
  endfacet
  facet normal 0 -1 0
    outer loop
      vertex 151.636 140.38 0
      vertex 153.874 140.38 0.974999
      vertex 151.636 140.38 0.974999
    endloop
  endfacet
  facet normal 0 -1 -0
    outer loop
      vertex 153.874 140.38 0.974999
      vertex 151.636 140.38 0
      vertex 153.874 140.38 0
    endloop
  endfacet
  facet normal 0.972757 -0.231829 0
    outer loop
      vertex 150.427 135.307 0.974999
      vertex 151.636 140.38 0
      vertex 151.636 140.38 0.974999
    endloop
  endfacet
  facet normal 0.972757 -0.231829 0
    outer loop
      vertex 151.636 140.38 0
      vertex 150.427 135.307 0.974999
      vertex 150.427 135.307 0
    endloop
  endfacet
  facet normal 0.979334 -0.202252 0
    outer loop
      vertex 150.235 134.38 0.974999
      vertex 150.427 135.307 0
      vertex 150.427 135.307 0.974999
    endloop
  endfacet
  facet normal 0.979334 -0.202252 0
    outer loop
      vertex 150.427 135.307 0
      vertex 150.235 134.38 0.974999
      vertex 150.235 134.38 0
    endloop
  endfacet
  facet normal 0.984738 -0.174041 0
    outer loop
      vertex 149.945 132.736 0.974999
      vertex 150.235 134.38 0
      vertex 150.235 134.38 0.974999
    endloop
  endfacet
  facet normal 0.984738 -0.174041 0
    outer loop
      vertex 150.235 134.38 0
      vertex 149.945 132.736 0.974999
      vertex 149.945 132.736 0
    endloop
  endfacet
  facet normal -0.977344 -0.211655 0
    outer loop
      vertex 149.945 132.736 0
      vertex 149.775 133.521 0.974999
      vertex 149.775 133.521 0
    endloop
  endfacet
  facet normal -0.977344 -0.211655 0
    outer loop
      vertex 149.775 133.521 0.974999
      vertex 149.945 132.736 0
      vertex 149.945 132.736 0.974999
    endloop
  endfacet
  facet normal -0.974264 -0.225409 0
    outer loop
      vertex 149.775 133.521 0
      vertex 149.415 135.077 0.974999
      vertex 149.415 135.077 0
    endloop
  endfacet
  facet normal -0.974264 -0.225409 0
    outer loop
      vertex 149.415 135.077 0.974999
      vertex 149.775 133.521 0
      vertex 149.775 133.521 0.974999
    endloop
  endfacet
  facet normal -0.977132 -0.212635 0
    outer loop
      vertex 149.415 135.077 0
      vertex 148.261 140.38 0.974999
      vertex 148.261 140.38 0
    endloop
  endfacet
  facet normal -0.977132 -0.212635 0
    outer loop
      vertex 148.261 140.38 0.974999
      vertex 149.415 135.077 0
      vertex 149.415 135.077 0.974999
    endloop
  endfacet
  facet normal 0 -1 0
    outer loop
      vertex 146.233 140.38 0
      vertex 148.261 140.38 0.974999
      vertex 146.233 140.38 0.974999
    endloop
  endfacet
  facet normal 0 -1 -0
    outer loop
      vertex 148.261 140.38 0.974999
      vertex 146.233 140.38 0
      vertex 148.261 140.38 0
    endloop
  endfacet
  facet normal 0.968029 0.250838 0
    outer loop
      vertex 148.704 130.844 0.974999
      vertex 146.233 140.38 0
      vertex 146.233 140.38 0.974999
    endloop
  endfacet
  facet normal 0.968029 0.250838 0
    outer loop
      vertex 146.233 140.38 0
      vertex 148.704 130.844 0.974999
      vertex 148.704 130.844 0
    endloop
  endfacet
  facet normal 0 1 -0
    outer loop
      vertex 151.077 130.844 0
      vertex 148.704 130.844 0.974999
      vertex 151.077 130.844 0.974999
    endloop
  endfacet
  facet normal 0 1 0
    outer loop
      vertex 148.704 130.844 0.974999
      vertex 151.077 130.844 0
      vertex 148.704 130.844 0
    endloop
  endfacet
  facet normal -0.973384 0.229178 0
    outer loop
      vertex 151.077 130.844 0
      vertex 152.375 136.357 0.974999
      vertex 152.375 136.357 0
    endloop
  endfacet
  facet normal -0.973384 0.229178 0
    outer loop
      vertex 152.375 136.357 0.974999
      vertex 151.077 130.844 0
      vertex 151.077 130.844 0.974999
    endloop
  endfacet
  facet normal 0 -1 0
    outer loop
      vertex 138.08 140.38 0
      vertex 145.607 140.38 0.974999
      vertex 138.08 140.38 0.974999
    endloop
  endfacet
  facet normal 0 -1 -0
    outer loop
      vertex 145.607 140.38 0.974999
      vertex 138.08 140.38 0
      vertex 145.607 140.38 0
    endloop
  endfacet
  facet normal 1 -0 0
    outer loop
      vertex 138.08 138.834 0.974999
      vertex 138.08 140.38 0
      vertex 138.08 140.38 0.974999
    endloop
  endfacet
  facet normal 1 0 0
    outer loop
      vertex 138.08 140.38 0
      vertex 138.08 138.834 0.974999
      vertex 138.08 138.834 0
    endloop
  endfacet
  facet normal 0 1 -0
    outer loop
      vertex 143.606 138.834 0
      vertex 138.08 138.834 0.974999
      vertex 143.606 138.834 0.974999
    endloop
  endfacet
  facet normal 0 1 0
    outer loop
      vertex 138.08 138.834 0.974999
      vertex 143.606 138.834 0
      vertex 138.08 138.834 0
    endloop
  endfacet
  facet normal 1 -0 0
    outer loop
      vertex 143.606 136.412 0.974999
      vertex 143.606 138.834 0
      vertex 143.606 138.834 0.974999
    endloop
  endfacet
  facet normal 1 0 0
    outer loop
      vertex 143.606 138.834 0
      vertex 143.606 136.412 0.974999
      vertex 143.606 136.412 0
    endloop
  endfacet
  facet normal 0 -1 0
    outer loop
      vertex 138.494 136.412 0
      vertex 143.606 136.412 0.974999
      vertex 138.494 136.412 0.974999
    endloop
  endfacet
  facet normal 0 -1 -0
    outer loop
      vertex 143.606 136.412 0.974999
      vertex 138.494 136.412 0
      vertex 143.606 136.412 0
    endloop
  endfacet
  facet normal 1 -0 0
    outer loop
      vertex 138.494 134.866 0.974999
      vertex 138.494 136.412 0
      vertex 138.494 136.412 0.974999
    endloop
  endfacet
  facet normal 1 0 0
    outer loop
      vertex 138.494 136.412 0
      vertex 138.494 134.866 0.974999
      vertex 138.494 134.866 0
    endloop
  endfacet
  facet normal 0 1 -0
    outer loop
      vertex 143.606 134.866 0
      vertex 138.494 134.866 0.974999
      vertex 143.606 134.866 0.974999
    endloop
  endfacet
  facet normal 0 1 0
    outer loop
      vertex 138.494 134.866 0.974999
      vertex 143.606 134.866 0
      vertex 138.494 134.866 0
    endloop
  endfacet
  facet normal 1 -0 0
    outer loop
      vertex 143.606 132.39 0.974999
      vertex 143.606 134.866 0
      vertex 143.606 134.866 0.974999
    endloop
  endfacet
  facet normal 1 0 0
    outer loop
      vertex 143.606 134.866 0
      vertex 143.606 132.39 0.974999
      vertex 143.606 132.39 0
    endloop
  endfacet
  facet normal 0 -1 0
    outer loop
      vertex 137.801 132.39 0
      vertex 143.606 132.39 0.974999
      vertex 137.801 132.39 0.974999
    endloop
  endfacet
  facet normal 0 -1 -0
    outer loop
      vertex 143.606 132.39 0.974999
      vertex 137.801 132.39 0
      vertex 143.606 132.39 0
    endloop
  endfacet
  facet normal 1 -0 0
    outer loop
      vertex 137.801 130.844 0.974999
      vertex 137.801 132.39 0
      vertex 137.801 132.39 0.974999
    endloop
  endfacet
  facet normal 1 0 0
    outer loop
      vertex 137.801 132.39 0
      vertex 137.801 130.844 0.974999
      vertex 137.801 130.844 0
    endloop
  endfacet
  facet normal 0 1 -0
    outer loop
      vertex 145.607 130.844 0
      vertex 137.801 130.844 0.974999
      vertex 145.607 130.844 0.974999
    endloop
  endfacet
  facet normal 0 1 0
    outer loop
      vertex 137.801 130.844 0.974999
      vertex 145.607 130.844 0
      vertex 137.801 130.844 0
    endloop
  endfacet
  facet normal -1 0 0
    outer loop
      vertex 145.607 130.844 0
      vertex 145.607 140.38 0.974999
      vertex 145.607 140.38 0
    endloop
  endfacet
  facet normal -1 -0 0
    outer loop
      vertex 145.607 140.38 0.974999
      vertex 145.607 130.844 0
      vertex 145.607 130.844 0.974999
    endloop
  endfacet
  facet normal 0 1 -0
    outer loop
      vertex 137.336 138.834 0
      vertex 134.24 138.834 0.974999
      vertex 137.336 138.834 0.974999
    endloop
  endfacet
  facet normal 0 1 0
    outer loop
      vertex 134.24 138.834 0.974999
      vertex 137.336 138.834 0
      vertex 134.24 138.834 0
    endloop
  endfacet
  facet normal -1 0 0
    outer loop
      vertex 137.336 138.834 0
      vertex 137.336 140.38 0.974999
      vertex 137.336 140.38 0
    endloop
  endfacet
  facet normal -1 -0 0
    outer loop
      vertex 137.336 140.38 0.974999
      vertex 137.336 138.834 0
      vertex 137.336 138.834 0.974999
    endloop
  endfacet
  facet normal 0 -1 0
    outer loop
      vertex 129.13 140.38 0
      vertex 137.336 140.38 0.974999
      vertex 129.13 140.38 0.974999
    endloop
  endfacet
  facet normal 0 -1 -0
    outer loop
      vertex 137.336 140.38 0.974999
      vertex 129.13 140.38 0
      vertex 137.336 140.38 0
    endloop
  endfacet
  facet normal 1 -0 0
    outer loop
      vertex 129.13 138.834 0.974999
      vertex 129.13 140.38 0
      vertex 129.13 140.38 0.974999
    endloop
  endfacet
  facet normal 1 0 0
    outer loop
      vertex 129.13 140.38 0
      vertex 129.13 138.834 0.974999
      vertex 129.13 138.834 0
    endloop
  endfacet
  facet normal 0 1 -0
    outer loop
      vertex 132.239 138.834 0
      vertex 129.13 138.834 0.974999
      vertex 132.239 138.834 0.974999
    endloop
  endfacet
  facet normal 0 1 0
    outer loop
      vertex 129.13 138.834 0.974999
      vertex 132.239 138.834 0
      vertex 129.13 138.834 0
    endloop
  endfacet
  facet normal 1 -0 0
    outer loop
      vertex 132.239 130.844 0.974999
      vertex 132.239 138.834 0
      vertex 132.239 138.834 0.974999
    endloop
  endfacet
  facet normal 1 0 0
    outer loop
      vertex 132.239 138.834 0
      vertex 132.239 130.844 0.974999
      vertex 132.239 130.844 0
    endloop
  endfacet
  facet normal 0 1 -0
    outer loop
      vertex 134.24 130.844 0
      vertex 132.239 130.844 0.974999
      vertex 134.24 130.844 0.974999
    endloop
  endfacet
  facet normal 0 1 0
    outer loop
      vertex 132.239 130.844 0.974999
      vertex 134.24 130.844 0
      vertex 132.239 130.844 0
    endloop
  endfacet
  facet normal -1 0 0
    outer loop
      vertex 134.24 130.844 0
      vertex 134.24 138.834 0.974999
      vertex 134.24 138.834 0
    endloop
  endfacet
  facet normal -1 -0 0
    outer loop
      vertex 134.24 138.834 0.974999
      vertex 134.24 130.844 0
      vertex 134.24 130.844 0.974999
    endloop
  endfacet
  facet normal 0 -1 0
    outer loop
      vertex 120.208 140.38 0
      vertex 124.508 140.38 0.974999
      vertex 120.208 140.38 0.974999
    endloop
  endfacet
  facet normal 0 -1 -0
    outer loop
      vertex 124.508 140.38 0.974999
      vertex 120.208 140.38 0
      vertex 124.508 140.38 0
    endloop
  endfacet
  facet normal 0.129086 -0.991633 0
    outer loop
      vertex 118.687 140.182 0
      vertex 120.208 140.38 0.974999
      vertex 118.687 140.182 0.974999
    endloop
  endfacet
  facet normal 0.129086 -0.991633 0
    outer loop
      vertex 120.208 140.38 0.974999
      vertex 118.687 140.182 0
      vertex 120.208 140.38 0
    endloop
  endfacet
  facet normal 0.466918 -0.884301 0
    outer loop
      vertex 117.562 139.588 0
      vertex 118.687 140.182 0.974999
      vertex 117.562 139.588 0.974999
    endloop
  endfacet
  facet normal 0.466918 -0.884301 0
    outer loop
      vertex 118.687 140.182 0.974999
      vertex 117.562 139.588 0
      vertex 118.687 140.182 0
    endloop
  endfacet
  facet normal 0.808825 -0.58805 0
    outer loop
      vertex 116.867 138.631 0.974999
      vertex 117.562 139.588 0
      vertex 117.562 139.588 0.974999
    endloop
  endfacet
  facet normal 0.808825 -0.58805 0
    outer loop
      vertex 117.562 139.588 0
      vertex 116.867 138.631 0.974999
      vertex 116.867 138.631 0
    endloop
  endfacet
  facet normal 0.984117 -0.177521 0
    outer loop
      vertex 116.635 137.347 0.974999
      vertex 116.867 138.631 0
      vertex 116.867 138.631 0.974999
    endloop
  endfacet
  facet normal 0.984117 -0.177521 0
    outer loop
      vertex 116.867 138.631 0
      vertex 116.635 137.347 0.974999
      vertex 116.635 137.347 0
    endloop
  endfacet
  facet normal 0.99281 0.119704 0
    outer loop
      vertex 116.741 136.472 0.974999
      vertex 116.635 137.347 0
      vertex 116.635 137.347 0.974999
    endloop
  endfacet
  facet normal 0.99281 0.119704 0
    outer loop
      vertex 116.635 137.347 0
      vertex 116.741 136.472 0.974999
      vertex 116.741 136.472 0
    endloop
  endfacet
  facet normal 0.926115 0.377241 0
    outer loop
      vertex 117.057 135.695 0.974999
      vertex 116.741 136.472 0
      vertex 116.741 136.472 0.974999
    endloop
  endfacet
  facet normal 0.926115 0.377241 0
    outer loop
      vertex 116.741 136.472 0
      vertex 117.057 135.695 0.974999
      vertex 117.057 135.695 0
    endloop
  endfacet
  facet normal 0.783117 0.621875 0
    outer loop
      vertex 117.569 135.05 0.974999
      vertex 117.057 135.695 0
      vertex 117.057 135.695 0.974999
    endloop
  endfacet
  facet normal 0.783117 0.621875 0
    outer loop
      vertex 117.057 135.695 0
      vertex 117.569 135.05 0.974999
      vertex 117.569 135.05 0
    endloop
  endfacet
  facet normal 0.569032 0.822315 -0
    outer loop
      vertex 118.263 134.57 0
      vertex 117.569 135.05 0.974999
      vertex 118.263 134.57 0.974999
    endloop
  endfacet
  facet normal 0.569032 0.822315 0
    outer loop
      vertex 117.569 135.05 0.974999
      vertex 118.263 134.57 0
      vertex 117.569 135.05 0
    endloop
  endfacet
  facet normal 0.328336 0.944561 -0
    outer loop
      vertex 119.122 134.271 0
      vertex 118.263 134.57 0.974999
      vertex 119.122 134.271 0.974999
    endloop
  endfacet
  facet normal 0.328336 0.944561 0
    outer loop
      vertex 118.263 134.57 0.974999
      vertex 119.122 134.271 0
      vertex 118.263 134.57 0
    endloop
  endfacet
  facet normal 0.098404 0.995147 -0
    outer loop
      vertex 120.128 134.172 0
      vertex 119.122 134.271 0.974999
      vertex 120.128 134.172 0.974999
    endloop
  endfacet
  facet normal 0.098404 0.995147 0
    outer loop
      vertex 119.122 134.271 0.974999
      vertex 120.128 134.172 0
      vertex 119.122 134.271 0
    endloop
  endfacet
  facet normal 0 1 -0
    outer loop
      vertex 122.507 134.172 0
      vertex 120.128 134.172 0.974999
      vertex 122.507 134.172 0.974999
    endloop
  endfacet
  facet normal 0 1 0
    outer loop
      vertex 120.128 134.172 0.974999
      vertex 122.507 134.172 0
      vertex 120.128 134.172 0
    endloop
  endfacet
  facet normal 1 -0 0
    outer loop
      vertex 122.507 130.844 0.974999
      vertex 122.507 134.172 0
      vertex 122.507 134.172 0.974999
    endloop
  endfacet
  facet normal 1 0 0
    outer loop
      vertex 122.507 134.172 0
      vertex 122.507 130.844 0.974999
      vertex 122.507 130.844 0
    endloop
  endfacet
  facet normal 0 1 -0
    outer loop
      vertex 124.508 130.844 0
      vertex 122.507 130.844 0.974999
      vertex 124.508 130.844 0.974999
    endloop
  endfacet
  facet normal 0 1 0
    outer loop
      vertex 122.507 130.844 0.974999
      vertex 124.508 130.844 0
      vertex 122.507 130.844 0
    endloop
  endfacet
  facet normal -1 0 0
    outer loop
      vertex 124.508 130.844 0
      vertex 124.508 140.38 0.974999
      vertex 124.508 140.38 0
    endloop
  endfacet
  facet normal -1 -0 0
    outer loop
      vertex 124.508 140.38 0.974999
      vertex 124.508 130.844 0
      vertex 124.508 130.844 0.974999
    endloop
  endfacet
  facet normal -0.138821 -0.990318 0
    outer loop
      vertex 119.644 135.814 0
      vertex 120.378 135.711 0.974999
      vertex 119.644 135.814 0.974999
    endloop
  endfacet
  facet normal -0.138821 -0.990318 -0
    outer loop
      vertex 120.378 135.711 0.974999
      vertex 119.644 135.814 0
      vertex 120.378 135.711 0
    endloop
  endfacet
  facet normal -0.493735 -0.869613 0
    outer loop
      vertex 119.099 136.123 0
      vertex 119.644 135.814 0.974999
      vertex 119.099 136.123 0.974999
    endloop
  endfacet
  facet normal -0.493735 -0.869613 -0
    outer loop
      vertex 119.644 135.814 0.974999
      vertex 119.099 136.123 0
      vertex 119.644 135.814 0
    endloop
  endfacet
  facet normal -0.831481 -0.555554 0
    outer loop
      vertex 119.099 136.123 0
      vertex 118.763 136.627 0.974999
      vertex 118.763 136.627 0
    endloop
  endfacet
  facet normal -0.831481 -0.555554 0
    outer loop
      vertex 118.763 136.627 0.974999
      vertex 119.099 136.123 0
      vertex 119.099 136.123 0.974999
    endloop
  endfacet
  facet normal -0.986877 -0.161472 0
    outer loop
      vertex 118.763 136.627 0
      vertex 118.65 137.313 0.974999
      vertex 118.65 137.313 0
    endloop
  endfacet
  facet normal -0.986877 -0.161472 0
    outer loop
      vertex 118.65 137.313 0.974999
      vertex 118.763 136.627 0
      vertex 118.763 136.627 0.974999
    endloop
  endfacet
  facet normal -0.930917 0.365231 0
    outer loop
      vertex 118.65 137.313 0
      vertex 119.096 138.448 0.974999
      vertex 119.096 138.448 0
    endloop
  endfacet
  facet normal -0.930917 0.365231 0
    outer loop
      vertex 119.096 138.448 0.974999
      vertex 118.65 137.313 0
      vertex 118.65 137.313 0.974999
    endloop
  endfacet
  facet normal -0.272482 0.962161 0
    outer loop
      vertex 120.432 138.827 0
      vertex 119.096 138.448 0.974999
      vertex 120.432 138.827 0.974999
    endloop
  endfacet
  facet normal -0.272482 0.962161 0
    outer loop
      vertex 119.096 138.448 0.974999
      vertex 120.432 138.827 0
      vertex 119.096 138.448 0
    endloop
  endfacet
  facet normal 0 1 -0
    outer loop
      vertex 122.507 138.827 0
      vertex 120.432 138.827 0.974999
      vertex 122.507 138.827 0.974999
    endloop
  endfacet
  facet normal 0 1 0
    outer loop
      vertex 120.432 138.827 0.974999
      vertex 122.507 138.827 0
      vertex 120.432 138.827 0
    endloop
  endfacet
  facet normal 1 -0 0
    outer loop
      vertex 122.507 135.711 0.974999
      vertex 122.507 138.827 0
      vertex 122.507 138.827 0.974999
    endloop
  endfacet
  facet normal 1 0 0
    outer loop
      vertex 122.507 138.827 0
      vertex 122.507 135.711 0.974999
      vertex 122.507 135.711 0
    endloop
  endfacet
  facet normal 0 -1 0
    outer loop
      vertex 120.378 135.711 0
      vertex 122.507 135.711 0.974999
      vertex 120.378 135.711 0.974999
    endloop
  endfacet
  facet normal 0 -1 -0
    outer loop
      vertex 122.507 135.711 0.974999
      vertex 120.378 135.711 0
      vertex 122.507 135.711 0
    endloop
  endfacet
  facet normal 0 -1 0
    outer loop
      vertex 65.249 140.38 0
      vertex 72.776 140.38 0.974999
      vertex 65.249 140.38 0.974999
    endloop
  endfacet
  facet normal 0 -1 -0
    outer loop
      vertex 72.776 140.38 0.974999
      vertex 65.249 140.38 0
      vertex 72.776 140.38 0
    endloop
  endfacet
  facet normal 1 -0 0
    outer loop
      vertex 65.249 138.834 0.974999
      vertex 65.249 140.38 0
      vertex 65.249 140.38 0.974999
    endloop
  endfacet
  facet normal 1 0 0
    outer loop
      vertex 65.249 140.38 0
      vertex 65.249 138.834 0.974999
      vertex 65.249 138.834 0
    endloop
  endfacet
  facet normal 0 1 -0
    outer loop
      vertex 70.775 138.834 0
      vertex 65.249 138.834 0.974999
      vertex 70.775 138.834 0.974999
    endloop
  endfacet
  facet normal 0 1 0
    outer loop
      vertex 65.249 138.834 0.974999
      vertex 70.775 138.834 0
      vertex 65.249 138.834 0
    endloop
  endfacet
  facet normal 1 -0 0
    outer loop
      vertex 70.775 136.412 0.974999
      vertex 70.775 138.834 0
      vertex 70.775 138.834 0.974999
    endloop
  endfacet
  facet normal 1 0 0
    outer loop
      vertex 70.775 138.834 0
      vertex 70.775 136.412 0.974999
      vertex 70.775 136.412 0
    endloop
  endfacet
  facet normal 0 -1 0
    outer loop
      vertex 65.663 136.412 0
      vertex 70.775 136.412 0.974999
      vertex 65.663 136.412 0.974999
    endloop
  endfacet
  facet normal 0 -1 -0
    outer loop
      vertex 70.775 136.412 0.974999
      vertex 65.663 136.412 0
      vertex 70.775 136.412 0
    endloop
  endfacet
  facet normal 1 -0 0
    outer loop
      vertex 65.663 134.866 0.974999
      vertex 65.663 136.412 0
      vertex 65.663 136.412 0.974999
    endloop
  endfacet
  facet normal 1 0 0
    outer loop
      vertex 65.663 136.412 0
      vertex 65.663 134.866 0.974999
      vertex 65.663 134.866 0
    endloop
  endfacet
  facet normal 0 1 -0
    outer loop
      vertex 70.775 134.866 0
      vertex 65.663 134.866 0.974999
      vertex 70.775 134.866 0.974999
    endloop
  endfacet
  facet normal 0 1 0
    outer loop
      vertex 65.663 134.866 0.974999
      vertex 70.775 134.866 0
      vertex 65.663 134.866 0
    endloop
  endfacet
  facet normal 1 -0 0
    outer loop
      vertex 70.775 132.39 0.974999
      vertex 70.775 134.866 0
      vertex 70.775 134.866 0.974999
    endloop
  endfacet
  facet normal 1 0 0
    outer loop
      vertex 70.775 134.866 0
      vertex 70.775 132.39 0.974999
      vertex 70.775 132.39 0
    endloop
  endfacet
  facet normal 0 -1 0
    outer loop
      vertex 64.97 132.39 0
      vertex 70.775 132.39 0.974999
      vertex 64.97 132.39 0.974999
    endloop
  endfacet
  facet normal 0 -1 -0
    outer loop
      vertex 70.775 132.39 0.974999
      vertex 64.97 132.39 0
      vertex 70.775 132.39 0
    endloop
  endfacet
  facet normal 1 -0 0
    outer loop
      vertex 64.97 130.844 0.974999
      vertex 64.97 132.39 0
      vertex 64.97 132.39 0.974999
    endloop
  endfacet
  facet normal 1 0 0
    outer loop
      vertex 64.97 132.39 0
      vertex 64.97 130.844 0.974999
      vertex 64.97 130.844 0
    endloop
  endfacet
  facet normal 0 1 -0
    outer loop
      vertex 72.776 130.844 0
      vertex 64.97 130.844 0.974999
      vertex 72.776 130.844 0.974999
    endloop
  endfacet
  facet normal 0 1 0
    outer loop
      vertex 64.97 130.844 0.974999
      vertex 72.776 130.844 0
      vertex 64.97 130.844 0
    endloop
  endfacet
  facet normal -1 0 0
    outer loop
      vertex 72.776 130.844 0
      vertex 72.776 140.38 0.974999
      vertex 72.776 140.38 0
    endloop
  endfacet
  facet normal -1 -0 0
    outer loop
      vertex 72.776 140.38 0.974999
      vertex 72.776 130.844 0
      vertex 72.776 130.844 0.974999
    endloop
  endfacet
  facet normal 0 1 -0
    outer loop
      vertex 114.202 133.307 0
      vertex 110.548 133.307 0.974999
      vertex 114.202 133.307 0.974999
    endloop
  endfacet
  facet normal 0 1 0
    outer loop
      vertex 110.548 133.307 0.974999
      vertex 114.202 133.307 0
      vertex 110.548 133.307 0
    endloop
  endfacet
  facet normal 0.945174 0.326568 0
    outer loop
      vertex 115.053 130.844 0.974999
      vertex 114.202 133.307 0
      vertex 114.202 133.307 0.974999
    endloop
  endfacet
  facet normal 0.945174 0.326568 0
    outer loop
      vertex 114.202 133.307 0
      vertex 115.053 130.844 0.974999
      vertex 115.053 130.844 0
    endloop
  endfacet
  facet normal 0 1 -0
    outer loop
      vertex 117.053 130.844 0
      vertex 115.053 130.844 0.974999
      vertex 117.053 130.844 0.974999
    endloop
  endfacet
  facet normal 0 1 0
    outer loop
      vertex 115.053 130.844 0.974999
      vertex 117.053 130.844 0
      vertex 115.053 130.844 0
    endloop
  endfacet
  facet normal -0.938925 -0.344121 0
    outer loop
      vertex 117.053 130.844 0
      vertex 113.558 140.38 0.974999
      vertex 113.558 140.38 0
    endloop
  endfacet
  facet normal -0.938925 -0.344121 0
    outer loop
      vertex 113.558 140.38 0.974999
      vertex 117.053 130.844 0
      vertex 117.053 130.844 0.974999
    endloop
  endfacet
  facet normal 0 -1 0
    outer loop
      vertex 111.198 140.38 0
      vertex 113.558 140.38 0.974999
      vertex 111.198 140.38 0.974999
    endloop
  endfacet
  facet normal 0 -1 -0
    outer loop
      vertex 113.558 140.38 0.974999
      vertex 111.198 140.38 0
      vertex 113.558 140.38 0
    endloop
  endfacet
  facet normal 0.939401 -0.34282 0
    outer loop
      vertex 107.718 130.844 0.974999
      vertex 111.198 140.38 0
      vertex 111.198 140.38 0.974999
    endloop
  endfacet
  facet normal 0.939401 -0.34282 0
    outer loop
      vertex 111.198 140.38 0
      vertex 107.718 130.844 0.974999
      vertex 107.718 130.844 0
    endloop
  endfacet
  facet normal 0 1 -0
    outer loop
      vertex 109.698 130.844 0
      vertex 107.718 130.844 0.974999
      vertex 109.698 130.844 0.974999
    endloop
  endfacet
  facet normal 0 1 0
    outer loop
      vertex 107.718 130.844 0.974999
      vertex 109.698 130.844 0
      vertex 107.718 130.844 0
    endloop
  endfacet
  facet normal -0.945293 0.326223 0
    outer loop
      vertex 109.698 130.844 0
      vertex 110.548 133.307 0.974999
      vertex 110.548 133.307 0
    endloop
  endfacet
  facet normal -0.945293 0.326223 0
    outer loop
      vertex 110.548 133.307 0.974999
      vertex 109.698 130.844 0
      vertex 109.698 130.844 0.974999
    endloop
  endfacet
  facet normal -0.944767 0.327742 0
    outer loop
      vertex 110.997 134.812 0
      vertex 111.943 137.539 0.974999
      vertex 111.943 137.539 0
    endloop
  endfacet
  facet normal -0.944767 0.327742 0
    outer loop
      vertex 111.943 137.539 0.974999
      vertex 110.997 134.812 0
      vertex 110.997 134.812 0.974999
    endloop
  endfacet
  facet normal -0.952667 0.304015 0
    outer loop
      vertex 111.943 137.539 0
      vertex 112.235 138.454 0.974999
      vertex 112.235 138.454 0
    endloop
  endfacet
  facet normal -0.952667 0.304015 0
    outer loop
      vertex 112.235 138.454 0.974999
      vertex 111.943 137.539 0
      vertex 111.943 137.539 0.974999
    endloop
  endfacet
  facet normal -0.955831 0.293916 0
    outer loop
      vertex 112.235 138.454 0
      vertex 112.378 138.919 0.974999
      vertex 112.378 138.919 0
    endloop
  endfacet
  facet normal -0.955831 0.293916 0
    outer loop
      vertex 112.378 138.919 0.974999
      vertex 112.235 138.454 0
      vertex 112.235 138.454 0.974999
    endloop
  endfacet
  facet normal 0.963708 0.266957 0
    outer loop
      vertex 112.419 138.771 0.974999
      vertex 112.378 138.919 0
      vertex 112.378 138.919 0.974999
    endloop
  endfacet
  facet normal 0.963708 0.266957 0
    outer loop
      vertex 112.378 138.919 0
      vertex 112.419 138.771 0.974999
      vertex 112.419 138.771 0
    endloop
  endfacet
  facet normal 0.960756 0.277396 0
    outer loop
      vertex 112.494 138.511 0.974999
      vertex 112.419 138.771 0
      vertex 112.419 138.771 0.974999
    endloop
  endfacet
  facet normal 0.960756 0.277396 0
    outer loop
      vertex 112.419 138.771 0
      vertex 112.494 138.511 0.974999
      vertex 112.494 138.511 0
    endloop
  endfacet
  facet normal 0.956895 0.290434 0
    outer loop
      vertex 112.583 138.218 0.974999
      vertex 112.494 138.511 0
      vertex 112.494 138.511 0.974999
    endloop
  endfacet
  facet normal 0.956895 0.290434 0
    outer loop
      vertex 112.494 138.511 0
      vertex 112.583 138.218 0.974999
      vertex 112.583 138.218 0
    endloop
  endfacet
  facet normal 0.947357 0.320178 0
    outer loop
      vertex 112.923 137.212 0.974999
      vertex 112.583 138.218 0
      vertex 112.583 138.218 0.974999
    endloop
  endfacet
  facet normal 0.947357 0.320178 0
    outer loop
      vertex 112.583 138.218 0
      vertex 112.923 137.212 0.974999
      vertex 112.923 137.212 0
    endloop
  endfacet
  facet normal 0.945079 0.326841 0
    outer loop
      vertex 113.753 134.812 0.974999
      vertex 112.923 137.212 0
      vertex 112.923 137.212 0.974999
    endloop
  endfacet
  facet normal 0.945079 0.326841 0
    outer loop
      vertex 112.923 137.212 0
      vertex 113.753 134.812 0.974999
      vertex 113.753 134.812 0
    endloop
  endfacet
  facet normal 0 -1 0
    outer loop
      vertex 110.997 134.812 0
      vertex 113.753 134.812 0.974999
      vertex 110.997 134.812 0.974999
    endloop
  endfacet
  facet normal 0 -1 -0
    outer loop
      vertex 113.753 134.812 0.974999
      vertex 110.997 134.812 0
      vertex 113.753 134.812 0
    endloop
  endfacet
  facet normal 0 -1 0
    outer loop
      vertex 104.672 140.38 0
      vertex 106.673 140.38 0.974999
      vertex 104.672 140.38 0.974999
    endloop
  endfacet
  facet normal 0 -1 -0
    outer loop
      vertex 106.673 140.38 0.974999
      vertex 104.672 140.38 0
      vertex 106.673 140.38 0
    endloop
  endfacet
  facet normal 1 -0 0
    outer loop
      vertex 104.672 132.39 0.974999
      vertex 104.672 140.38 0
      vertex 104.672 140.38 0.974999
    endloop
  endfacet
  facet normal 1 0 0
    outer loop
      vertex 104.672 140.38 0
      vertex 104.672 132.39 0.974999
      vertex 104.672 132.39 0
    endloop
  endfacet
  facet normal 0 -1 0
    outer loop
      vertex 99.5225 132.39 0
      vertex 104.672 132.39 0.974999
      vertex 99.5225 132.39 0.974999
    endloop
  endfacet
  facet normal 0 -1 -0
    outer loop
      vertex 104.672 132.39 0.974999
      vertex 99.5225 132.39 0
      vertex 104.672 132.39 0
    endloop
  endfacet
  facet normal 1 -0 0
    outer loop
      vertex 99.5225 130.844 0.974999
      vertex 99.5225 132.39 0
      vertex 99.5225 132.39 0.974999
    endloop
  endfacet
  facet normal 1 0 0
    outer loop
      vertex 99.5225 132.39 0
      vertex 99.5225 130.844 0.974999
      vertex 99.5225 130.844 0
    endloop
  endfacet
  facet normal 0 1 -0
    outer loop
      vertex 106.673 130.844 0
      vertex 99.5225 130.844 0.974999
      vertex 106.673 130.844 0.974999
    endloop
  endfacet
  facet normal 0 1 0
    outer loop
      vertex 99.5225 130.844 0.974999
      vertex 106.673 130.844 0
      vertex 99.5225 130.844 0
    endloop
  endfacet
  facet normal -1 0 0
    outer loop
      vertex 106.673 130.844 0
      vertex 106.673 140.38 0.974999
      vertex 106.673 140.38 0
    endloop
  endfacet
  facet normal -1 -0 0
    outer loop
      vertex 106.673 140.38 0.974999
      vertex 106.673 130.844 0
      vertex 106.673 130.844 0.974999
    endloop
  endfacet
  facet normal 0 -1 0
    outer loop
      vertex 90.8633 140.38 0
      vertex 98.3903 140.38 0.974999
      vertex 90.8633 140.38 0.974999
    endloop
  endfacet
  facet normal 0 -1 -0
    outer loop
      vertex 98.3903 140.38 0.974999
      vertex 90.8633 140.38 0
      vertex 98.3903 140.38 0
    endloop
  endfacet
  facet normal 1 -0 0
    outer loop
      vertex 90.8633 138.834 0.974999
      vertex 90.8633 140.38 0
      vertex 90.8633 140.38 0.974999
    endloop
  endfacet
  facet normal 1 0 0
    outer loop
      vertex 90.8633 140.38 0
      vertex 90.8633 138.834 0.974999
      vertex 90.8633 138.834 0
    endloop
  endfacet
  facet normal 0 1 -0
    outer loop
      vertex 96.3893 138.834 0
      vertex 90.8633 138.834 0.974999
      vertex 96.3893 138.834 0.974999
    endloop
  endfacet
  facet normal 0 1 0
    outer loop
      vertex 90.8633 138.834 0.974999
      vertex 96.3893 138.834 0
      vertex 90.8633 138.834 0
    endloop
  endfacet
  facet normal 1 -0 0
    outer loop
      vertex 96.3893 136.412 0.974999
      vertex 96.3893 138.834 0
      vertex 96.3893 138.834 0.974999
    endloop
  endfacet
  facet normal 1 0 0
    outer loop
      vertex 96.3893 138.834 0
      vertex 96.3893 136.412 0.974999
      vertex 96.3893 136.412 0
    endloop
  endfacet
  facet normal 0 -1 0
    outer loop
      vertex 91.2773 136.412 0
      vertex 96.3893 136.412 0.974999
      vertex 91.2773 136.412 0.974999
    endloop
  endfacet
  facet normal 0 -1 -0
    outer loop
      vertex 96.3893 136.412 0.974999
      vertex 91.2773 136.412 0
      vertex 96.3893 136.412 0
    endloop
  endfacet
  facet normal 1 -0 0
    outer loop
      vertex 91.2773 134.866 0.974999
      vertex 91.2773 136.412 0
      vertex 91.2773 136.412 0.974999
    endloop
  endfacet
  facet normal 1 0 0
    outer loop
      vertex 91.2773 136.412 0
      vertex 91.2773 134.866 0.974999
      vertex 91.2773 134.866 0
    endloop
  endfacet
  facet normal 0 1 -0
    outer loop
      vertex 96.3893 134.866 0
      vertex 91.2773 134.866 0.974999
      vertex 96.3893 134.866 0.974999
    endloop
  endfacet
  facet normal 0 1 0
    outer loop
      vertex 91.2773 134.866 0.974999
      vertex 96.3893 134.866 0
      vertex 91.2773 134.866 0
    endloop
  endfacet
  facet normal 1 -0 0
    outer loop
      vertex 96.3893 132.39 0.974999
      vertex 96.3893 134.866 0
      vertex 96.3893 134.866 0.974999
    endloop
  endfacet
  facet normal 1 0 0
    outer loop
      vertex 96.3893 134.866 0
      vertex 96.3893 132.39 0.974999
      vertex 96.3893 132.39 0
    endloop
  endfacet
  facet normal 0 -1 0
    outer loop
      vertex 90.5843 132.39 0
      vertex 96.3893 132.39 0.974999
      vertex 90.5843 132.39 0.974999
    endloop
  endfacet
  facet normal 0 -1 -0
    outer loop
      vertex 96.3893 132.39 0.974999
      vertex 90.5843 132.39 0
      vertex 96.3893 132.39 0
    endloop
  endfacet
  facet normal 1 -0 0
    outer loop
      vertex 90.5843 130.844 0.974999
      vertex 90.5843 132.39 0
      vertex 90.5843 132.39 0.974999
    endloop
  endfacet
  facet normal 1 0 0
    outer loop
      vertex 90.5843 132.39 0
      vertex 90.5843 130.844 0.974999
      vertex 90.5843 130.844 0
    endloop
  endfacet
  facet normal 0 1 -0
    outer loop
      vertex 98.3903 130.844 0
      vertex 90.5843 130.844 0.974999
      vertex 98.3903 130.844 0.974999
    endloop
  endfacet
  facet normal 0 1 0
    outer loop
      vertex 90.5843 130.844 0.974999
      vertex 98.3903 130.844 0
      vertex 90.5843 130.844 0
    endloop
  endfacet
  facet normal -1 0 0
    outer loop
      vertex 98.3903 130.844 0
      vertex 98.3903 140.38 0.974999
      vertex 98.3903 140.38 0
    endloop
  endfacet
  facet normal -1 -0 0
    outer loop
      vertex 98.3903 140.38 0.974999
      vertex 98.3903 130.844 0
      vertex 98.3903 130.844 0.974999
    endloop
  endfacet
  facet normal 0 1 -0
    outer loop
      vertex 90.1194 138.834 0
      vertex 87.0234 138.834 0.974999
      vertex 90.1194 138.834 0.974999
    endloop
  endfacet
  facet normal 0 1 0
    outer loop
      vertex 87.0234 138.834 0.974999
      vertex 90.1194 138.834 0
      vertex 87.0234 138.834 0
    endloop
  endfacet
  facet normal -1 0 0
    outer loop
      vertex 90.1194 138.834 0
      vertex 90.1194 140.38 0.974999
      vertex 90.1194 140.38 0
    endloop
  endfacet
  facet normal -1 -0 0
    outer loop
      vertex 90.1194 140.38 0.974999
      vertex 90.1194 138.834 0
      vertex 90.1194 138.834 0.974999
    endloop
  endfacet
  facet normal 0 -1 0
    outer loop
      vertex 81.9134 140.38 0
      vertex 90.1194 140.38 0.974999
      vertex 81.9134 140.38 0.974999
    endloop
  endfacet
  facet normal 0 -1 -0
    outer loop
      vertex 90.1194 140.38 0.974999
      vertex 81.9134 140.38 0
      vertex 90.1194 140.38 0
    endloop
  endfacet
  facet normal 1 -0 0
    outer loop
      vertex 81.9134 138.834 0.974999
      vertex 81.9134 140.38 0
      vertex 81.9134 140.38 0.974999
    endloop
  endfacet
  facet normal 1 0 0
    outer loop
      vertex 81.9134 140.38 0
      vertex 81.9134 138.834 0.974999
      vertex 81.9134 138.834 0
    endloop
  endfacet
  facet normal 0 1 -0
    outer loop
      vertex 85.0224 138.834 0
      vertex 81.9134 138.834 0.974999
      vertex 85.0224 138.834 0.974999
    endloop
  endfacet
  facet normal 0 1 0
    outer loop
      vertex 81.9134 138.834 0.974999
      vertex 85.0224 138.834 0
      vertex 81.9134 138.834 0
    endloop
  endfacet
  facet normal 1 -0 0
    outer loop
      vertex 85.0224 130.844 0.974999
      vertex 85.0224 138.834 0
      vertex 85.0224 138.834 0.974999
    endloop
  endfacet
  facet normal 1 0 0
    outer loop
      vertex 85.0224 138.834 0
      vertex 85.0224 130.844 0.974999
      vertex 85.0224 130.844 0
    endloop
  endfacet
  facet normal 0 1 -0
    outer loop
      vertex 87.0234 130.844 0
      vertex 85.0224 130.844 0.974999
      vertex 87.0234 130.844 0.974999
    endloop
  endfacet
  facet normal 0 1 0
    outer loop
      vertex 85.0224 130.844 0.974999
      vertex 87.0234 130.844 0
      vertex 85.0224 130.844 0
    endloop
  endfacet
  facet normal -1 0 0
    outer loop
      vertex 87.0234 130.844 0
      vertex 87.0234 138.834 0.974999
      vertex 87.0234 138.834 0
    endloop
  endfacet
  facet normal -1 -0 0
    outer loop
      vertex 87.0234 138.834 0.974999
      vertex 87.0234 130.844 0
      vertex 87.0234 130.844 0.974999
    endloop
  endfacet
  facet normal 0 1 -0
    outer loop
      vertex 81.8352 138.834 0
      vertex 78.7392 138.834 0.974999
      vertex 81.8352 138.834 0.974999
    endloop
  endfacet
  facet normal 0 1 0
    outer loop
      vertex 78.7392 138.834 0.974999
      vertex 81.8352 138.834 0
      vertex 78.7392 138.834 0
    endloop
  endfacet
  facet normal -1 0 0
    outer loop
      vertex 81.8352 138.834 0
      vertex 81.8352 140.38 0.974999
      vertex 81.8352 140.38 0
    endloop
  endfacet
  facet normal -1 -0 0
    outer loop
      vertex 81.8352 140.38 0.974999
      vertex 81.8352 138.834 0
      vertex 81.8352 138.834 0.974999
    endloop
  endfacet
  facet normal 0 -1 0
    outer loop
      vertex 73.6292 140.38 0
      vertex 81.8352 140.38 0.974999
      vertex 73.6292 140.38 0.974999
    endloop
  endfacet
  facet normal 0 -1 -0
    outer loop
      vertex 81.8352 140.38 0.974999
      vertex 73.6292 140.38 0
      vertex 81.8352 140.38 0
    endloop
  endfacet
  facet normal 1 -0 0
    outer loop
      vertex 73.6292 138.834 0.974999
      vertex 73.6292 140.38 0
      vertex 73.6292 140.38 0.974999
    endloop
  endfacet
  facet normal 1 0 0
    outer loop
      vertex 73.6292 140.38 0
      vertex 73.6292 138.834 0.974999
      vertex 73.6292 138.834 0
    endloop
  endfacet
  facet normal 0 1 -0
    outer loop
      vertex 76.7382 138.834 0
      vertex 73.6292 138.834 0.974999
      vertex 76.7382 138.834 0.974999
    endloop
  endfacet
  facet normal 0 1 0
    outer loop
      vertex 73.6292 138.834 0.974999
      vertex 76.7382 138.834 0
      vertex 73.6292 138.834 0
    endloop
  endfacet
  facet normal 1 -0 0
    outer loop
      vertex 76.7382 130.844 0.974999
      vertex 76.7382 138.834 0
      vertex 76.7382 138.834 0.974999
    endloop
  endfacet
  facet normal 1 0 0
    outer loop
      vertex 76.7382 138.834 0
      vertex 76.7382 130.844 0.974999
      vertex 76.7382 130.844 0
    endloop
  endfacet
  facet normal 0 1 -0
    outer loop
      vertex 78.7392 130.844 0
      vertex 76.7382 130.844 0.974999
      vertex 78.7392 130.844 0.974999
    endloop
  endfacet
  facet normal 0 1 0
    outer loop
      vertex 76.7382 130.844 0.974999
      vertex 78.7392 130.844 0
      vertex 76.7382 130.844 0
    endloop
  endfacet
  facet normal -1 0 0
    outer loop
      vertex 78.7392 130.844 0
      vertex 78.7392 138.834 0.974999
      vertex 78.7392 138.834 0
    endloop
  endfacet
  facet normal -1 -0 0
    outer loop
      vertex 78.7392 138.834 0.974999
      vertex 78.7392 130.844 0
      vertex 78.7392 130.844 0.974999
    endloop
  endfacet
  facet normal -1 0 0
    outer loop
      vertex 0 0 2.05
      vertex 0 89 10
      vertex 0 89 2.05
    endloop
  endfacet
  facet normal -1 -0 0
    outer loop
      vertex 0 89 10
      vertex 0 0 2.05
      vertex 0 0 10
    endloop
  endfacet
  facet normal 0 0 1
    outer loop
      vertex 223 88 17
      vertex 222 87 17
      vertex 223 1 17
    endloop
  endfacet
  facet normal 0 0 1
    outer loop
      vertex 223 88 17
      vertex 2 87 17
      vertex 222 87 17
    endloop
  endfacet
  facet normal 0 0 1
    outer loop
      vertex 2 87 17
      vertex 1 88 17
      vertex 2 2 17
    endloop
  endfacet
  facet normal -0 0 1
    outer loop
      vertex 1 88 17
      vertex 2 87 17
      vertex 223 88 17
    endloop
  endfacet
  facet normal -0 0 1
    outer loop
      vertex 222 2 17
      vertex 223 1 17
      vertex 222 87 17
    endloop
  endfacet
  facet normal -0 0 1
    outer loop
      vertex 2 2 17
      vertex 223 1 17
      vertex 222 2 17
    endloop
  endfacet
  facet normal 0 0 1
    outer loop
      vertex 2 2 17
      vertex 1 1 17
      vertex 223 1 17
    endloop
  endfacet
  facet normal 0 0 1
    outer loop
      vertex 1 1 17
      vertex 2 2 17
      vertex 1 88 17
    endloop
  endfacet
  facet normal 1 -0 0
    outer loop
      vertex 224 0 10
      vertex 224 89 2.05
      vertex 224 89 10
    endloop
  endfacet
  facet normal 1 0 0
    outer loop
      vertex 224 89 2.05
      vertex 224 0 10
      vertex 224 0 2.05
    endloop
  endfacet
  facet normal 0 0 -1
    outer loop
      vertex 1.1 1.1 0
      vertex 222.9 87.9 0
      vertex 222.9 1.1 0
    endloop
  endfacet
  facet normal -0 0 -1
    outer loop
      vertex 222.9 87.9 0
      vertex 1.1 1.1 0
      vertex 1.1 87.9 0
    endloop
  endfacet
  facet normal 0 -1 0
    outer loop
      vertex 0 0 2.05
      vertex 224 0 10
      vertex 0 0 10
    endloop
  endfacet
  facet normal 0 -1 -0
    outer loop
      vertex 224 0 10
      vertex 0 0 2.05
      vertex 224 0 2.05
    endloop
  endfacet
  facet normal 0 1 -0
    outer loop
      vertex 224 89 2.05
      vertex 0 89 10
      vertex 224 89 10
    endloop
  endfacet
  facet normal 0 1 0
    outer loop
      vertex 0 89 10
      vertex 224 89 2.05
      vertex 0 89 2.05
    endloop
  endfacet
  facet normal 1 -0 0
    outer loop
      vertex 2 2 17
      vertex 2 87 2
      vertex 2 87 17
    endloop
  endfacet
  facet normal 1 0 0
    outer loop
      vertex 2 87 2
      vertex 2 2 17
      vertex 2 2 2
    endloop
  endfacet
  facet normal -1 0 0
    outer loop
      vertex 222 2 2
      vertex 222 87 17
      vertex 222 87 2
    endloop
  endfacet
  facet normal -1 -0 0
    outer loop
      vertex 222 87 17
      vertex 222 2 2
      vertex 222 2 17
    endloop
  endfacet
  facet normal 0 -1 0
    outer loop
      vertex 2 87 2
      vertex 222 87 17
      vertex 2 87 17
    endloop
  endfacet
  facet normal 0 -1 -0
    outer loop
      vertex 222 87 17
      vertex 2 87 2
      vertex 222 87 2
    endloop
  endfacet
  facet normal -0 0 1
    outer loop
      vertex 2 87 2
      vertex 222 2 2
      vertex 222 87 2
    endloop
  endfacet
  facet normal 0 0 1
    outer loop
      vertex 222 2 2
      vertex 2 87 2
      vertex 2 2 2
    endloop
  endfacet
  facet normal 0 1 -0
    outer loop
      vertex 222 2 2
      vertex 2 2 17
      vertex 222 2 17
    endloop
  endfacet
  facet normal 0 1 0
    outer loop
      vertex 2 2 17
      vertex 222 2 2
      vertex 2 2 2
    endloop
  endfacet
  facet normal 0 -1 0
    outer loop
      vertex 1.1 1.1 0
      vertex 222.9 1.1 1.05
      vertex 1.1 1.1 1.05
    endloop
  endfacet
  facet normal 0 -1 -0
    outer loop
      vertex 222.9 1.1 1.05
      vertex 1.1 1.1 0
      vertex 222.9 1.1 0
    endloop
  endfacet
  facet normal -1 0 0
    outer loop
      vertex 1.1 1.1 0
      vertex 1.1 87.9 1.05
      vertex 1.1 87.9 0
    endloop
  endfacet
  facet normal -1 -0 0
    outer loop
      vertex 1.1 87.9 1.05
      vertex 1.1 1.1 0
      vertex 1.1 1.1 1.05
    endloop
  endfacet
  facet normal 0 1 -0
    outer loop
      vertex 222.9 87.9 0
      vertex 1.1 87.9 1.05
      vertex 222.9 87.9 1.05
    endloop
  endfacet
  facet normal 0 1 0
    outer loop
      vertex 1.1 87.9 1.05
      vertex 222.9 87.9 0
      vertex 1.1 87.9 0
    endloop
  endfacet
  facet normal 1 -0 0
    outer loop
      vertex 222.9 1.1 1.05
      vertex 222.9 87.9 0
      vertex 222.9 87.9 1.05
    endloop
  endfacet
  facet normal 1 0 0
    outer loop
      vertex 222.9 87.9 0
      vertex 222.9 1.1 1.05
      vertex 222.9 1.1 0
    endloop
  endfacet
  facet normal -0 -0.689655 -0.724138
    outer loop
      vertex 224 0 2.05
      vertex 0 0 2.05
      vertex 1.05 1.05 1.05
    endloop
  endfacet
  facet normal -0.689655 0 -0.724138
    outer loop
      vertex 0 0 2.05
      vertex 1.05 87.95 1.05
      vertex 1.05 1.05 1.05
    endloop
  endfacet
  facet normal -0.689655 0 -0.724138
    outer loop
      vertex 1.05 87.95 1.05
      vertex 0 0 2.05
      vertex 0 89 2.05
    endloop
  endfacet
  facet normal 0.689654 0 -0.724139
    outer loop
      vertex 222.95 1.05 1.05
      vertex 224 89 2.05
      vertex 224 0 2.05
    endloop
  endfacet
  facet normal 0.689654 0 -0.724139
    outer loop
      vertex 224 89 2.05
      vertex 222.95 1.05 1.05
      vertex 222.95 87.95 1.05
    endloop
  endfacet
  facet normal 0 0 -1
    outer loop
      vertex 222.95 1.05 1.05
      vertex 222.9 1.1 1.05
      vertex 222.95 87.95 1.05
    endloop
  endfacet
  facet normal 0 0 -1
    outer loop
      vertex 222.95 1.05 1.05
      vertex 1.1 1.1 1.05
      vertex 222.9 1.1 1.05
    endloop
  endfacet
  facet normal -0 0 -1
    outer loop
      vertex 1.1 1.1 1.05
      vertex 1.05 1.05 1.05
      vertex 1.1 87.9 1.05
    endloop
  endfacet
  facet normal 0 0 -1
    outer loop
      vertex 1.05 1.05 1.05
      vertex 1.1 1.1 1.05
      vertex 222.95 1.05 1.05
    endloop
  endfacet
  facet normal 0 0 -1
    outer loop
      vertex 222.9 87.9 1.05
      vertex 222.95 87.95 1.05
      vertex 222.9 1.1 1.05
    endloop
  endfacet
  facet normal 0 0 -1
    outer loop
      vertex 1.1 87.9 1.05
      vertex 222.95 87.95 1.05
      vertex 222.9 87.9 1.05
    endloop
  endfacet
  facet normal 0 0 -1
    outer loop
      vertex 1.1 87.9 1.05
      vertex 1.05 87.95 1.05
      vertex 222.95 87.95 1.05
    endloop
  endfacet
  facet normal 0 0 -1
    outer loop
      vertex 1.05 87.95 1.05
      vertex 1.1 87.9 1.05
      vertex 1.05 1.05 1.05
    endloop
  endfacet
  facet normal 2.96398e-09 -0.689655 -0.724138
    outer loop
      vertex 224 0 2.05
      vertex 1.05 1.05 1.05
      vertex 222.95 1.05 1.05
    endloop
  endfacet
  facet normal 0 0.689654 -0.724139
    outer loop
      vertex 1.05 87.95 1.05
      vertex 0 89 2.05
      vertex 222.95 87.95 1.05
    endloop
  endfacet
  facet normal 0 0.689654 -0.724139
    outer loop
      vertex 222.95 87.95 1.05
      vertex 0 89 2.05
      vertex 224 89 2.05
    endloop
  endfacet
  facet normal 0 0 1
    outer loop
      vertex 224 89 10
      vertex 223 88 10
      vertex 224 0 10
    endloop
  endfacet
  facet normal 0 0 1
    outer loop
      vertex 224 89 10
      vertex 1 88 10
      vertex 223 88 10
    endloop
  endfacet
  facet normal 0 0 1
    outer loop
      vertex 1 88 10
      vertex 0 89 10
      vertex 1 1 10
    endloop
  endfacet
  facet normal -0 0 1
    outer loop
      vertex 0 89 10
      vertex 1 88 10
      vertex 224 89 10
    endloop
  endfacet
  facet normal -0 0 1
    outer loop
      vertex 223 1 10
      vertex 224 0 10
      vertex 223 88 10
    endloop
  endfacet
  facet normal -0 0 1
    outer loop
      vertex 1 1 10
      vertex 224 0 10
      vertex 223 1 10
    endloop
  endfacet
  facet normal 0 0 1
    outer loop
      vertex 1 1 10
      vertex 0 0 10
      vertex 224 0 10
    endloop
  endfacet
  facet normal 0 0 1
    outer loop
      vertex 0 0 10
      vertex 1 1 10
      vertex 0 89 10
    endloop
  endfacet
  facet normal 0 -1 0
    outer loop
      vertex 1 1 10
      vertex 223 1 17
      vertex 1 1 17
    endloop
  endfacet
  facet normal 0 -1 -0
    outer loop
      vertex 223 1 17
      vertex 1 1 10
      vertex 223 1 10
    endloop
  endfacet
  facet normal -1 0 0
    outer loop
      vertex 1 1 10
      vertex 1 88 17
      vertex 1 88 10
    endloop
  endfacet
  facet normal -1 -0 0
    outer loop
      vertex 1 88 17
      vertex 1 1 10
      vertex 1 1 17
    endloop
  endfacet
  facet normal 0 1 -0
    outer loop
      vertex 223 88 10
      vertex 1 88 17
      vertex 223 88 17
    endloop
  endfacet
  facet normal 0 1 0
    outer loop
      vertex 1 88 17
      vertex 223 88 10
      vertex 1 88 10
    endloop
  endfacet
  facet normal 1 -0 0
    outer loop
      vertex 223 1 17
      vertex 223 88 10
      vertex 223 88 17
    endloop
  endfacet
  facet normal 1 0 0
    outer loop
      vertex 223 88 10
      vertex 223 1 17
      vertex 223 1 10
    endloop
  endfacet
endsolid OpenSCAD_Model
