solid OpenSCAD_Model
  facet normal -1 0 0
    outer loop
      vertex 0 100 0
      vertex 0 80 10
      vertex 0 100 10
    endloop
  endfacet
  facet normal -1 0 0
    outer loop
      vertex 0 80 10
      vertex 0 20 10
      vertex 0 80 13
    endloop
  endfacet
  facet normal -1 0 0
    outer loop
      vertex 0 100 0
      vertex 0 20 10
      vertex 0 80 10
    endloop
  endfacet
  facet normal -1 0 0
    outer loop
      vertex 0 0 0
      vertex 0 20 10
      vertex 0 100 0
    endloop
  endfacet
  facet normal -1 -0 0
    outer loop
      vertex 0 20 10
      vertex 0 0 0
      vertex 0 0 10
    endloop
  endfacet
  facet normal -1 -0 0
    outer loop
      vertex 0 80 13
      vertex 0 20 10
      vertex 0 20 13
    endloop
  endfacet
  facet normal -0 0 1
    outer loop
      vertex 189 80 13
      vertex 190 20 13
      vertex 190 80 13
    endloop
  endfacet
  facet normal 0 0 1
    outer loop
      vertex 190 20 13
      vertex 189 80 13
      vertex 189 20 13
    endloop
  endfacet
  facet normal -0 0 1
    outer loop
      vertex 38 100 13
      vertex 152 99 13
      vertex 152 100 13
    endloop
  endfacet
  facet normal 0 0 1
    outer loop
      vertex 152 99 13
      vertex 38 100 13
      vertex 38 99 13
    endloop
  endfacet
  facet normal -0 0 1
    outer loop
      vertex 0 80 13
      vertex 1 20 13
      vertex 1 80 13
    endloop
  endfacet
  facet normal 0 0 1
    outer loop
      vertex 1 20 13
      vertex 0 80 13
      vertex 0 20 13
    endloop
  endfacet
  facet normal -0 0 1
    outer loop
      vertex 38 1 13
      vertex 152 0 13
      vertex 152 1 13
    endloop
  endfacet
  facet normal 0 0 1
    outer loop
      vertex 152 0 13
      vertex 38 1 13
      vertex 38 0 13
    endloop
  endfacet
  facet normal -1 0 0
    outer loop
      vertex 38 0 10
      vertex 38 1 13
      vertex 38 1 10
    endloop
  endfacet
  facet normal -1 -0 0
    outer loop
      vertex 38 1 13
      vertex 38 0 10
      vertex 38 0 13
    endloop
  endfacet
  facet normal 0 0 1
    outer loop
      vertex 1 20 10
      vertex 0 20 10
      vertex 1 1 10
    endloop
  endfacet
  facet normal -0 0 1
    outer loop
      vertex 1 1 10
      vertex 38 0 10
      vertex 38 1 10
    endloop
  endfacet
  facet normal 0 0 1
    outer loop
      vertex 1 1 10
      vertex 0 0 10
      vertex 38 0 10
    endloop
  endfacet
  facet normal 0 0 1
    outer loop
      vertex 0 0 10
      vertex 1 1 10
      vertex 0 20 10
    endloop
  endfacet
  facet normal 0 -1 0
    outer loop
      vertex 0 0 0
      vertex 38 0 10
      vertex 0 0 10
    endloop
  endfacet
  facet normal 0 -1 -0
    outer loop
      vertex 38 0 10
      vertex 0 0 0
      vertex 152 0 10
    endloop
  endfacet
  facet normal 0 -1 0
    outer loop
      vertex 190 0 0
      vertex 152 0 10
      vertex 0 0 0
    endloop
  endfacet
  facet normal 0 -1 0
    outer loop
      vertex 152 0 10
      vertex 190 0 0
      vertex 190 0 10
    endloop
  endfacet
  facet normal 0 -1 0
    outer loop
      vertex 38 0 10
      vertex 152 0 13
      vertex 38 0 13
    endloop
  endfacet
  facet normal 0 -1 -0
    outer loop
      vertex 152 0 13
      vertex 38 0 10
      vertex 152 0 10
    endloop
  endfacet
  facet normal 0 -1 0
    outer loop
      vertex 0 20 10
      vertex 1 20 13
      vertex 0 20 13
    endloop
  endfacet
  facet normal 0 -1 -0
    outer loop
      vertex 1 20 13
      vertex 0 20 10
      vertex 1 20 10
    endloop
  endfacet
  facet normal 1 0 0
    outer loop
      vertex 190 80 13
      vertex 190 20 13
      vertex 190 80 10
    endloop
  endfacet
  facet normal 1 -0 0
    outer loop
      vertex 190 80 10
      vertex 190 100 0
      vertex 190 100 10
    endloop
  endfacet
  facet normal 1 0 0
    outer loop
      vertex 190 20 10
      vertex 190 80 10
      vertex 190 20 13
    endloop
  endfacet
  facet normal 1 0 0
    outer loop
      vertex 190 80 10
      vertex 190 20 10
      vertex 190 100 0
    endloop
  endfacet
  facet normal 1 0 0
    outer loop
      vertex 190 0 0
      vertex 190 20 10
      vertex 190 0 10
    endloop
  endfacet
  facet normal 1 0 0
    outer loop
      vertex 190 20 10
      vertex 190 0 0
      vertex 190 100 0
    endloop
  endfacet
  facet normal 1 -0 0
    outer loop
      vertex 152 0 13
      vertex 152 1 10
      vertex 152 1 13
    endloop
  endfacet
  facet normal 1 0 0
    outer loop
      vertex 152 1 10
      vertex 152 0 13
      vertex 152 0 10
    endloop
  endfacet
  facet normal 0 0 1
    outer loop
      vertex 189 1 10
      vertex 190 20 10
      vertex 189 20 10
    endloop
  endfacet
  facet normal 0 0 1
    outer loop
      vertex 190 20 10
      vertex 189 1 10
      vertex 190 0 10
    endloop
  endfacet
  facet normal 0 0 1
    outer loop
      vertex 152 0 10
      vertex 189 1 10
      vertex 152 1 10
    endloop
  endfacet
  facet normal 0 0 1
    outer loop
      vertex 189 1 10
      vertex 152 0 10
      vertex 190 0 10
    endloop
  endfacet
  facet normal 0 -1 0
    outer loop
      vertex 189 20 10
      vertex 190 20 13
      vertex 189 20 13
    endloop
  endfacet
  facet normal 0 -1 -0
    outer loop
      vertex 190 20 13
      vertex 189 20 10
      vertex 190 20 10
    endloop
  endfacet
  facet normal -1 0 0
    outer loop
      vertex 38 99 10
      vertex 38 100 13
      vertex 38 100 10
    endloop
  endfacet
  facet normal -1 -0 0
    outer loop
      vertex 38 100 13
      vertex 38 99 10
      vertex 38 99 13
    endloop
  endfacet
  facet normal 0 0 1
    outer loop
      vertex 38 100 10
      vertex 1 99 10
      vertex 38 99 10
    endloop
  endfacet
  facet normal -0 0 1
    outer loop
      vertex 0 100 10
      vertex 1 99 10
      vertex 38 100 10
    endloop
  endfacet
  facet normal 0 0 1
    outer loop
      vertex 0 80 10
      vertex 1 99 10
      vertex 0 100 10
    endloop
  endfacet
  facet normal 0 0 1
    outer loop
      vertex 1 99 10
      vertex 0 80 10
      vertex 1 80 10
    endloop
  endfacet
  facet normal 0 1 -0
    outer loop
      vertex 190 100 0
      vertex 152 100 10
      vertex 190 100 10
    endloop
  endfacet
  facet normal 0 1 0
    outer loop
      vertex 152 100 10
      vertex 190 100 0
      vertex 38 100 10
    endloop
  endfacet
  facet normal 0 1 0
    outer loop
      vertex 0 100 0
      vertex 38 100 10
      vertex 190 100 0
    endloop
  endfacet
  facet normal 0 1 0
    outer loop
      vertex 38 100 10
      vertex 0 100 0
      vertex 0 100 10
    endloop
  endfacet
  facet normal 0 1 -0
    outer loop
      vertex 152 100 10
      vertex 38 100 13
      vertex 152 100 13
    endloop
  endfacet
  facet normal 0 1 0
    outer loop
      vertex 38 100 13
      vertex 152 100 10
      vertex 38 100 10
    endloop
  endfacet
  facet normal 0 1 -0
    outer loop
      vertex 1 80 10
      vertex 0 80 13
      vertex 1 80 13
    endloop
  endfacet
  facet normal 0 1 0
    outer loop
      vertex 0 80 13
      vertex 1 80 10
      vertex 0 80 10
    endloop
  endfacet
  facet normal 1 -0 0
    outer loop
      vertex 152 99 13
      vertex 152 100 10
      vertex 152 100 13
    endloop
  endfacet
  facet normal 1 0 0
    outer loop
      vertex 152 100 10
      vertex 152 99 13
      vertex 152 99 10
    endloop
  endfacet
  facet normal 0 0 1
    outer loop
      vertex 190 100 10
      vertex 189 99 10
      vertex 190 80 10
    endloop
  endfacet
  facet normal -0 0 1
    outer loop
      vertex 152 100 10
      vertex 189 99 10
      vertex 190 100 10
    endloop
  endfacet
  facet normal 0 0 1
    outer loop
      vertex 189 99 10
      vertex 152 100 10
      vertex 152 99 10
    endloop
  endfacet
  facet normal 0 0 1
    outer loop
      vertex 190 80 10
      vertex 189 99 10
      vertex 189 80 10
    endloop
  endfacet
  facet normal 0 1 -0
    outer loop
      vertex 190 80 10
      vertex 189 80 13
      vertex 190 80 13
    endloop
  endfacet
  facet normal 0 1 0
    outer loop
      vertex 189 80 13
      vertex 190 80 10
      vertex 189 80 10
    endloop
  endfacet
  facet normal 0 0 -1
    outer loop
      vertex 0 0 0
      vertex 190 100 0
      vertex 190 0 0
    endloop
  endfacet
  facet normal -0 0 -1
    outer loop
      vertex 190 100 0
      vertex 0 0 0
      vertex 0 100 0
    endloop
  endfacet
  facet normal -1 0 0
    outer loop
      vertex 1 20 10
      vertex 1 1 10
      vertex 1 20 13
    endloop
  endfacet
  facet normal -1 0 0
    outer loop
      vertex 1 80 13
      vertex 1 99 10
      vertex 1 80 10
    endloop
  endfacet
  facet normal -1 0 0
    outer loop
      vertex 1 99 10
      vertex 1 80 13
      vertex 1 99 18
    endloop
  endfacet
  facet normal -1 0 0
    outer loop
      vertex 1 20 13
      vertex 1 99 18
      vertex 1 80 13
    endloop
  endfacet
  facet normal -1 0 0
    outer loop
      vertex 1 20 13
      vertex 1 1 18
      vertex 1 99 18
    endloop
  endfacet
  facet normal -1 0 0
    outer loop
      vertex 1 1 18
      vertex 1 20 13
      vertex 1 1 10
    endloop
  endfacet
  facet normal 0 0 1
    outer loop
      vertex 27 22.5 18
      vertex 4.5 22.5 18
      vertex 27 12.5 18
    endloop
  endfacet
  facet normal 0 0 1
    outer loop
      vertex 118 22.5 18
      vertex 95.5 22.5 18
      vertex 118 12.5 18
    endloop
  endfacet
  facet normal 0 0 1
    outer loop
      vertex 185.5 22.5 18
      vertex 189 99 18
      vertex 185.5 87.5 18
    endloop
  endfacet
  facet normal 0 0 1
    outer loop
      vertex 189 99 18
      vertex 95.5 87.5 18
      vertex 185.5 87.5 18
    endloop
  endfacet
  facet normal 0 0 1
    outer loop
      vertex 95.5 87.5 18
      vertex 94.5 87.5 18
      vertex 95.5 22.5 18
    endloop
  endfacet
  facet normal 0 0 1
    outer loop
      vertex 189 99 18
      vertex 94.5 87.5 18
      vertex 95.5 87.5 18
    endloop
  endfacet
  facet normal -0 0 1
    outer loop
      vertex 1 99 18
      vertex 94.5 87.5 18
      vertex 189 99 18
    endloop
  endfacet
  facet normal 0 0 1
    outer loop
      vertex 4.5 87.5 18
      vertex 1 99 18
      vertex 4.5 22.5 18
    endloop
  endfacet
  facet normal 0 0 1
    outer loop
      vertex 94.5 87.5 18
      vertex 1 99 18
      vertex 4.5 87.5 18
    endloop
  endfacet
  facet normal 0 0 1
    outer loop
      vertex 189 99 18
      vertex 185.5 22.5 18
      vertex 189 1 18
    endloop
  endfacet
  facet normal 0 0 1
    outer loop
      vertex 163 12.5 18
      vertex 185.5 22.5 18
      vertex 163 22.5 18
    endloop
  endfacet
  facet normal 0 0 1
    outer loop
      vertex 185.5 22.5 18
      vertex 163 12.5 18
      vertex 189 1 18
    endloop
  endfacet
  facet normal -0 0 1
    outer loop
      vertex 118 12.5 18
      vertex 189 1 18
      vertex 163 12.5 18
    endloop
  endfacet
  facet normal 0 0 1
    outer loop
      vertex 94.5 22.5 18
      vertex 95.5 22.5 18
      vertex 94.5 87.5 18
    endloop
  endfacet
  facet normal -0 0 1
    outer loop
      vertex 94.5 22.5 18
      vertex 118 12.5 18
      vertex 95.5 22.5 18
    endloop
  endfacet
  facet normal 0 0 1
    outer loop
      vertex 72 12.5 18
      vertex 94.5 22.5 18
      vertex 72 22.5 18
    endloop
  endfacet
  facet normal 0 0 1
    outer loop
      vertex 94.5 22.5 18
      vertex 72 12.5 18
      vertex 118 12.5 18
    endloop
  endfacet
  facet normal -0 0 1
    outer loop
      vertex 72 12.5 18
      vertex 189 1 18
      vertex 118 12.5 18
    endloop
  endfacet
  facet normal 0 0 1
    outer loop
      vertex 1 1 18
      vertex 72 12.5 18
      vertex 27 12.5 18
    endloop
  endfacet
  facet normal 0 0 1
    outer loop
      vertex 72 12.5 18
      vertex 1 1 18
      vertex 189 1 18
    endloop
  endfacet
  facet normal 0 0 1
    outer loop
      vertex 4.5 22.5 18
      vertex 1 1 18
      vertex 27 12.5 18
    endloop
  endfacet
  facet normal 0 0 1
    outer loop
      vertex 1 1 18
      vertex 4.5 22.5 18
      vertex 1 99 18
    endloop
  endfacet
  facet normal 1 0 0
    outer loop
      vertex 189 99 18
      vertex 189 80 13
      vertex 189 99 10
    endloop
  endfacet
  facet normal 1 0 0
    outer loop
      vertex 189 99 18
      vertex 189 20 13
      vertex 189 80 13
    endloop
  endfacet
  facet normal 1 -0 0
    outer loop
      vertex 189 1 18
      vertex 189 20 13
      vertex 189 99 18
    endloop
  endfacet
  facet normal 1 0 0
    outer loop
      vertex 189 1 10
      vertex 189 20 13
      vertex 189 1 18
    endloop
  endfacet
  facet normal 1 0 0
    outer loop
      vertex 189 20 13
      vertex 189 1 10
      vertex 189 20 10
    endloop
  endfacet
  facet normal 1 0 0
    outer loop
      vertex 189 99 10
      vertex 189 80 13
      vertex 189 80 10
    endloop
  endfacet
  facet normal 0 1 0
    outer loop
      vertex 189 99 18
      vertex 152 99 13
      vertex 1 99 18
    endloop
  endfacet
  facet normal 0 1 -0
    outer loop
      vertex 189 99 10
      vertex 152 99 13
      vertex 189 99 18
    endloop
  endfacet
  facet normal 0 1 0
    outer loop
      vertex 152 99 13
      vertex 189 99 10
      vertex 152 99 10
    endloop
  endfacet
  facet normal 0 1 -0
    outer loop
      vertex 38 99 13
      vertex 1 99 18
      vertex 152 99 13
    endloop
  endfacet
  facet normal 0 1 0
    outer loop
      vertex 1 99 10
      vertex 38 99 13
      vertex 38 99 10
    endloop
  endfacet
  facet normal 0 1 0
    outer loop
      vertex 38 99 13
      vertex 1 99 10
      vertex 1 99 18
    endloop
  endfacet
  facet normal 0 -1 0
    outer loop
      vertex 1 1 18
      vertex 38 1 13
      vertex 189 1 18
    endloop
  endfacet
  facet normal 0 -1 0
    outer loop
      vertex 1 1 10
      vertex 38 1 13
      vertex 1 1 18
    endloop
  endfacet
  facet normal 0 -1 -0
    outer loop
      vertex 38 1 13
      vertex 1 1 10
      vertex 38 1 10
    endloop
  endfacet
  facet normal 0 -1 0
    outer loop
      vertex 152 1 13
      vertex 189 1 18
      vertex 38 1 13
    endloop
  endfacet
  facet normal 0 -1 0
    outer loop
      vertex 189 1 10
      vertex 152 1 13
      vertex 152 1 10
    endloop
  endfacet
  facet normal 0 -1 0
    outer loop
      vertex 152 1 13
      vertex 189 1 10
      vertex 189 1 18
    endloop
  endfacet
  facet normal 1 -0 0
    outer loop
      vertex 4.5 22.5 18
      vertex 4.5 87.5 2
      vertex 4.5 87.5 18
    endloop
  endfacet
  facet normal 1 0 0
    outer loop
      vertex 4.5 87.5 2
      vertex 4.5 22.5 18
      vertex 4.5 22.5 2
    endloop
  endfacet
  facet normal -1 0 0
    outer loop
      vertex 185.5 22.5 2
      vertex 185.5 87.5 18
      vertex 185.5 87.5 2
    endloop
  endfacet
  facet normal -1 -0 0
    outer loop
      vertex 185.5 87.5 18
      vertex 185.5 22.5 2
      vertex 185.5 22.5 18
    endloop
  endfacet
  facet normal 0 0 1
    outer loop
      vertex 94.5 87.5 2
      vertex 72 22.5 2
      vertex 94.5 22.5 2
    endloop
  endfacet
  facet normal 0 0 1
    outer loop
      vertex 72 22.5 2
      vertex 27 22.5 2
      vertex 72 12.5 2
    endloop
  endfacet
  facet normal 0 0 1
    outer loop
      vertex 94.5 87.5 2
      vertex 27 22.5 2
      vertex 72 22.5 2
    endloop
  endfacet
  facet normal -0 0 1
    outer loop
      vertex 4.5 87.5 2
      vertex 27 22.5 2
      vertex 94.5 87.5 2
    endloop
  endfacet
  facet normal 0 0 1
    outer loop
      vertex 27 22.5 2
      vertex 4.5 87.5 2
      vertex 4.5 22.5 2
    endloop
  endfacet
  facet normal 0 0 1
    outer loop
      vertex 72 12.5 2
      vertex 27 22.5 2
      vertex 27 12.5 2
    endloop
  endfacet
  facet normal 0 0 1
    outer loop
      vertex 185.5 87.5 2
      vertex 163 22.5 2
      vertex 185.5 22.5 2
    endloop
  endfacet
  facet normal 0 0 1
    outer loop
      vertex 163 22.5 2
      vertex 118 22.5 2
      vertex 163 12.5 2
    endloop
  endfacet
  facet normal 0 0 1
    outer loop
      vertex 185.5 87.5 2
      vertex 118 22.5 2
      vertex 163 22.5 2
    endloop
  endfacet
  facet normal -0 0 1
    outer loop
      vertex 95.5 87.5 2
      vertex 118 22.5 2
      vertex 185.5 87.5 2
    endloop
  endfacet
  facet normal 0 0 1
    outer loop
      vertex 118 22.5 2
      vertex 95.5 87.5 2
      vertex 95.5 22.5 2
    endloop
  endfacet
  facet normal 0 0 1
    outer loop
      vertex 163 12.5 2
      vertex 118 22.5 2
      vertex 118 12.5 2
    endloop
  endfacet
  facet normal 0 -1 0
    outer loop
      vertex 95.5 87.5 2
      vertex 185.5 87.5 18
      vertex 95.5 87.5 18
    endloop
  endfacet
  facet normal 0 -1 -0
    outer loop
      vertex 185.5 87.5 18
      vertex 95.5 87.5 2
      vertex 185.5 87.5 2
    endloop
  endfacet
  facet normal 0 -1 0
    outer loop
      vertex 4.5 87.5 2
      vertex 94.5 87.5 18
      vertex 4.5 87.5 18
    endloop
  endfacet
  facet normal 0 -1 -0
    outer loop
      vertex 94.5 87.5 18
      vertex 4.5 87.5 2
      vertex 94.5 87.5 2
    endloop
  endfacet
  facet normal -1 0 0
    outer loop
      vertex 94.5 22.5 2
      vertex 94.5 87.5 18
      vertex 94.5 87.5 2
    endloop
  endfacet
  facet normal -1 -0 0
    outer loop
      vertex 94.5 87.5 18
      vertex 94.5 22.5 2
      vertex 94.5 22.5 18
    endloop
  endfacet
  facet normal 1 -0 0
    outer loop
      vertex 95.5 22.5 18
      vertex 95.5 87.5 2
      vertex 95.5 87.5 18
    endloop
  endfacet
  facet normal 1 0 0
    outer loop
      vertex 95.5 87.5 2
      vertex 95.5 22.5 18
      vertex 95.5 22.5 2
    endloop
  endfacet
  facet normal 0 1 -0
    outer loop
      vertex 185.5 22.5 2
      vertex 163 22.5 18
      vertex 185.5 22.5 18
    endloop
  endfacet
  facet normal 0 1 0
    outer loop
      vertex 163 22.5 18
      vertex 185.5 22.5 2
      vertex 163 22.5 2
    endloop
  endfacet
  facet normal 0 1 -0
    outer loop
      vertex 118 22.5 2
      vertex 95.5 22.5 18
      vertex 118 22.5 18
    endloop
  endfacet
  facet normal 0 1 0
    outer loop
      vertex 95.5 22.5 18
      vertex 118 22.5 2
      vertex 95.5 22.5 2
    endloop
  endfacet
  facet normal 0 1 -0
    outer loop
      vertex 27 22.5 2
      vertex 4.5 22.5 18
      vertex 27 22.5 18
    endloop
  endfacet
  facet normal 0 1 0
    outer loop
      vertex 4.5 22.5 18
      vertex 27 22.5 2
      vertex 4.5 22.5 2
    endloop
  endfacet
  facet normal 0 1 -0
    outer loop
      vertex 94.5 22.5 2
      vertex 72 22.5 18
      vertex 94.5 22.5 18
    endloop
  endfacet
  facet normal 0 1 0
    outer loop
      vertex 72 22.5 18
      vertex 94.5 22.5 2
      vertex 72 22.5 2
    endloop
  endfacet
  facet normal 1 -0 0
    outer loop
      vertex 27 12.5 18
      vertex 27 22.5 2
      vertex 27 22.5 18
    endloop
  endfacet
  facet normal 1 0 0
    outer loop
      vertex 27 22.5 2
      vertex 27 12.5 18
      vertex 27 12.5 2
    endloop
  endfacet
  facet normal -1 0 0
    outer loop
      vertex 72 12.5 2
      vertex 72 22.5 18
      vertex 72 22.5 2
    endloop
  endfacet
  facet normal -1 -0 0
    outer loop
      vertex 72 22.5 18
      vertex 72 12.5 2
      vertex 72 12.5 18
    endloop
  endfacet
  facet normal 0 1 -0
    outer loop
      vertex 72 12.5 2
      vertex 27 12.5 18
      vertex 72 12.5 18
    endloop
  endfacet
  facet normal 0 1 0
    outer loop
      vertex 27 12.5 18
      vertex 72 12.5 2
      vertex 27 12.5 2
    endloop
  endfacet
  facet normal 1 -0 0
    outer loop
      vertex 118 12.5 18
      vertex 118 22.5 2
      vertex 118 22.5 18
    endloop
  endfacet
  facet normal 1 0 0
    outer loop
      vertex 118 22.5 2
      vertex 118 12.5 18
      vertex 118 12.5 2
    endloop
  endfacet
  facet normal -1 0 0
    outer loop
      vertex 163 12.5 2
      vertex 163 22.5 18
      vertex 163 22.5 2
    endloop
  endfacet
  facet normal -1 -0 0
    outer loop
      vertex 163 22.5 18
      vertex 163 12.5 2
      vertex 163 12.5 18
    endloop
  endfacet
  facet normal 0 1 -0
    outer loop
      vertex 163 12.5 2
      vertex 118 12.5 18
      vertex 163 12.5 18
    endloop
  endfacet
  facet normal 0 1 0
    outer loop
      vertex 118 12.5 18
      vertex 163 12.5 2
      vertex 118 12.5 2
    endloop
  endfacet
  facet normal -1 0 0
    outer loop
      vertex 200 190 0
      vertex 200 152 10
      vertex 200 190 10
    endloop
  endfacet
  facet normal -1 0 0
    outer loop
      vertex 200 152 10
      vertex 200 38 10
      vertex 200 152 13
    endloop
  endfacet
  facet normal -1 0 0
    outer loop
      vertex 200 190 0
      vertex 200 38 10
      vertex 200 152 10
    endloop
  endfacet
  facet normal -1 0 0
    outer loop
      vertex 200 0 0
      vertex 200 38 10
      vertex 200 190 0
    endloop
  endfacet
  facet normal -1 -0 0
    outer loop
      vertex 200 38 10
      vertex 200 0 0
      vertex 200 0 10
    endloop
  endfacet
  facet normal -1 -0 0
    outer loop
      vertex 200 152 13
      vertex 200 38 10
      vertex 200 38 13
    endloop
  endfacet
  facet normal -0 0 1
    outer loop
      vertex 299 152 13
      vertex 300 38 13
      vertex 300 152 13
    endloop
  endfacet
  facet normal 0 0 1
    outer loop
      vertex 300 38 13
      vertex 299 152 13
      vertex 299 38 13
    endloop
  endfacet
  facet normal -0 0 1
    outer loop
      vertex 220 190 13
      vertex 280 189 13
      vertex 280 190 13
    endloop
  endfacet
  facet normal 0 0 1
    outer loop
      vertex 280 189 13
      vertex 220 190 13
      vertex 220 189 13
    endloop
  endfacet
  facet normal -0 0 1
    outer loop
      vertex 200 152 13
      vertex 201 38 13
      vertex 201 152 13
    endloop
  endfacet
  facet normal 0 0 1
    outer loop
      vertex 201 38 13
      vertex 200 152 13
      vertex 200 38 13
    endloop
  endfacet
  facet normal -0 0 1
    outer loop
      vertex 220 1 13
      vertex 280 0 13
      vertex 280 1 13
    endloop
  endfacet
  facet normal 0 0 1
    outer loop
      vertex 280 0 13
      vertex 220 1 13
      vertex 220 0 13
    endloop
  endfacet
  facet normal -1 0 0
    outer loop
      vertex 220 0 10
      vertex 220 1 13
      vertex 220 1 10
    endloop
  endfacet
  facet normal -1 -0 0
    outer loop
      vertex 220 1 13
      vertex 220 0 10
      vertex 220 0 13
    endloop
  endfacet
  facet normal 0 0 1
    outer loop
      vertex 201 38 10
      vertex 200 38 10
      vertex 201 1 10
    endloop
  endfacet
  facet normal -0 0 1
    outer loop
      vertex 201 1 10
      vertex 220 0 10
      vertex 220 1 10
    endloop
  endfacet
  facet normal 0 0 1
    outer loop
      vertex 201 1 10
      vertex 200 0 10
      vertex 220 0 10
    endloop
  endfacet
  facet normal 0 0 1
    outer loop
      vertex 200 0 10
      vertex 201 1 10
      vertex 200 38 10
    endloop
  endfacet
  facet normal 0 -1 0
    outer loop
      vertex 200 0 0
      vertex 220 0 10
      vertex 200 0 10
    endloop
  endfacet
  facet normal 0 -1 -0
    outer loop
      vertex 220 0 10
      vertex 200 0 0
      vertex 280 0 10
    endloop
  endfacet
  facet normal 0 -1 0
    outer loop
      vertex 300 0 0
      vertex 280 0 10
      vertex 200 0 0
    endloop
  endfacet
  facet normal 0 -1 0
    outer loop
      vertex 280 0 10
      vertex 300 0 0
      vertex 300 0 10
    endloop
  endfacet
  facet normal 0 -1 0
    outer loop
      vertex 220 0 10
      vertex 280 0 13
      vertex 220 0 13
    endloop
  endfacet
  facet normal 0 -1 -0
    outer loop
      vertex 280 0 13
      vertex 220 0 10
      vertex 280 0 10
    endloop
  endfacet
  facet normal 0 -1 0
    outer loop
      vertex 200 38 10
      vertex 201 38 13
      vertex 200 38 13
    endloop
  endfacet
  facet normal 0 -1 -0
    outer loop
      vertex 201 38 13
      vertex 200 38 10
      vertex 201 38 10
    endloop
  endfacet
  facet normal 1 0 0
    outer loop
      vertex 300 152 13
      vertex 300 38 13
      vertex 300 152 10
    endloop
  endfacet
  facet normal 1 -0 0
    outer loop
      vertex 300 152 10
      vertex 300 190 0
      vertex 300 190 10
    endloop
  endfacet
  facet normal 1 0 0
    outer loop
      vertex 300 38 10
      vertex 300 152 10
      vertex 300 38 13
    endloop
  endfacet
  facet normal 1 0 0
    outer loop
      vertex 300 152 10
      vertex 300 38 10
      vertex 300 190 0
    endloop
  endfacet
  facet normal 1 0 0
    outer loop
      vertex 300 0 0
      vertex 300 38 10
      vertex 300 0 10
    endloop
  endfacet
  facet normal 1 0 0
    outer loop
      vertex 300 38 10
      vertex 300 0 0
      vertex 300 190 0
    endloop
  endfacet
  facet normal 1 -0 0
    outer loop
      vertex 280 0 13
      vertex 280 1 10
      vertex 280 1 13
    endloop
  endfacet
  facet normal 1 0 0
    outer loop
      vertex 280 1 10
      vertex 280 0 13
      vertex 280 0 10
    endloop
  endfacet
  facet normal 0 0 1
    outer loop
      vertex 299 1 10
      vertex 300 38 10
      vertex 299 38 10
    endloop
  endfacet
  facet normal 0 0 1
    outer loop
      vertex 300 38 10
      vertex 299 1 10
      vertex 300 0 10
    endloop
  endfacet
  facet normal 0 0 1
    outer loop
      vertex 280 0 10
      vertex 299 1 10
      vertex 280 1 10
    endloop
  endfacet
  facet normal 0 0 1
    outer loop
      vertex 299 1 10
      vertex 280 0 10
      vertex 300 0 10
    endloop
  endfacet
  facet normal 0 -1 0
    outer loop
      vertex 299 38 10
      vertex 300 38 13
      vertex 299 38 13
    endloop
  endfacet
  facet normal 0 -1 -0
    outer loop
      vertex 300 38 13
      vertex 299 38 10
      vertex 300 38 10
    endloop
  endfacet
  facet normal -1 0 0
    outer loop
      vertex 220 189 10
      vertex 220 190 13
      vertex 220 190 10
    endloop
  endfacet
  facet normal -1 -0 0
    outer loop
      vertex 220 190 13
      vertex 220 189 10
      vertex 220 189 13
    endloop
  endfacet
  facet normal 0 0 1
    outer loop
      vertex 220 190 10
      vertex 201 189 10
      vertex 220 189 10
    endloop
  endfacet
  facet normal -0 0 1
    outer loop
      vertex 200 190 10
      vertex 201 189 10
      vertex 220 190 10
    endloop
  endfacet
  facet normal 0 0 1
    outer loop
      vertex 200 152 10
      vertex 201 189 10
      vertex 200 190 10
    endloop
  endfacet
  facet normal 0 0 1
    outer loop
      vertex 201 189 10
      vertex 200 152 10
      vertex 201 152 10
    endloop
  endfacet
  facet normal 0 1 -0
    outer loop
      vertex 300 190 0
      vertex 280 190 10
      vertex 300 190 10
    endloop
  endfacet
  facet normal 0 1 0
    outer loop
      vertex 280 190 10
      vertex 300 190 0
      vertex 220 190 10
    endloop
  endfacet
  facet normal 0 1 0
    outer loop
      vertex 200 190 0
      vertex 220 190 10
      vertex 300 190 0
    endloop
  endfacet
  facet normal 0 1 0
    outer loop
      vertex 220 190 10
      vertex 200 190 0
      vertex 200 190 10
    endloop
  endfacet
  facet normal 0 1 -0
    outer loop
      vertex 280 190 10
      vertex 220 190 13
      vertex 280 190 13
    endloop
  endfacet
  facet normal 0 1 0
    outer loop
      vertex 220 190 13
      vertex 280 190 10
      vertex 220 190 10
    endloop
  endfacet
  facet normal 0 1 -0
    outer loop
      vertex 201 152 10
      vertex 200 152 13
      vertex 201 152 13
    endloop
  endfacet
  facet normal 0 1 0
    outer loop
      vertex 200 152 13
      vertex 201 152 10
      vertex 200 152 10
    endloop
  endfacet
  facet normal 1 -0 0
    outer loop
      vertex 280 189 13
      vertex 280 190 10
      vertex 280 190 13
    endloop
  endfacet
  facet normal 1 0 0
    outer loop
      vertex 280 190 10
      vertex 280 189 13
      vertex 280 189 10
    endloop
  endfacet
  facet normal 0 0 1
    outer loop
      vertex 300 190 10
      vertex 299 189 10
      vertex 300 152 10
    endloop
  endfacet
  facet normal -0 0 1
    outer loop
      vertex 280 190 10
      vertex 299 189 10
      vertex 300 190 10
    endloop
  endfacet
  facet normal 0 0 1
    outer loop
      vertex 299 189 10
      vertex 280 190 10
      vertex 280 189 10
    endloop
  endfacet
  facet normal 0 0 1
    outer loop
      vertex 300 152 10
      vertex 299 189 10
      vertex 299 152 10
    endloop
  endfacet
  facet normal 0 1 -0
    outer loop
      vertex 300 152 10
      vertex 299 152 13
      vertex 300 152 13
    endloop
  endfacet
  facet normal 0 1 0
    outer loop
      vertex 299 152 13
      vertex 300 152 10
      vertex 299 152 10
    endloop
  endfacet
  facet normal 0 0 -1
    outer loop
      vertex 200 0 0
      vertex 300 190 0
      vertex 300 0 0
    endloop
  endfacet
  facet normal -0 0 -1
    outer loop
      vertex 300 190 0
      vertex 200 0 0
      vertex 200 190 0
    endloop
  endfacet
  facet normal -1 0 0
    outer loop
      vertex 201 38 10
      vertex 201 1 10
      vertex 201 38 13
    endloop
  endfacet
  facet normal -1 0 0
    outer loop
      vertex 201 152 13
      vertex 201 189 10
      vertex 201 152 10
    endloop
  endfacet
  facet normal -1 0 0
    outer loop
      vertex 201 189 10
      vertex 201 152 13
      vertex 201 189 18
    endloop
  endfacet
  facet normal -1 0 0
    outer loop
      vertex 201 38 13
      vertex 201 189 18
      vertex 201 152 13
    endloop
  endfacet
  facet normal -1 0 0
    outer loop
      vertex 201 38 13
      vertex 201 1 18
      vertex 201 189 18
    endloop
  endfacet
  facet normal -1 0 0
    outer loop
      vertex 201 1 18
      vertex 201 38 13
      vertex 201 1 10
    endloop
  endfacet
  facet normal 0 0 1
    outer loop
      vertex 226 12.5 18
      vertex 202 12.5 18
      vertex 226 2.5 18
    endloop
  endfacet
  facet normal 0 0 1
    outer loop
      vertex 298 12.5 18
      vertex 299 189 18
      vertex 298 187.5 18
    endloop
  endfacet
  facet normal 0 0 1
    outer loop
      vertex 299 189 18
      vertex 202 187.5 18
      vertex 298 187.5 18
    endloop
  endfacet
  facet normal 0 0 1
    outer loop
      vertex 202 187.5 18
      vertex 201 189 18
      vertex 202 12.5 18
    endloop
  endfacet
  facet normal -0 0 1
    outer loop
      vertex 201 189 18
      vertex 202 187.5 18
      vertex 299 189 18
    endloop
  endfacet
  facet normal 0 0 1
    outer loop
      vertex 299 189 18
      vertex 298 12.5 18
      vertex 299 1 18
    endloop
  endfacet
  facet normal 0 0 1
    outer loop
      vertex 274 2.5 18
      vertex 298 12.5 18
      vertex 274 12.5 18
    endloop
  endfacet
  facet normal 0 0 1
    outer loop
      vertex 298 12.5 18
      vertex 274 2.5 18
      vertex 299 1 18
    endloop
  endfacet
  facet normal -0 0 1
    outer loop
      vertex 226 2.5 18
      vertex 299 1 18
      vertex 274 2.5 18
    endloop
  endfacet
  facet normal 0 0 1
    outer loop
      vertex 226 2.5 18
      vertex 201 1 18
      vertex 299 1 18
    endloop
  endfacet
  facet normal 0 0 1
    outer loop
      vertex 202 12.5 18
      vertex 201 1 18
      vertex 226 2.5 18
    endloop
  endfacet
  facet normal 0 0 1
    outer loop
      vertex 201 1 18
      vertex 202 12.5 18
      vertex 201 189 18
    endloop
  endfacet
  facet normal 1 0 0
    outer loop
      vertex 299 189 18
      vertex 299 152 13
      vertex 299 189 10
    endloop
  endfacet
  facet normal 1 0 0
    outer loop
      vertex 299 189 18
      vertex 299 38 13
      vertex 299 152 13
    endloop
  endfacet
  facet normal 1 -0 0
    outer loop
      vertex 299 1 18
      vertex 299 38 13
      vertex 299 189 18
    endloop
  endfacet
  facet normal 1 0 0
    outer loop
      vertex 299 1 10
      vertex 299 38 13
      vertex 299 1 18
    endloop
  endfacet
  facet normal 1 0 0
    outer loop
      vertex 299 38 13
      vertex 299 1 10
      vertex 299 38 10
    endloop
  endfacet
  facet normal 1 0 0
    outer loop
      vertex 299 189 10
      vertex 299 152 13
      vertex 299 152 10
    endloop
  endfacet
  facet normal 0 -1 0
    outer loop
      vertex 201 1 18
      vertex 220 1 13
      vertex 299 1 18
    endloop
  endfacet
  facet normal 0 -1 0
    outer loop
      vertex 201 1 10
      vertex 220 1 13
      vertex 201 1 18
    endloop
  endfacet
  facet normal 0 -1 -0
    outer loop
      vertex 220 1 13
      vertex 201 1 10
      vertex 220 1 10
    endloop
  endfacet
  facet normal 0 -1 0
    outer loop
      vertex 280 1 13
      vertex 299 1 18
      vertex 220 1 13
    endloop
  endfacet
  facet normal 0 -1 0
    outer loop
      vertex 299 1 10
      vertex 280 1 13
      vertex 280 1 10
    endloop
  endfacet
  facet normal 0 -1 0
    outer loop
      vertex 280 1 13
      vertex 299 1 10
      vertex 299 1 18
    endloop
  endfacet
  facet normal 0 1 0
    outer loop
      vertex 299 189 18
      vertex 280 189 13
      vertex 201 189 18
    endloop
  endfacet
  facet normal 0 1 -0
    outer loop
      vertex 299 189 10
      vertex 280 189 13
      vertex 299 189 18
    endloop
  endfacet
  facet normal 0 1 0
    outer loop
      vertex 280 189 13
      vertex 299 189 10
      vertex 280 189 10
    endloop
  endfacet
  facet normal 0 1 -0
    outer loop
      vertex 220 189 13
      vertex 201 189 18
      vertex 280 189 13
    endloop
  endfacet
  facet normal 0 1 0
    outer loop
      vertex 201 189 10
      vertex 220 189 13
      vertex 220 189 10
    endloop
  endfacet
  facet normal 0 1 0
    outer loop
      vertex 220 189 13
      vertex 201 189 10
      vertex 201 189 18
    endloop
  endfacet
  facet normal 1 -0 0
    outer loop
      vertex 202 12.5 18
      vertex 202 187.5 2
      vertex 202 187.5 18
    endloop
  endfacet
  facet normal 1 0 0
    outer loop
      vertex 202 187.5 2
      vertex 202 12.5 18
      vertex 202 12.5 2
    endloop
  endfacet
  facet normal -1 0 0
    outer loop
      vertex 298 12.5 2
      vertex 298 187.5 18
      vertex 298 187.5 2
    endloop
  endfacet
  facet normal -1 -0 0
    outer loop
      vertex 298 187.5 18
      vertex 298 12.5 2
      vertex 298 12.5 18
    endloop
  endfacet
  facet normal 0 -1 0
    outer loop
      vertex 202 187.5 2
      vertex 298 187.5 18
      vertex 202 187.5 18
    endloop
  endfacet
  facet normal 0 -1 -0
    outer loop
      vertex 298 187.5 18
      vertex 202 187.5 2
      vertex 298 187.5 2
    endloop
  endfacet
  facet normal 0 0 1
    outer loop
      vertex 298 187.5 2
      vertex 274 12.5 2
      vertex 298 12.5 2
    endloop
  endfacet
  facet normal 0 0 1
    outer loop
      vertex 274 12.5 2
      vertex 226 12.5 2
      vertex 274 2.5 2
    endloop
  endfacet
  facet normal 0 0 1
    outer loop
      vertex 298 187.5 2
      vertex 226 12.5 2
      vertex 274 12.5 2
    endloop
  endfacet
  facet normal -0 0 1
    outer loop
      vertex 202 187.5 2
      vertex 226 12.5 2
      vertex 298 187.5 2
    endloop
  endfacet
  facet normal 0 0 1
    outer loop
      vertex 226 12.5 2
      vertex 202 187.5 2
      vertex 202 12.5 2
    endloop
  endfacet
  facet normal 0 0 1
    outer loop
      vertex 274 2.5 2
      vertex 226 12.5 2
      vertex 226 2.5 2
    endloop
  endfacet
  facet normal 0 1 -0
    outer loop
      vertex 298 12.5 2
      vertex 274 12.5 18
      vertex 298 12.5 18
    endloop
  endfacet
  facet normal 0 1 0
    outer loop
      vertex 274 12.5 18
      vertex 298 12.5 2
      vertex 274 12.5 2
    endloop
  endfacet
  facet normal 0 1 -0
    outer loop
      vertex 226 12.5 2
      vertex 202 12.5 18
      vertex 226 12.5 18
    endloop
  endfacet
  facet normal 0 1 0
    outer loop
      vertex 202 12.5 18
      vertex 226 12.5 2
      vertex 202 12.5 2
    endloop
  endfacet
  facet normal -1 0 0
    outer loop
      vertex 274 2.5 2
      vertex 274 12.5 18
      vertex 274 12.5 2
    endloop
  endfacet
  facet normal -1 -0 0
    outer loop
      vertex 274 12.5 18
      vertex 274 2.5 2
      vertex 274 2.5 18
    endloop
  endfacet
  facet normal 0 1 -0
    outer loop
      vertex 274 2.5 2
      vertex 226 2.5 18
      vertex 274 2.5 18
    endloop
  endfacet
  facet normal 0 1 0
    outer loop
      vertex 226 2.5 18
      vertex 274 2.5 2
      vertex 226 2.5 2
    endloop
  endfacet
  facet normal 1 -0 0
    outer loop
      vertex 226 2.5 18
      vertex 226 12.5 2
      vertex 226 12.5 18
    endloop
  endfacet
  facet normal 1 0 0
    outer loop
      vertex 226 12.5 2
      vertex 226 2.5 18
      vertex 226 2.5 2
    endloop
  endfacet
endsolid OpenSCAD_Model
