solid OpenSCAD_Model
  facet normal -1 0 0
    outer loop
      vertex 0 183 0
      vertex 0 146.4 10
      vertex 0 183 10
    endloop
  endfacet
  facet normal -1 0 0
    outer loop
      vertex 0 146.4 10
      vertex 0 36.6 10
      vertex 0 146.4 13
    endloop
  endfacet
  facet normal -1 0 0
    outer loop
      vertex 0 183 0
      vertex 0 36.6 10
      vertex 0 146.4 10
    endloop
  endfacet
  facet normal -1 0 0
    outer loop
      vertex 0 0 0
      vertex 0 36.6 10
      vertex 0 183 0
    endloop
  endfacet
  facet normal -1 -0 0
    outer loop
      vertex 0 36.6 10
      vertex 0 0 0
      vertex 0 0 10
    endloop
  endfacet
  facet normal -1 -0 0
    outer loop
      vertex 0 146.4 13
      vertex 0 36.6 10
      vertex 0 36.6 13
    endloop
  endfacet
  facet normal -0 0 1
    outer loop
      vertex 92 146.4 13
      vertex 93 36.6 13
      vertex 93 146.4 13
    endloop
  endfacet
  facet normal 0 0 1
    outer loop
      vertex 93 36.6 13
      vertex 92 146.4 13
      vertex 92 36.6 13
    endloop
  endfacet
  facet normal -0 0 1
    outer loop
      vertex 18.6 183 13
      vertex 74.4 182 13
      vertex 74.4 183 13
    endloop
  endfacet
  facet normal 0 0 1
    outer loop
      vertex 74.4 182 13
      vertex 18.6 183 13
      vertex 18.6 182 13
    endloop
  endfacet
  facet normal -0 0 1
    outer loop
      vertex 0 146.4 13
      vertex 1 36.6 13
      vertex 1 146.4 13
    endloop
  endfacet
  facet normal 0 0 1
    outer loop
      vertex 1 36.6 13
      vertex 0 146.4 13
      vertex 0 36.6 13
    endloop
  endfacet
  facet normal -0 0 1
    outer loop
      vertex 18.6 1 13
      vertex 74.4 0 13
      vertex 74.4 1 13
    endloop
  endfacet
  facet normal 0 0 1
    outer loop
      vertex 74.4 0 13
      vertex 18.6 1 13
      vertex 18.6 0 13
    endloop
  endfacet
  facet normal -1 0 0
    outer loop
      vertex 18.6 0 10
      vertex 18.6 1 13
      vertex 18.6 1 10
    endloop
  endfacet
  facet normal -1 -0 0
    outer loop
      vertex 18.6 1 13
      vertex 18.6 0 10
      vertex 18.6 0 13
    endloop
  endfacet
  facet normal 0 0 1
    outer loop
      vertex 1 36.6 10
      vertex 0 36.6 10
      vertex 1 1 10
    endloop
  endfacet
  facet normal -0 0 1
    outer loop
      vertex 1 1 10
      vertex 18.6 0 10
      vertex 18.6 1 10
    endloop
  endfacet
  facet normal 0 0 1
    outer loop
      vertex 1 1 10
      vertex 0 0 10
      vertex 18.6 0 10
    endloop
  endfacet
  facet normal 0 0 1
    outer loop
      vertex 0 0 10
      vertex 1 1 10
      vertex 0 36.6 10
    endloop
  endfacet
  facet normal 0 -1 0
    outer loop
      vertex 0 0 0
      vertex 18.6 0 10
      vertex 0 0 10
    endloop
  endfacet
  facet normal 0 -1 -0
    outer loop
      vertex 18.6 0 10
      vertex 0 0 0
      vertex 74.4 0 10
    endloop
  endfacet
  facet normal 0 -1 0
    outer loop
      vertex 93 0 0
      vertex 74.4 0 10
      vertex 0 0 0
    endloop
  endfacet
  facet normal 0 -1 0
    outer loop
      vertex 74.4 0 10
      vertex 93 0 0
      vertex 93 0 10
    endloop
  endfacet
  facet normal 0 -1 0
    outer loop
      vertex 18.6 0 10
      vertex 74.4 0 13
      vertex 18.6 0 13
    endloop
  endfacet
  facet normal 0 -1 -0
    outer loop
      vertex 74.4 0 13
      vertex 18.6 0 10
      vertex 74.4 0 10
    endloop
  endfacet
  facet normal 0 -1 0
    outer loop
      vertex 0 36.6 10
      vertex 1 36.6 13
      vertex 0 36.6 13
    endloop
  endfacet
  facet normal 0 -1 -0
    outer loop
      vertex 1 36.6 13
      vertex 0 36.6 10
      vertex 1 36.6 10
    endloop
  endfacet
  facet normal 1 0 0
    outer loop
      vertex 93 146.4 13
      vertex 93 36.6 13
      vertex 93 146.4 10
    endloop
  endfacet
  facet normal 1 -0 0
    outer loop
      vertex 93 146.4 10
      vertex 93 183 0
      vertex 93 183 10
    endloop
  endfacet
  facet normal 1 0 0
    outer loop
      vertex 93 36.6 10
      vertex 93 146.4 10
      vertex 93 36.6 13
    endloop
  endfacet
  facet normal 1 0 0
    outer loop
      vertex 93 146.4 10
      vertex 93 36.6 10
      vertex 93 183 0
    endloop
  endfacet
  facet normal 1 0 0
    outer loop
      vertex 93 0 0
      vertex 93 36.6 10
      vertex 93 0 10
    endloop
  endfacet
  facet normal 1 0 0
    outer loop
      vertex 93 36.6 10
      vertex 93 0 0
      vertex 93 183 0
    endloop
  endfacet
  facet normal 1 -0 0
    outer loop
      vertex 74.4 0 13
      vertex 74.4 1 10
      vertex 74.4 1 13
    endloop
  endfacet
  facet normal 1 0 0
    outer loop
      vertex 74.4 1 10
      vertex 74.4 0 13
      vertex 74.4 0 10
    endloop
  endfacet
  facet normal 0 0 1
    outer loop
      vertex 92 1 10
      vertex 93 36.6 10
      vertex 92 36.6 10
    endloop
  endfacet
  facet normal 0 0 1
    outer loop
      vertex 93 36.6 10
      vertex 92 1 10
      vertex 93 0 10
    endloop
  endfacet
  facet normal 0 0 1
    outer loop
      vertex 74.4 0 10
      vertex 92 1 10
      vertex 74.4 1 10
    endloop
  endfacet
  facet normal 0 0 1
    outer loop
      vertex 92 1 10
      vertex 74.4 0 10
      vertex 93 0 10
    endloop
  endfacet
  facet normal 0 -1 0
    outer loop
      vertex 92 36.6 10
      vertex 93 36.6 13
      vertex 92 36.6 13
    endloop
  endfacet
  facet normal 0 -1 -0
    outer loop
      vertex 93 36.6 13
      vertex 92 36.6 10
      vertex 93 36.6 10
    endloop
  endfacet
  facet normal -1 0 0
    outer loop
      vertex 18.6 182 10
      vertex 18.6 183 13
      vertex 18.6 183 10
    endloop
  endfacet
  facet normal -1 -0 0
    outer loop
      vertex 18.6 183 13
      vertex 18.6 182 10
      vertex 18.6 182 13
    endloop
  endfacet
  facet normal 0 0 1
    outer loop
      vertex 18.6 183 10
      vertex 1 182 10
      vertex 18.6 182 10
    endloop
  endfacet
  facet normal -0 0 1
    outer loop
      vertex 0 183 10
      vertex 1 182 10
      vertex 18.6 183 10
    endloop
  endfacet
  facet normal 0 0 1
    outer loop
      vertex 0 146.4 10
      vertex 1 182 10
      vertex 0 183 10
    endloop
  endfacet
  facet normal 0 0 1
    outer loop
      vertex 1 182 10
      vertex 0 146.4 10
      vertex 1 146.4 10
    endloop
  endfacet
  facet normal 0 1 -0
    outer loop
      vertex 93 183 0
      vertex 74.4 183 10
      vertex 93 183 10
    endloop
  endfacet
  facet normal 0 1 0
    outer loop
      vertex 74.4 183 10
      vertex 93 183 0
      vertex 18.6 183 10
    endloop
  endfacet
  facet normal 0 1 0
    outer loop
      vertex 0 183 0
      vertex 18.6 183 10
      vertex 93 183 0
    endloop
  endfacet
  facet normal 0 1 0
    outer loop
      vertex 18.6 183 10
      vertex 0 183 0
      vertex 0 183 10
    endloop
  endfacet
  facet normal 0 1 -0
    outer loop
      vertex 74.4 183 10
      vertex 18.6 183 13
      vertex 74.4 183 13
    endloop
  endfacet
  facet normal 0 1 0
    outer loop
      vertex 18.6 183 13
      vertex 74.4 183 10
      vertex 18.6 183 10
    endloop
  endfacet
  facet normal 0 1 -0
    outer loop
      vertex 1 146.4 10
      vertex 0 146.4 13
      vertex 1 146.4 13
    endloop
  endfacet
  facet normal 0 1 0
    outer loop
      vertex 0 146.4 13
      vertex 1 146.4 10
      vertex 0 146.4 10
    endloop
  endfacet
  facet normal 1 -0 0
    outer loop
      vertex 74.4 182 13
      vertex 74.4 183 10
      vertex 74.4 183 13
    endloop
  endfacet
  facet normal 1 0 0
    outer loop
      vertex 74.4 183 10
      vertex 74.4 182 13
      vertex 74.4 182 10
    endloop
  endfacet
  facet normal 0 0 1
    outer loop
      vertex 93 183 10
      vertex 92 182 10
      vertex 93 146.4 10
    endloop
  endfacet
  facet normal -0 0 1
    outer loop
      vertex 74.4 183 10
      vertex 92 182 10
      vertex 93 183 10
    endloop
  endfacet
  facet normal 0 0 1
    outer loop
      vertex 92 182 10
      vertex 74.4 183 10
      vertex 74.4 182 10
    endloop
  endfacet
  facet normal 0 0 1
    outer loop
      vertex 93 146.4 10
      vertex 92 182 10
      vertex 92 146.4 10
    endloop
  endfacet
  facet normal 0 1 -0
    outer loop
      vertex 93 146.4 10
      vertex 92 146.4 13
      vertex 93 146.4 13
    endloop
  endfacet
  facet normal 0 1 0
    outer loop
      vertex 92 146.4 13
      vertex 93 146.4 10
      vertex 92 146.4 10
    endloop
  endfacet
  facet normal 0 0 -1
    outer loop
      vertex 0 0 0
      vertex 93 183 0
      vertex 93 0 0
    endloop
  endfacet
  facet normal -0 0 -1
    outer loop
      vertex 93 183 0
      vertex 0 0 0
      vertex 0 183 0
    endloop
  endfacet
  facet normal -1 0 0
    outer loop
      vertex 1 36.6 10
      vertex 1 1 10
      vertex 1 36.6 13
    endloop
  endfacet
  facet normal -1 0 0
    outer loop
      vertex 1 146.4 13
      vertex 1 182 10
      vertex 1 146.4 10
    endloop
  endfacet
  facet normal -1 0 0
    outer loop
      vertex 1 182 10
      vertex 1 146.4 13
      vertex 1 182 18
    endloop
  endfacet
  facet normal -1 0 0
    outer loop
      vertex 1 36.6 13
      vertex 1 182 18
      vertex 1 146.4 13
    endloop
  endfacet
  facet normal -1 0 0
    outer loop
      vertex 1 36.6 13
      vertex 1 1 18
      vertex 1 182 18
    endloop
  endfacet
  facet normal -1 0 0
    outer loop
      vertex 1 1 18
      vertex 1 36.6 13
      vertex 1 1 10
    endloop
  endfacet
  facet normal -0 0 1
    outer loop
      vertex 54.5 68.5 18
      vertex 72 58.5 18
      vertex 72 68.5 18
    endloop
  endfacet
  facet normal 0 0 1
    outer loop
      vertex 72 58.5 18
      vertex 54.5 68.5 18
      vertex 54.5 58.5 18
    endloop
  endfacet
  facet normal -0 0 1
    outer loop
      vertex 54.5 124.5 18
      vertex 72 114.5 18
      vertex 72 124.5 18
    endloop
  endfacet
  facet normal 0 0 1
    outer loop
      vertex 72 114.5 18
      vertex 54.5 124.5 18
      vertex 54.5 114.5 18
    endloop
  endfacet
  facet normal 0 0 1
    outer loop
      vertex 92 182 18
      vertex 91 142.5 18
      vertex 92 1 18
    endloop
  endfacet
  facet normal -0 0 1
    outer loop
      vertex 72 170.5 18
      vertex 91 142.5 18
      vertex 92 182 18
    endloop
  endfacet
  facet normal 0 0 1
    outer loop
      vertex 72 124.5 18
      vertex 74 142.5 18
      vertex 72 170.5 18
    endloop
  endfacet
  facet normal 0 0 1
    outer loop
      vertex 91 142.5 18
      vertex 72 170.5 18
      vertex 74 142.5 18
    endloop
  endfacet
  facet normal -0 0 1
    outer loop
      vertex 1 182 18
      vertex 72 170.5 18
      vertex 92 182 18
    endloop
  endfacet
  facet normal 0 0 1
    outer loop
      vertex 1 182 18
      vertex 2 124.5 18
      vertex 2 170.5 18
    endloop
  endfacet
  facet normal 0 0 1
    outer loop
      vertex 2 124.5 18
      vertex 1 182 18
      vertex 2 114.5 18
    endloop
  endfacet
  facet normal 0 0 1
    outer loop
      vertex 2 114.5 18
      vertex 1 182 18
      vertex 2 68.5 18
    endloop
  endfacet
  facet normal 0 0 1
    outer loop
      vertex 2 68.5 18
      vertex 1 182 18
      vertex 2 58.5 18
    endloop
  endfacet
  facet normal 0 0 1
    outer loop
      vertex 1 1 18
      vertex 2 58.5 18
      vertex 1 182 18
    endloop
  endfacet
  facet normal 0 0 1
    outer loop
      vertex 72 170.5 18
      vertex 1 182 18
      vertex 2 170.5 18
    endloop
  endfacet
  facet normal -0 0 1
    outer loop
      vertex 91 40.5 18
      vertex 92 1 18
      vertex 91 142.5 18
    endloop
  endfacet
  facet normal 0 0 1
    outer loop
      vertex 72 12.5 18
      vertex 91 40.5 18
      vertex 74 40.5 18
    endloop
  endfacet
  facet normal 0 0 1
    outer loop
      vertex 72 114.5 18
      vertex 74 142.5 18
      vertex 72 124.5 18
    endloop
  endfacet
  facet normal 0 0 1
    outer loop
      vertex 74 142.5 18
      vertex 72 114.5 18
      vertex 74 40.5 18
    endloop
  endfacet
  facet normal -0 0 1
    outer loop
      vertex 72 68.5 18
      vertex 74 40.5 18
      vertex 72 114.5 18
    endloop
  endfacet
  facet normal -0 0 1
    outer loop
      vertex 72 58.5 18
      vertex 74 40.5 18
      vertex 72 68.5 18
    endloop
  endfacet
  facet normal 0 0 1
    outer loop
      vertex 72 12.5 18
      vertex 74 40.5 18
      vertex 72 58.5 18
    endloop
  endfacet
  facet normal 0 0 1
    outer loop
      vertex 91 40.5 18
      vertex 72 12.5 18
      vertex 92 1 18
    endloop
  endfacet
  facet normal 0 0 1
    outer loop
      vertex 1 1 18
      vertex 72 12.5 18
      vertex 2 12.5 18
    endloop
  endfacet
  facet normal 0 0 1
    outer loop
      vertex 72 12.5 18
      vertex 1 1 18
      vertex 92 1 18
    endloop
  endfacet
  facet normal 0 0 1
    outer loop
      vertex 2 58.5 18
      vertex 1 1 18
      vertex 2 12.5 18
    endloop
  endfacet
  facet normal -0 0 1
    outer loop
      vertex 2 124.5 18
      vertex 19.5 114.5 18
      vertex 19.5 124.5 18
    endloop
  endfacet
  facet normal 0 0 1
    outer loop
      vertex 19.5 114.5 18
      vertex 2 124.5 18
      vertex 2 114.5 18
    endloop
  endfacet
  facet normal -0 0 1
    outer loop
      vertex 2 68.5 18
      vertex 19.5 58.5 18
      vertex 19.5 68.5 18
    endloop
  endfacet
  facet normal 0 0 1
    outer loop
      vertex 19.5 58.5 18
      vertex 2 68.5 18
      vertex 2 58.5 18
    endloop
  endfacet
  facet normal 1 0 0
    outer loop
      vertex 92 182 18
      vertex 92 146.4 13
      vertex 92 182 10
    endloop
  endfacet
  facet normal 1 0 0
    outer loop
      vertex 92 182 18
      vertex 92 36.6 13
      vertex 92 146.4 13
    endloop
  endfacet
  facet normal 1 -0 0
    outer loop
      vertex 92 1 18
      vertex 92 36.6 13
      vertex 92 182 18
    endloop
  endfacet
  facet normal 1 0 0
    outer loop
      vertex 92 1 10
      vertex 92 36.6 13
      vertex 92 1 18
    endloop
  endfacet
  facet normal 1 0 0
    outer loop
      vertex 92 36.6 13
      vertex 92 1 10
      vertex 92 36.6 10
    endloop
  endfacet
  facet normal 1 0 0
    outer loop
      vertex 92 182 10
      vertex 92 146.4 13
      vertex 92 146.4 10
    endloop
  endfacet
  facet normal 0 1 0
    outer loop
      vertex 92 182 18
      vertex 74.4 182 13
      vertex 1 182 18
    endloop
  endfacet
  facet normal 0 1 -0
    outer loop
      vertex 92 182 10
      vertex 74.4 182 13
      vertex 92 182 18
    endloop
  endfacet
  facet normal 0 1 0
    outer loop
      vertex 74.4 182 13
      vertex 92 182 10
      vertex 74.4 182 10
    endloop
  endfacet
  facet normal 0 1 -0
    outer loop
      vertex 18.6 182 13
      vertex 1 182 18
      vertex 74.4 182 13
    endloop
  endfacet
  facet normal 0 1 0
    outer loop
      vertex 1 182 10
      vertex 18.6 182 13
      vertex 18.6 182 10
    endloop
  endfacet
  facet normal 0 1 0
    outer loop
      vertex 18.6 182 13
      vertex 1 182 10
      vertex 1 182 18
    endloop
  endfacet
  facet normal 0 -1 0
    outer loop
      vertex 1 1 18
      vertex 18.6 1 13
      vertex 92 1 18
    endloop
  endfacet
  facet normal 0 -1 0
    outer loop
      vertex 1 1 10
      vertex 18.6 1 13
      vertex 1 1 18
    endloop
  endfacet
  facet normal 0 -1 -0
    outer loop
      vertex 18.6 1 13
      vertex 1 1 10
      vertex 18.6 1 10
    endloop
  endfacet
  facet normal 0 -1 0
    outer loop
      vertex 74.4 1 13
      vertex 92 1 18
      vertex 18.6 1 13
    endloop
  endfacet
  facet normal 0 -1 0
    outer loop
      vertex 92 1 10
      vertex 74.4 1 13
      vertex 74.4 1 10
    endloop
  endfacet
  facet normal 0 -1 0
    outer loop
      vertex 74.4 1 13
      vertex 92 1 10
      vertex 92 1 18
    endloop
  endfacet
  facet normal 1 -0 0
    outer loop
      vertex 2 68.5 18
      vertex 2 114.5 6
      vertex 2 114.5 18
    endloop
  endfacet
  facet normal 1 0 0
    outer loop
      vertex 2 114.5 6
      vertex 2 68.5 18
      vertex 2 68.5 6
    endloop
  endfacet
  facet normal 1 -0 0
    outer loop
      vertex 2 124.5 18
      vertex 2 170.5 6
      vertex 2 170.5 18
    endloop
  endfacet
  facet normal 1 0 0
    outer loop
      vertex 2 170.5 6
      vertex 2 124.5 18
      vertex 2 124.5 6
    endloop
  endfacet
  facet normal 1 -0 0
    outer loop
      vertex 2 12.5 18
      vertex 2 58.5 6
      vertex 2 58.5 18
    endloop
  endfacet
  facet normal 1 0 0
    outer loop
      vertex 2 58.5 6
      vertex 2 12.5 18
      vertex 2 12.5 6
    endloop
  endfacet
  facet normal -1 0 0
    outer loop
      vertex 72 68.5 6
      vertex 72 114.5 18
      vertex 72 114.5 6
    endloop
  endfacet
  facet normal -1 -0 0
    outer loop
      vertex 72 114.5 18
      vertex 72 68.5 6
      vertex 72 68.5 18
    endloop
  endfacet
  facet normal -1 0 0
    outer loop
      vertex 72 124.5 6
      vertex 72 170.5 18
      vertex 72 170.5 6
    endloop
  endfacet
  facet normal -1 -0 0
    outer loop
      vertex 72 170.5 18
      vertex 72 124.5 6
      vertex 72 124.5 18
    endloop
  endfacet
  facet normal -1 0 0
    outer loop
      vertex 72 12.5 6
      vertex 72 58.5 18
      vertex 72 58.5 6
    endloop
  endfacet
  facet normal -1 -0 0
    outer loop
      vertex 72 58.5 18
      vertex 72 12.5 6
      vertex 72 12.5 18
    endloop
  endfacet
  facet normal 0 -1 0
    outer loop
      vertex 19.5 170.5 2
      vertex 54.5 170.5 6
      vertex 19.5 170.5 6
    endloop
  endfacet
  facet normal 0 -1 -0
    outer loop
      vertex 54.5 170.5 6
      vertex 19.5 170.5 2
      vertex 54.5 170.5 2
    endloop
  endfacet
  facet normal 0 -1 0
    outer loop
      vertex 19.5 170.5 6
      vertex 2 170.5 18
      vertex 2 170.5 6
    endloop
  endfacet
  facet normal 0 -1 0
    outer loop
      vertex 2 170.5 18
      vertex 19.5 170.5 6
      vertex 72 170.5 18
    endloop
  endfacet
  facet normal 0 -1 0
    outer loop
      vertex 54.5 170.5 6
      vertex 72 170.5 18
      vertex 19.5 170.5 6
    endloop
  endfacet
  facet normal 0 -1 -0
    outer loop
      vertex 72 170.5 18
      vertex 54.5 170.5 6
      vertex 72 170.5 6
    endloop
  endfacet
  facet normal -0 0 1
    outer loop
      vertex 2 170.5 6
      vertex 19.5 124.5 6
      vertex 19.5 170.5 6
    endloop
  endfacet
  facet normal 0 0 1
    outer loop
      vertex 19.5 124.5 6
      vertex 2 170.5 6
      vertex 2 124.5 6
    endloop
  endfacet
  facet normal -0 0 1
    outer loop
      vertex 2 114.5 6
      vertex 19.5 68.5 6
      vertex 19.5 114.5 6
    endloop
  endfacet
  facet normal 0 0 1
    outer loop
      vertex 19.5 68.5 6
      vertex 2 114.5 6
      vertex 2 68.5 6
    endloop
  endfacet
  facet normal -0 0 1
    outer loop
      vertex 54.5 114.5 6
      vertex 72 68.5 6
      vertex 72 114.5 6
    endloop
  endfacet
  facet normal 0 0 1
    outer loop
      vertex 72 68.5 6
      vertex 54.5 114.5 6
      vertex 54.5 68.5 6
    endloop
  endfacet
  facet normal -0 0 1
    outer loop
      vertex 54.5 170.5 6
      vertex 72 124.5 6
      vertex 72 170.5 6
    endloop
  endfacet
  facet normal 0 0 1
    outer loop
      vertex 72 124.5 6
      vertex 54.5 170.5 6
      vertex 54.5 124.5 6
    endloop
  endfacet
  facet normal -0 0 1
    outer loop
      vertex 2 58.5 6
      vertex 19.5 12.5 6
      vertex 19.5 58.5 6
    endloop
  endfacet
  facet normal 0 0 1
    outer loop
      vertex 19.5 12.5 6
      vertex 2 58.5 6
      vertex 2 12.5 6
    endloop
  endfacet
  facet normal -0 0 1
    outer loop
      vertex 54.5 58.5 6
      vertex 72 12.5 6
      vertex 72 58.5 6
    endloop
  endfacet
  facet normal 0 0 1
    outer loop
      vertex 72 12.5 6
      vertex 54.5 58.5 6
      vertex 54.5 12.5 6
    endloop
  endfacet
  facet normal 0 1 -0
    outer loop
      vertex 54.5 12.5 2
      vertex 19.5 12.5 6
      vertex 54.5 12.5 6
    endloop
  endfacet
  facet normal 0 1 0
    outer loop
      vertex 19.5 12.5 6
      vertex 54.5 12.5 2
      vertex 19.5 12.5 2
    endloop
  endfacet
  facet normal 0 1 0
    outer loop
      vertex 54.5 12.5 6
      vertex 72 12.5 18
      vertex 72 12.5 6
    endloop
  endfacet
  facet normal 0 1 0
    outer loop
      vertex 72 12.5 18
      vertex 54.5 12.5 6
      vertex 2 12.5 18
    endloop
  endfacet
  facet normal 0 1 -0
    outer loop
      vertex 19.5 12.5 6
      vertex 2 12.5 18
      vertex 54.5 12.5 6
    endloop
  endfacet
  facet normal 0 1 0
    outer loop
      vertex 2 12.5 18
      vertex 19.5 12.5 6
      vertex 2 12.5 6
    endloop
  endfacet
  facet normal 1 0 0
    outer loop
      vertex 74 142.5 18
      vertex 74 132.5 9.5
      vertex 74 142.5 9.5
    endloop
  endfacet
  facet normal 1 0 0
    outer loop
      vertex 74 132.5 9.5
      vertex 74 50.5 9.5
      vertex 74 132.5 1
    endloop
  endfacet
  facet normal 1 0 0
    outer loop
      vertex 74 142.5 18
      vertex 74 50.5 9.5
      vertex 74 132.5 9.5
    endloop
  endfacet
  facet normal 1 -0 0
    outer loop
      vertex 74 40.5 18
      vertex 74 50.5 9.5
      vertex 74 142.5 18
    endloop
  endfacet
  facet normal 1 0 0
    outer loop
      vertex 74 50.5 9.5
      vertex 74 40.5 18
      vertex 74 40.5 9.5
    endloop
  endfacet
  facet normal 1 0 0
    outer loop
      vertex 74 132.5 1
      vertex 74 50.5 9.5
      vertex 74 50.5 1
    endloop
  endfacet
  facet normal -1 0 0
    outer loop
      vertex 91 132.5 1
      vertex 91 50.5 1
      vertex 91 132.5 9.5
    endloop
  endfacet
  facet normal -1 0 0
    outer loop
      vertex 91 132.5 9.5
      vertex 91 142.5 18
      vertex 91 142.5 9.5
    endloop
  endfacet
  facet normal -1 0 0
    outer loop
      vertex 91 50.5 9.5
      vertex 91 132.5 9.5
      vertex 91 50.5 1
    endloop
  endfacet
  facet normal -1 0 0
    outer loop
      vertex 91 132.5 9.5
      vertex 91 50.5 9.5
      vertex 91 142.5 18
    endloop
  endfacet
  facet normal -1 0 0
    outer loop
      vertex 91 40.5 18
      vertex 91 50.5 9.5
      vertex 91 40.5 9.5
    endloop
  endfacet
  facet normal -1 0 0
    outer loop
      vertex 91 50.5 9.5
      vertex 91 40.5 18
      vertex 91 142.5 18
    endloop
  endfacet
  facet normal 0 -1 0
    outer loop
      vertex 74 142.5 9.5
      vertex 91 142.5 18
      vertex 74 142.5 18
    endloop
  endfacet
  facet normal 0 -1 -0
    outer loop
      vertex 91 142.5 18
      vertex 74 142.5 9.5
      vertex 91 142.5 9.5
    endloop
  endfacet
  facet normal -0 0 1
    outer loop
      vertex 74 132.5 1
      vertex 91 50.5 1
      vertex 91 132.5 1
    endloop
  endfacet
  facet normal 0 0 1
    outer loop
      vertex 91 50.5 1
      vertex 74 132.5 1
      vertex 74 50.5 1
    endloop
  endfacet
  facet normal 0 1 -0
    outer loop
      vertex 91 40.5 9.5
      vertex 74 40.5 18
      vertex 91 40.5 18
    endloop
  endfacet
  facet normal 0 1 0
    outer loop
      vertex 74 40.5 18
      vertex 91 40.5 9.5
      vertex 74 40.5 9.5
    endloop
  endfacet
  facet normal 0 1 -0
    outer loop
      vertex 72 68.5 6
      vertex 54.5 68.5 18
      vertex 72 68.5 18
    endloop
  endfacet
  facet normal 0 1 0
    outer loop
      vertex 54.5 68.5 18
      vertex 72 68.5 6
      vertex 54.5 68.5 6
    endloop
  endfacet
  facet normal 0 1 -0
    outer loop
      vertex 19.5 68.5 6
      vertex 2 68.5 18
      vertex 19.5 68.5 18
    endloop
  endfacet
  facet normal 0 1 0
    outer loop
      vertex 2 68.5 18
      vertex 19.5 68.5 6
      vertex 2 68.5 6
    endloop
  endfacet
  facet normal 0 -1 0
    outer loop
      vertex 2 58.5 6
      vertex 19.5 58.5 18
      vertex 2 58.5 18
    endloop
  endfacet
  facet normal 0 -1 -0
    outer loop
      vertex 19.5 58.5 18
      vertex 2 58.5 6
      vertex 19.5 58.5 6
    endloop
  endfacet
  facet normal 0 -1 0
    outer loop
      vertex 54.5 58.5 6
      vertex 72 58.5 18
      vertex 54.5 58.5 18
    endloop
  endfacet
  facet normal 0 -1 -0
    outer loop
      vertex 72 58.5 18
      vertex 54.5 58.5 6
      vertex 72 58.5 6
    endloop
  endfacet
  facet normal 0 1 -0
    outer loop
      vertex 72 124.5 6
      vertex 54.5 124.5 18
      vertex 72 124.5 18
    endloop
  endfacet
  facet normal 0 1 0
    outer loop
      vertex 54.5 124.5 18
      vertex 72 124.5 6
      vertex 54.5 124.5 6
    endloop
  endfacet
  facet normal 0 1 -0
    outer loop
      vertex 19.5 124.5 6
      vertex 2 124.5 18
      vertex 19.5 124.5 18
    endloop
  endfacet
  facet normal 0 1 0
    outer loop
      vertex 2 124.5 18
      vertex 19.5 124.5 6
      vertex 2 124.5 6
    endloop
  endfacet
  facet normal 0 -1 0
    outer loop
      vertex 2 114.5 6
      vertex 19.5 114.5 18
      vertex 2 114.5 18
    endloop
  endfacet
  facet normal 0 -1 -0
    outer loop
      vertex 19.5 114.5 18
      vertex 2 114.5 6
      vertex 19.5 114.5 6
    endloop
  endfacet
  facet normal 0 -1 0
    outer loop
      vertex 54.5 114.5 6
      vertex 72 114.5 18
      vertex 54.5 114.5 18
    endloop
  endfacet
  facet normal 0 -1 -0
    outer loop
      vertex 72 114.5 18
      vertex 54.5 114.5 6
      vertex 72 114.5 6
    endloop
  endfacet
  facet normal -0 0 1
    outer loop
      vertex 74 50.5 9.5
      vertex 91 40.5 9.5
      vertex 91 50.5 9.5
    endloop
  endfacet
  facet normal 0 0 1
    outer loop
      vertex 91 40.5 9.5
      vertex 74 50.5 9.5
      vertex 74 40.5 9.5
    endloop
  endfacet
  facet normal 0 1 -0
    outer loop
      vertex 91 50.5 1
      vertex 74 50.5 9.5
      vertex 91 50.5 9.5
    endloop
  endfacet
  facet normal 0 1 0
    outer loop
      vertex 74 50.5 9.5
      vertex 91 50.5 1
      vertex 74 50.5 1
    endloop
  endfacet
  facet normal -0 0 1
    outer loop
      vertex 74 142.5 9.5
      vertex 91 132.5 9.5
      vertex 91 142.5 9.5
    endloop
  endfacet
  facet normal 0 0 1
    outer loop
      vertex 91 132.5 9.5
      vertex 74 142.5 9.5
      vertex 74 132.5 9.5
    endloop
  endfacet
  facet normal 0 -1 0
    outer loop
      vertex 74 132.5 1
      vertex 91 132.5 9.5
      vertex 74 132.5 9.5
    endloop
  endfacet
  facet normal 0 -1 -0
    outer loop
      vertex 91 132.5 9.5
      vertex 74 132.5 1
      vertex 91 132.5 1
    endloop
  endfacet
  facet normal -1 0 0
    outer loop
      vertex 54.5 170.5 2
      vertex 54.5 124.5 6
      vertex 54.5 170.5 6
    endloop
  endfacet
  facet normal -1 0 0
    outer loop
      vertex 54.5 124.5 6
      vertex 54.5 114.5 6
      vertex 54.5 124.5 18
    endloop
  endfacet
  facet normal -1 0 0
    outer loop
      vertex 54.5 170.5 2
      vertex 54.5 114.5 6
      vertex 54.5 124.5 6
    endloop
  endfacet
  facet normal -1 0 0
    outer loop
      vertex 54.5 170.5 2
      vertex 54.5 68.5 6
      vertex 54.5 114.5 6
    endloop
  endfacet
  facet normal -1 0 0
    outer loop
      vertex 54.5 68.5 6
      vertex 54.5 58.5 6
      vertex 54.5 68.5 18
    endloop
  endfacet
  facet normal -1 0 0
    outer loop
      vertex 54.5 12.5 2
      vertex 54.5 68.5 6
      vertex 54.5 170.5 2
    endloop
  endfacet
  facet normal -1 -0 0
    outer loop
      vertex 54.5 68.5 6
      vertex 54.5 12.5 2
      vertex 54.5 58.5 6
    endloop
  endfacet
  facet normal -1 -0 0
    outer loop
      vertex 54.5 58.5 6
      vertex 54.5 12.5 2
      vertex 54.5 12.5 6
    endloop
  endfacet
  facet normal -1 -0 0
    outer loop
      vertex 54.5 124.5 18
      vertex 54.5 114.5 6
      vertex 54.5 114.5 18
    endloop
  endfacet
  facet normal -1 -0 0
    outer loop
      vertex 54.5 68.5 18
      vertex 54.5 58.5 6
      vertex 54.5 58.5 18
    endloop
  endfacet
  facet normal 1 0 0
    outer loop
      vertex 19.5 68.5 18
      vertex 19.5 58.5 18
      vertex 19.5 68.5 6
    endloop
  endfacet
  facet normal 1 0 0
    outer loop
      vertex 19.5 124.5 18
      vertex 19.5 114.5 18
      vertex 19.5 124.5 6
    endloop
  endfacet
  facet normal 1 -0 0
    outer loop
      vertex 19.5 124.5 6
      vertex 19.5 170.5 2
      vertex 19.5 170.5 6
    endloop
  endfacet
  facet normal 1 0 0
    outer loop
      vertex 19.5 114.5 6
      vertex 19.5 124.5 6
      vertex 19.5 114.5 18
    endloop
  endfacet
  facet normal 1 -0 0
    outer loop
      vertex 19.5 114.5 6
      vertex 19.5 170.5 2
      vertex 19.5 124.5 6
    endloop
  endfacet
  facet normal 1 -0 0
    outer loop
      vertex 19.5 68.5 6
      vertex 19.5 170.5 2
      vertex 19.5 114.5 6
    endloop
  endfacet
  facet normal 1 0 0
    outer loop
      vertex 19.5 58.5 6
      vertex 19.5 68.5 6
      vertex 19.5 58.5 18
    endloop
  endfacet
  facet normal 1 0 0
    outer loop
      vertex 19.5 12.5 2
      vertex 19.5 68.5 6
      vertex 19.5 58.5 6
    endloop
  endfacet
  facet normal 1 0 0
    outer loop
      vertex 19.5 12.5 2
      vertex 19.5 58.5 6
      vertex 19.5 12.5 6
    endloop
  endfacet
  facet normal 1 0 0
    outer loop
      vertex 19.5 68.5 6
      vertex 19.5 12.5 2
      vertex 19.5 170.5 2
    endloop
  endfacet
  facet normal -0 0 1
    outer loop
      vertex 19.5 170.5 2
      vertex 54.5 12.5 2
      vertex 54.5 170.5 2
    endloop
  endfacet
  facet normal 0 0 1
    outer loop
      vertex 54.5 12.5 2
      vertex 19.5 170.5 2
      vertex 19.5 12.5 2
    endloop
  endfacet
endsolid OpenSCAD_Model
